<svg width="256" height="256" xmlns="http://www.w3.org/2000/svg"><g fill="none" stroke="red" stroke-width="0.015625" transform="scale(64) translate(0.5 0.5)"><path d="M 0 0 L 1.0 0.0 L 2.0 0.0 L 3.0 0.0 M 0 1 L 1.0 1.0 L 1.3599999999999999 1.0 A 0.06999999999999999 0.06999999999999999 0 0 1 1.4010050506338834 1.1110050506338833 A 0.13999999999999999 0.13999999999999999 0 1 0 1.5989949493661166 1.1110050506338833 A 0.06999999999999999 0.06999999999999999 0 0 1 1.6400000000000001 1.0 L 2.0 1.0 L 2.36 1.0 A 0.06999999999999999 0.06999999999999999 0 0 0 2.4010050506338834 0.8889949493661167 A 0.13999999999999999 0.13999999999999999 0 1 1 2.5989949493661166 0.8889949493661167 A 0.06999999999999999 0.06999999999999999 0 0 0 2.64 1.0 L 3.0 1.0 M 0 2 L 0.36 2.0 A 0.06999999999999999 0.06999999999999999 0 0 0 0.40100505063388336 1.8889949493661167 A 0.13999999999999999 0.13999999999999999 0 1 1 0.5989949493661166 1.8889949493661167 A 0.06999999999999999 0.06999999999999999 0 0 0 0.64 2.0 L 1.0 2.0 L 1.3599999999999999 2.0 A 0.06999999999999999 0.06999999999999999 0 0 1 1.4010050506338834 2.1110050506338833 A 0.13999999999999999 0.13999999999999999 0 1 0 1.5989949493661166 2.1110050506338833 A 0.06999999999999999 0.06999999999999999 0 0 1 1.6400000000000001 2.0 L 2.0 2.0 L 2.36 2.0 A 0.06999999999999999 0.06999999999999999 0 0 1 2.4010050506338834 2.1110050506338833 A 0.13999999999999999 0.13999999999999999 0 1 0 2.5989949493661166 2.1110050506338833 A 0.06999999999999999 0.06999999999999999 0 0 1 2.64 2.0 L 3.0 2.0 M 0 3 L 1.0 3.0 L 2.0 3.0 L 3.0 3.0 M 0 0 L 0.0 1.0 L 0.0 2.0 L 0.0 3.0 M 1 0 L 1.0 0.36 A 0.06999999999999999 0.06999999999999999 0 0 1 0.8889949493661167 0.40100505063388336 A 0.13999999999999999 0.13999999999999999 0 1 0 0.8889949493661167 0.5989949493661166 A 0.06999999999999999 0.06999999999999999 0 0 1 1.0 0.64 L 1.0 1.0 L 1.0 1.3599999999999999 A 0.06999999999999999 0.06999999999999999 0 0 1 0.8889949493661167 1.4010050506338834 A 0.13999999999999999 0.13999999999999999 0 1 0 0.8889949493661167 1.5989949493661166 A 0.06999999999999999 0.06999999999999999 0 0 1 1.0 1.6400000000000001 L 1.0 2.0 L 1.0 2.36 A 0.06999999999999999 0.06999999999999999 0 0 0 1.1110050506338833 2.4010050506338834 A 0.13999999999999999 0.13999999999999999 0 1 1 1.1110050506338833 2.5989949493661166 A 0.06999999999999999 0.06999999999999999 0 0 0 1.0 2.64 L 1.0 3.0 M 2 0 L 2.0 0.36 A 0.06999999999999999 0.06999999999999999 0 0 1 1.8889949493661167 0.40100505063388336 A 0.13999999999999999 0.13999999999999999 0 1 0 1.8889949493661167 0.5989949493661166 A 0.06999999999999999 0.06999999999999999 0 0 1 2.0 0.64 L 2.0 1.0 L 2.0 1.3599999999999999 A 0.06999999999999999 0.06999999999999999 0 0 1 1.8889949493661167 1.4010050506338834 A 0.13999999999999999 0.13999999999999999 0 1 0 1.8889949493661167 1.5989949493661166 A 0.06999999999999999 0.06999999999999999 0 0 1 2.0 1.6400000000000001 L 2.0 2.0 L 2.0 2.36 A 0.06999999999999999 0.06999999999999999 0 0 1 1.8889949493661167 2.4010050506338834 A 0.13999999999999999 0.13999999999999999 0 1 0 1.8889949493661167 2.5989949493661166 A 0.06999999999999999 0.06999999999999999 0 0 1 2.0 2.64 L 2.0 3.0 M 3 0 L 3.0 1.0 L 3.0 2.0 L 3.0 3.0"/></g></svg>