<svg width="256" height="256" xmlns="http://www.w3.org/2000/svg"><g fill="none" stroke="red" stroke-width="0.015625" transform="scale(64) translate(0.5 0.5)"><path d="M 0 0 L 1.0 0.0 L 2.0 0.0 L 3.0 0.0 M 0 1 C 0.18 1.0, 0.18 1.07, 0.36 1.07 A 0.06999999999999999 0.06999999999999999 0 0 0 0.40100505063388336 0.9589949493661166 A 0.13999999999999999 0.13999999999999999 0 1 1 0.5989949493661166 0.9589949493661166 A 0.06999999999999999 0.06999999999999999 0 0 0 0.64 1.07 C 0.82 1.07, 0.82 1.0, 1.0 1.0 C 1.18 1.0, 1.18 1.07, 1.3599999999999999 1.07 A 0.06999999999999999 0.06999999999999999 0 0 0 1.4010050506338834 0.9589949493661166 A 0.13999999999999999 0.13999999999999999 0 1 1 1.5989949493661166 0.9589949493661166 A 0.06999999999999999 0.06999999999999999 0 0 0 1.6400000000000001 1.07 C 1.8199999999999998 1.07, 1.8199999999999998 1.0, 2.0 1.0 C 2.18 1.0, 2.18 1.07, 2.36 1.07 A 0.06999999999999999 0.06999999999999999 0 0 0 2.4010050506338834 0.9589949493661166 A 0.13999999999999999 0.13999999999999999 0 1 1 2.5989949493661166 0.9589949493661166 A 0.06999999999999999 0.06999999999999999 0 0 0 2.64 1.07 C 2.82 1.07, 2.82 1.0, 3.0 1.0 M 0 2 C 0.18 2.0, 0.18 2.07, 0.36 2.07 A 0.06999999999999999 0.06999999999999999 0 0 0 0.40100505063388336 1.9589949493661167 A 0.13999999999999999 0.13999999999999999 0 1 1 0.5989949493661166 1.9589949493661167 A 0.06999999999999999 0.06999999999999999 0 0 0 0.64 2.07 C 0.82 2.07, 0.82 2.0, 1.0 2.0 C 1.18 2.0, 1.18 1.93, 1.3599999999999999 1.93 A 0.06999999999999999 0.06999999999999999 0 0 1 1.4010050506338834 2.0410050506338835 A 0.13999999999999999 0.13999999999999999 0 1 0 1.5989949493661166 2.0410050506338835 A 0.06999999999999999 0.06999999999999999 0 0 1 1.6400000000000001 1.93 C 1.8199999999999998 1.93, 1.8199999999999998 2.0, 2.0 2.0 C 2.18 2.0, 2.18 1.93, 2.36 1.93 A 0.06999999999999999 0.06999999999999999 0 0 1 2.4010050506338834 2.0410050506338835 A 0.13999999999999999 0.13999999999999999 0 1 0 2.5989949493661166 2.0410050506338835 A 0.06999999999999999 0.06999999999999999 0 0 1 2.64 1.93 C 2.82 1.93, 2.82 2.0, 3.0 2.0 M 0 3 L 1.0 3.0 C 1.18 3.0, 1.18 2.93, 1.3599999999999999 2.93 A 0.06999999999999999 0.06999999999999999 0 0 1 1.4010050506338834 3.0410050506338835 A 0.13999999999999999 0.13999999999999999 0 1 0 1.5989949493661166 3.0410050506338835 A 0.06999999999999999 0.06999999999999999 0 0 1 1.6400000000000001 2.93 C 1.8199999999999998 2.93, 1.8199999999999998 3.0, 2.0 3.0 L 3.0 3.0 M 0 0 L 0.0 1.0 L 0.0 2.0 L 0.0 3.0 M 1 0 C 1.0 0.18, 1.07 0.18, 1.07 0.36 A 0.06999999999999999 0.06999999999999999 0 0 1 0.9589949493661166 0.40100505063388336 A 0.13999999999999999 0.13999999999999999 0 1 0 0.9589949493661166 0.5989949493661166 A 0.06999999999999999 0.06999999999999999 0 0 1 1.07 0.64 C 1.07 0.82, 1.0 0.82, 1.0 1.0 C 1.0 1.18, 1.07 1.18, 1.07 1.3599999999999999 A 0.06999999999999999 0.06999999999999999 0 0 1 0.9589949493661166 1.4010050506338834 A 0.13999999999999999 0.13999999999999999 0 1 0 0.9589949493661166 1.5989949493661166 A 0.06999999999999999 0.06999999999999999 0 0 1 1.07 1.6400000000000001 C 1.07 1.8199999999999998, 1.0 1.8199999999999998, 1.0 2.0 C 1.0 2.18, 0.93 2.18, 0.93 2.36 A 0.06999999999999999 0.06999999999999999 0 0 0 1.0410050506338833 2.4010050506338834 A 0.13999999999999999 0.13999999999999999 0 1 1 1.0410050506338833 2.5989949493661166 A 0.06999999999999999 0.06999999999999999 0 0 0 0.93 2.64 C 0.93 2.82, 1.0 2.82, 1.0 3.0 M 2 0 C 2.0 0.18, 2.07 0.18, 2.07 0.36 A 0.06999999999999999 0.06999999999999999 0 0 1 1.9589949493661167 0.40100505063388336 A 0.13999999999999999 0.13999999999999999 0 1 0 1.9589949493661167 0.5989949493661166 A 0.06999999999999999 0.06999999999999999 0 0 1 2.07 0.64 C 2.07 0.82, 2.0 0.82, 2.0 1.0 C 2.0 1.18, 2.07 1.18, 2.07 1.3599999999999999 A 0.06999999999999999 0.06999999999999999 0 0 1 1.9589949493661167 1.4010050506338834 A 0.13999999999999999 0.13999999999999999 0 1 0 1.9589949493661167 1.5989949493661166 A 0.06999999999999999 0.06999999999999999 0 0 1 2.07 1.6400000000000001 C 2.07 1.8199999999999998, 2.0 1.8199999999999998, 2.0 2.0 C 2.0 2.18, 2.07 2.18, 2.07 2.36 A 0.06999999999999999 0.06999999999999999 0 0 1 1.9589949493661167 2.4010050506338834 A 0.13999999999999999 0.13999999999999999 0 1 0 1.9589949493661167 2.5989949493661166 A 0.06999999999999999 0.06999999999999999 0 0 1 2.07 2.64 C 2.07 2.82, 2.0 2.82, 2.0 3.0 M 3 0 L 3.0 1.0 L 3.0 2.0 L 3.0 3.0"/></g></svg>