<svg width="320" height="320" xmlns="http://www.w3.org/2000/svg"><g fill="none" stroke="red" stroke-width="0.015625" transform="scale(64) translate(0.5 0.5)"><path d="M 0 0 L 1.0 0.0 L 2.0 0.0 L 3.0 0.0 L 4.0 0.0 M 0 1 L 0.36 1.0 A 0.06999999999999999 0.06999999999999999 0 0 0 0.40100505063388336 0.8889949493661167 A 0.13999999999999999 0.13999999999999999 0 1 1 0.5989949493661166 0.8889949493661167 A 0.06999999999999999 0.06999999999999999 0 0 0 0.64 1.0 L 1.0 1.0 L 1.3599999999999999 1.0 A 0.06999999999999999 0.06999999999999999 0 0 0 1.4010050506338834 0.8889949493661167 A 0.13999999999999999 0.13999999999999999 0 1 1 1.5989949493661166 0.8889949493661167 A 0.06999999999999999 0.06999999999999999 0 0 0 1.6400000000000001 1.0 L 2.0 1.0 L 2.36 1.0 A 0.06999999999999999 0.06999999999999999 0 0 0 2.4010050506338834 0.8889949493661167 A 0.13999999999999999 0.13999999999999999 0 1 1 2.5989949493661166 0.8889949493661167 A 0.06999999999999999 0.06999999999999999 0 0 0 2.64 1.0 L 3.0 1.0 L 3.4 1.0 A 0.05 0.05 0 0 0 3.4292893218813454 0.9207106781186547 A 0.1 0.1 0 1 1 3.5707106781186546 0.9207106781186547 A 0.05 0.05 0 0 0 3.6 1.0 L 4.0 1.0 M 0 2 L 0.36 2.0 A 0.06999999999999999 0.06999999999999999 0 0 0 0.40100505063388336 1.8889949493661167 A 0.13999999999999999 0.13999999999999999 0 1 1 0.5989949493661166 1.8889949493661167 A 0.06999999999999999 0.06999999999999999 0 0 0 0.64 2.0 L 1.0 2.0 L 1.4 2.0 A 0.05 0.05 0 0 0 1.4292893218813454 1.9207106781186547 A 0.1 0.1 0 1 1 1.5707106781186546 1.9207106781186547 A 0.05 0.05 0 0 0 1.6 2.0 L 2.0 2.0 L 2.4 2.0 A 0.05 0.05 0 0 1 2.4292893218813454 2.0792893218813453 A 0.1 0.1 0 1 0 2.5707106781186546 2.0792893218813453 A 0.05 0.05 0 0 1 2.6 2.0 L 3.0 2.0 L 3.4 2.0 A 0.05 0.05 0 0 0 3.4292893218813454 1.9207106781186547 A 0.1 0.1 0 1 1 3.5707106781186546 1.9207106781186547 A 0.05 0.05 0 0 0 3.6 2.0 L 4.0 2.0 M 0 3 L 0.4 3.0 A 0.05 0.05 0 0 0 0.4292893218813453 2.9207106781186547 A 0.1 0.1 0 1 1 0.5707106781186547 2.9207106781186547 A 0.05 0.05 0 0 0 0.6 3.0 L 1.0 3.0 L 1.3599999999999999 3.0 A 0.06999999999999999 0.06999999999999999 0 0 0 1.4010050506338834 2.8889949493661167 A 0.13999999999999999 0.13999999999999999 0 1 1 1.5989949493661166 2.8889949493661167 A 0.06999999999999999 0.06999999999999999 0 0 0 1.6400000000000001 3.0 L 2.0 3.0 L 2.36 3.0 A 0.06999999999999999 0.06999999999999999 0 0 0 2.4010050506338834 2.8889949493661167 A 0.13999999999999999 0.13999999999999999 0 1 1 2.5989949493661166 2.8889949493661167 A 0.06999999999999999 0.06999999999999999 0 0 0 2.64 3.0 L 3.0 3.0 L 3.36 3.0 A 0.06999999999999999 0.06999999999999999 0 0 1 3.4010050506338834 3.1110050506338833 A 0.13999999999999999 0.13999999999999999 0 1 0 3.5989949493661166 3.1110050506338833 A 0.06999999999999999 0.06999999999999999 0 0 1 3.64 3.0 L 4.0 3.0 M 0 4 L 1.0 4.0 L 2.0 4.0 L 3.0 4.0 L 4.0 4.0 M 0 0 L 0.0 1.0 L 0.0 2.0 L 0.0 3.0 L 0.0 4.0 M 1 0 L 1.0 0.36 A 0.06999999999999999 0.06999999999999999 0 0 1 0.8889949493661167 0.40100505063388336 A 0.13999999999999999 0.13999999999999999 0 1 0 0.8889949493661167 0.5989949493661166 A 0.06999999999999999 0.06999999999999999 0 0 1 1.0 0.64 L 1.0 1.0 L 1.0 1.4 A 0.05 0.05 0 0 1 0.9207106781186547 1.4292893218813454 A 0.1 0.1 0 1 0 0.9207106781186547 1.5707106781186546 A 0.05 0.05 0 0 1 1.0 1.6 L 1.0 2.0 L 1.0 2.4 A 0.05 0.05 0 0 0 1.0792893218813453 2.4292893218813454 A 0.1 0.1 0 1 1 1.0792893218813453 2.5707106781186546 A 0.05 0.05 0 0 0 1.0 2.6 L 1.0 3.0 L 1.0 3.36 A 0.06999999999999999 0.06999999999999999 0 0 0 1.1110050506338833 3.4010050506338834 A 0.13999999999999999 0.13999999999999999 0 1 1 1.1110050506338833 3.5989949493661166 A 0.06999999999999999 0.06999999999999999 0 0 0 1.0 3.64 L 1.0 4.0 M 2 0 L 2.0 0.36 A 0.06999999999999999 0.06999999999999999 0 0 0 2.1110050506338833 0.40100505063388336 A 0.13999999999999999 0.13999999999999999 0 1 1 2.1110050506338833 0.5989949493661166 A 0.06999999999999999 0.06999999999999999 0 0 0 2.0 0.64 L 2.0 1.0 L 2.0 1.3599999999999999 A 0.06999999999999999 0.06999999999999999 0 0 0 2.1110050506338833 1.4010050506338834 A 0.13999999999999999 0.13999999999999999 0 1 1 2.1110050506338833 1.5989949493661166 A 0.06999999999999999 0.06999999999999999 0 0 0 2.0 1.6400000000000001 L 2.0 2.0 L 2.0 2.4 A 0.05 0.05 0 0 0 2.0792893218813453 2.4292893218813454 A 0.1 0.1 0 1 1 2.0792893218813453 2.5707106781186546 A 0.05 0.05 0 0 0 2.0 2.6 L 2.0 3.0 L 2.0 3.36 A 0.06999999999999999 0.06999999999999999 0 0 1 1.8889949493661167 3.4010050506338834 A 0.13999999999999999 0.13999999999999999 0 1 0 1.8889949493661167 3.5989949493661166 A 0.06999999999999999 0.06999999999999999 0 0 1 2.0 3.64 L 2.0 4.0 M 3 0 L 3.0 0.4 A 0.05 0.05 0 0 0 3.0792893218813453 0.4292893218813453 A 0.1 0.1 0 1 1 3.0792893218813453 0.5707106781186547 A 0.05 0.05 0 0 0 3.0 0.6 L 3.0 1.0 L 3.0 1.4 A 0.05 0.05 0 0 1 2.9207106781186547 1.4292893218813454 A 0.1 0.1 0 1 0 2.9207106781186547 1.5707106781186546 A 0.05 0.05 0 0 1 3.0 1.6 L 3.0 2.0 L 3.0 2.36 A 0.06999999999999999 0.06999999999999999 0 0 0 3.1110050506338833 2.4010050506338834 A 0.13999999999999999 0.13999999999999999 0 1 1 3.1110050506338833 2.5989949493661166 A 0.06999999999999999 0.06999999999999999 0 0 0 3.0 2.64 L 3.0 3.0 L 3.0 3.36 A 0.06999999999999999 0.06999999999999999 0 0 1 2.8889949493661167 3.4010050506338834 A 0.13999999999999999 0.13999999999999999 0 1 0 2.8889949493661167 3.5989949493661166 A 0.06999999999999999 0.06999999999999999 0 0 1 3.0 3.64 L 3.0 4.0 M 4 0 L 4.0 1.0 L 4.0 2.0 L 4.0 3.0 L 4.0 4.0"/></g></svg>