<svg width="384" height="384" xmlns="http://www.w3.org/2000/svg"><g fill="none" stroke="red" stroke-width="0.015625" transform="scale(64) translate(0.5 0.5)"><path d="M 0 0 L 1.0 0.0 L 2.0 0.0 L 3.0 0.0 L 4.0 0.0 L 5.0 0.0 M 0 1 L 0.36 1.0 A 0.06999999999999999 0.06999999999999999 0 0 0 0.40100505063388336 0.8889949493661167 A 0.13999999999999999 0.13999999999999999 0 1 1 0.5989949493661166 0.8889949493661167 A 0.06999999999999999 0.06999999999999999 0 0 0 0.64 1.0 L 1.0 1.0 L 1.4 1.0 A 0.05 0.05 0 0 0 1.4292893218813454 0.9207106781186547 A 0.1 0.1 0 1 1 1.5707106781186546 0.9207106781186547 A 0.05 0.05 0 0 0 1.6 1.0 L 2.0 1.0 L 2.4 1.0 A 0.05 0.05 0 0 0 2.4292893218813454 0.9207106781186547 A 0.1 0.1 0 1 1 2.5707106781186546 0.9207106781186547 A 0.05 0.05 0 0 0 2.6 1.0 L 3.0 1.0 L 3.36 1.0 A 0.06999999999999999 0.06999999999999999 0 0 1 3.4010050506338834 1.1110050506338833 A 0.13999999999999999 0.13999999999999999 0 1 0 3.5989949493661166 1.1110050506338833 A 0.06999999999999999 0.06999999999999999 0 0 1 3.64 1.0 L 4.0 1.0 L 4.36 1.0 A 0.06999999999999999 0.06999999999999999 0 0 1 4.401005050633883 1.1110050506338833 A 0.13999999999999999 0.13999999999999999 0 1 0 4.598994949366117 1.1110050506338833 A 0.06999999999999999 0.06999999999999999 0 0 1 4.64 1.0 L 5.0 1.0 M 0 2 L 0.4 2.0 A 0.05 0.05 0 0 0 0.4292893218813453 1.9207106781186547 A 0.1 0.1 0 1 1 0.5707106781186547 1.9207106781186547 A 0.05 0.05 0 0 0 0.6 2.0 L 1.0 2.0 L 1.4 2.0 A 0.05 0.05 0 0 0 1.4292893218813454 1.9207106781186547 A 0.1 0.1 0 1 1 1.5707106781186546 1.9207106781186547 A 0.05 0.05 0 0 0 1.6 2.0 L 2.0 2.0 L 2.36 2.0 A 0.06999999999999999 0.06999999999999999 0 0 0 2.4010050506338834 1.8889949493661167 A 0.13999999999999999 0.13999999999999999 0 1 1 2.5989949493661166 1.8889949493661167 A 0.06999999999999999 0.06999999999999999 0 0 0 2.64 2.0 L 3.0 2.0 L 3.4 2.0 A 0.05 0.05 0 0 0 3.4292893218813454 1.9207106781186547 A 0.1 0.1 0 1 1 3.5707106781186546 1.9207106781186547 A 0.05 0.05 0 0 0 3.6 2.0 L 4.0 2.0 L 4.36 2.0 A 0.06999999999999999 0.06999999999999999 0 0 1 4.401005050633883 2.1110050506338833 A 0.13999999999999999 0.13999999999999999 0 1 0 4.598994949366117 2.1110050506338833 A 0.06999999999999999 0.06999999999999999 0 0 1 4.64 2.0 L 5.0 2.0 M 0 3 L 0.4 3.0 A 0.05 0.05 0 0 0 0.4292893218813453 2.9207106781186547 A 0.1 0.1 0 1 1 0.5707106781186547 2.9207106781186547 A 0.05 0.05 0 0 0 0.6 3.0 L 1.0 3.0 L 1.4 3.0 A 0.05 0.05 0 0 0 1.4292893218813454 2.9207106781186547 A 0.1 0.1 0 1 1 1.5707106781186546 2.9207106781186547 A 0.05 0.05 0 0 0 1.6 3.0 L 2.0 3.0 L 2.36 3.0 A 0.06999999999999999 0.06999999999999999 0 0 1 2.4010050506338834 3.1110050506338833 A 0.13999999999999999 0.13999999999999999 0 1 0 2.5989949493661166 3.1110050506338833 A 0.06999999999999999 0.06999999999999999 0 0 1 2.64 3.0 L 3.0 3.0 L 3.36 3.0 A 0.06999999999999999 0.06999999999999999 0 0 0 3.4010050506338834 2.8889949493661167 A 0.13999999999999999 0.13999999999999999 0 1 1 3.5989949493661166 2.8889949493661167 A 0.06999999999999999 0.06999999999999999 0 0 0 3.64 3.0 L 4.0 3.0 L 4.36 3.0 A 0.06999999999999999 0.06999999999999999 0 0 0 4.401005050633883 2.8889949493661167 A 0.13999999999999999 0.13999999999999999 0 1 1 4.598994949366117 2.8889949493661167 A 0.06999999999999999 0.06999999999999999 0 0 0 4.64 3.0 L 5.0 3.0 M 0 4 L 0.36 4.0 A 0.06999999999999999 0.06999999999999999 0 0 0 0.40100505063388336 3.8889949493661167 A 0.13999999999999999 0.13999999999999999 0 1 1 0.5989949493661166 3.8889949493661167 A 0.06999999999999999 0.06999999999999999 0 0 0 0.64 4.0 L 1.0 4.0 L 1.3599999999999999 4.0 A 0.06999999999999999 0.06999999999999999 0 0 0 1.4010050506338834 3.8889949493661167 A 0.13999999999999999 0.13999999999999999 0 1 1 1.5989949493661166 3.8889949493661167 A 0.06999999999999999 0.06999999999999999 0 0 0 1.6400000000000001 4.0 L 2.0 4.0 L 2.4 4.0 A 0.05 0.05 0 0 0 2.4292893218813454 3.9207106781186547 A 0.1 0.1 0 1 1 2.5707106781186546 3.9207106781186547 A 0.05 0.05 0 0 0 2.6 4.0 L 3.0 4.0 L 3.4 4.0 A 0.05 0.05 0 0 1 3.4292893218813454 4.079289321881345 A 0.1 0.1 0 1 0 3.5707106781186546 4.079289321881345 A 0.05 0.05 0 0 1 3.6 4.0 L 4.0 4.0 L 4.4 4.0 A 0.05 0.05 0 0 0 4.429289321881345 3.9207106781186547 A 0.1 0.1 0 1 1 4.570710678118655 3.9207106781186547 A 0.05 0.05 0 0 0 4.6 4.0 L 5.0 4.0 M 0 5 L 1.0 5.0 L 2.0 5.0 L 3.0 5.0 L 4.0 5.0 L 5.0 5.0 M 0 0 L 0.0 1.0 L 0.0 2.0 L 0.0 3.0 L 0.0 4.0 L 0.0 5.0 M 1 0 L 1.0 0.4 A 0.05 0.05 0 0 1 0.9207106781186547 0.4292893218813453 A 0.1 0.1 0 1 0 0.9207106781186547 0.5707106781186547 A 0.05 0.05 0 0 1 1.0 0.6 L 1.0 1.0 L 1.0 1.3599999999999999 A 0.06999999999999999 0.06999999999999999 0 0 1 0.8889949493661167 1.4010050506338834 A 0.13999999999999999 0.13999999999999999 0 1 0 0.8889949493661167 1.5989949493661166 A 0.06999999999999999 0.06999999999999999 0 0 1 1.0 1.6400000000000001 L 1.0 2.0 L 1.0 2.4 A 0.05 0.05 0 0 0 1.0792893218813453 2.4292893218813454 A 0.1 0.1 0 1 1 1.0792893218813453 2.5707106781186546 A 0.05 0.05 0 0 0 1.0 2.6 L 1.0 3.0 L 1.0 3.36 A 0.06999999999999999 0.06999999999999999 0 0 0 1.1110050506338833 3.4010050506338834 A 0.13999999999999999 0.13999999999999999 0 1 1 1.1110050506338833 3.5989949493661166 A 0.06999999999999999 0.06999999999999999 0 0 0 1.0 3.64 L 1.0 4.0 L 1.0 4.4 A 0.05 0.05 0 0 1 0.9207106781186547 4.429289321881345 A 0.1 0.1 0 1 0 0.9207106781186547 4.570710678118655 A 0.05 0.05 0 0 1 1.0 4.6 L 1.0 5.0 M 2 0 L 2.0 0.36 A 0.06999999999999999 0.06999999999999999 0 0 1 1.8889949493661167 0.40100505063388336 A 0.13999999999999999 0.13999999999999999 0 1 0 1.8889949493661167 0.5989949493661166 A 0.06999999999999999 0.06999999999999999 0 0 1 2.0 0.64 L 2.0 1.0 L 2.0 1.3599999999999999 A 0.06999999999999999 0.06999999999999999 0 0 1 1.8889949493661167 1.4010050506338834 A 0.13999999999999999 0.13999999999999999 0 1 0 1.8889949493661167 1.5989949493661166 A 0.06999999999999999 0.06999999999999999 0 0 1 2.0 1.6400000000000001 L 2.0 2.0 L 2.0 2.4 A 0.05 0.05 0 0 1 1.9207106781186547 2.4292893218813454 A 0.1 0.1 0 1 0 1.9207106781186547 2.5707106781186546 A 0.05 0.05 0 0 1 2.0 2.6 L 2.0 3.0 L 2.0 3.4 A 0.05 0.05 0 0 0 2.0792893218813453 3.4292893218813454 A 0.1 0.1 0 1 1 2.0792893218813453 3.5707106781186546 A 0.05 0.05 0 0 0 2.0 3.6 L 2.0 4.0 L 2.0 4.4 A 0.05 0.05 0 0 1 1.9207106781186547 4.429289321881345 A 0.1 0.1 0 1 0 1.9207106781186547 4.570710678118655 A 0.05 0.05 0 0 1 2.0 4.6 L 2.0 5.0 M 3 0 L 3.0 0.36 A 0.06999999999999999 0.06999999999999999 0 0 0 3.1110050506338833 0.40100505063388336 A 0.13999999999999999 0.13999999999999999 0 1 1 3.1110050506338833 0.5989949493661166 A 0.06999999999999999 0.06999999999999999 0 0 0 3.0 0.64 L 3.0 1.0 L 3.0 1.3599999999999999 A 0.06999999999999999 0.06999999999999999 0 0 1 2.8889949493661167 1.4010050506338834 A 0.13999999999999999 0.13999999999999999 0 1 0 2.8889949493661167 1.5989949493661166 A 0.06999999999999999 0.06999999999999999 0 0 1 3.0 1.6400000000000001 L 3.0 2.0 L 3.0 2.36 A 0.06999999999999999 0.06999999999999999 0 0 0 3.1110050506338833 2.4010050506338834 A 0.13999999999999999 0.13999999999999999 0 1 1 3.1110050506338833 2.5989949493661166 A 0.06999999999999999 0.06999999999999999 0 0 0 3.0 2.64 L 3.0 3.0 L 3.0 3.36 A 0.06999999999999999 0.06999999999999999 0 0 0 3.1110050506338833 3.4010050506338834 A 0.13999999999999999 0.13999999999999999 0 1 1 3.1110050506338833 3.5989949493661166 A 0.06999999999999999 0.06999999999999999 0 0 0 3.0 3.64 L 3.0 4.0 L 3.0 4.36 A 0.06999999999999999 0.06999999999999999 0 0 0 3.1110050506338833 4.401005050633883 A 0.13999999999999999 0.13999999999999999 0 1 1 3.1110050506338833 4.598994949366117 A 0.06999999999999999 0.06999999999999999 0 0 0 3.0 4.64 L 3.0 5.0 M 4 0 L 4.0 0.36 A 0.06999999999999999 0.06999999999999999 0 0 1 3.8889949493661167 0.40100505063388336 A 0.13999999999999999 0.13999999999999999 0 1 0 3.8889949493661167 0.5989949493661166 A 0.06999999999999999 0.06999999999999999 0 0 1 4.0 0.64 L 4.0 1.0 L 4.0 1.4 A 0.05 0.05 0 0 1 3.9207106781186547 1.4292893218813454 A 0.1 0.1 0 1 0 3.9207106781186547 1.5707106781186546 A 0.05 0.05 0 0 1 4.0 1.6 L 4.0 2.0 L 4.0 2.36 A 0.06999999999999999 0.06999999999999999 0 0 0 4.111005050633883 2.4010050506338834 A 0.13999999999999999 0.13999999999999999 0 1 1 4.111005050633883 2.5989949493661166 A 0.06999999999999999 0.06999999999999999 0 0 0 4.0 2.64 L 4.0 3.0 L 4.0 3.4 A 0.05 0.05 0 0 1 3.9207106781186547 3.4292893218813454 A 0.1 0.1 0 1 0 3.9207106781186547 3.5707106781186546 A 0.05 0.05 0 0 1 4.0 3.6 L 4.0 4.0 L 4.0 4.4 A 0.05 0.05 0 0 1 3.9207106781186547 4.429289321881345 A 0.1 0.1 0 1 0 3.9207106781186547 4.570710678118655 A 0.05 0.05 0 0 1 4.0 4.6 L 4.0 5.0 M 5 0 L 5.0 1.0 L 5.0 2.0 L 5.0 3.0 L 5.0 4.0 L 5.0 5.0"/></g></svg>