<svg width="384" height="384" xmlns="http://www.w3.org/2000/svg"><g fill="none" stroke="red" stroke-width="0.015625" transform="scale(64) translate(0.5 0.5)"><path d="M 0 0 L 1.0 0.0 L 2.0 0.0 L 3.0 0.0 L 4.0 0.0 L 5.0 0.0 M 0 1 C 0.2 1.0, 0.2 0.95, 0.4 0.95 A 0.05 0.05 0 0 1 0.4292893218813453 1.0292893218813453 A 0.1 0.1 0 1 0 0.5707106781186547 1.0292893218813453 A 0.05 0.05 0 0 1 0.6 0.95 C 0.8 0.95, 0.8 1.0, 1.0 1.0 C 1.18 1.0, 1.18 0.93, 1.3599999999999999 0.93 A 0.06999999999999999 0.06999999999999999 0 0 1 1.4010050506338834 1.0410050506338833 A 0.13999999999999999 0.13999999999999999 0 1 0 1.5989949493661166 1.0410050506338833 A 0.06999999999999999 0.06999999999999999 0 0 1 1.6400000000000001 0.93 C 1.8199999999999998 0.93, 1.8199999999999998 1.0, 2.0 1.0 C 2.2 1.0, 2.2 0.95, 2.4 0.95 A 0.05 0.05 0 0 1 2.4292893218813454 1.0292893218813453 A 0.1 0.1 0 1 0 2.5707106781186546 1.0292893218813453 A 0.05 0.05 0 0 1 2.6 0.95 C 2.8 0.95, 2.8 1.0, 3.0 1.0 C 3.18 1.0, 3.18 1.07, 3.36 1.07 A 0.06999999999999999 0.06999999999999999 0 0 0 3.4010050506338834 0.9589949493661166 A 0.13999999999999999 0.13999999999999999 0 1 1 3.5989949493661166 0.9589949493661166 A 0.06999999999999999 0.06999999999999999 0 0 0 3.64 1.07 C 3.82 1.07, 3.82 1.0, 4.0 1.0 C 4.18 1.0, 4.18 1.07, 4.36 1.07 A 0.06999999999999999 0.06999999999999999 0 0 0 4.401005050633883 0.9589949493661166 A 0.13999999999999999 0.13999999999999999 0 1 1 4.598994949366117 0.9589949493661166 A 0.06999999999999999 0.06999999999999999 0 0 0 4.64 1.07 C 4.82 1.07, 4.82 1.0, 5.0 1.0 M 0 2 C 0.2 2.0, 0.2 1.95, 0.4 1.95 A 0.05 0.05 0 0 1 0.4292893218813453 2.029289321881345 A 0.1 0.1 0 1 0 0.5707106781186547 2.029289321881345 A 0.05 0.05 0 0 1 0.6 1.95 C 0.8 1.95, 0.8 2.0, 1.0 2.0 C 1.2 2.0, 1.2 2.05, 1.4 2.05 A 0.05 0.05 0 0 0 1.4292893218813454 1.9707106781186547 A 0.1 0.1 0 1 1 1.5707106781186546 1.9707106781186547 A 0.05 0.05 0 0 0 1.6 2.05 C 1.8 2.05, 1.8 2.0, 2.0 2.0 L 3.0 2.0 C 3.18 2.0, 3.18 1.93, 3.36 1.93 A 0.06999999999999999 0.06999999999999999 0 0 1 3.4010050506338834 2.0410050506338835 A 0.13999999999999999 0.13999999999999999 0 1 0 3.5989949493661166 2.0410050506338835 A 0.06999999999999999 0.06999999999999999 0 0 1 3.64 1.93 C 3.82 1.93, 3.82 2.0, 4.0 2.0 C 4.18 2.0, 4.18 2.07, 4.36 2.07 A 0.06999999999999999 0.06999999999999999 0 0 0 4.401005050633883 1.9589949493661167 A 0.13999999999999999 0.13999999999999999 0 1 1 4.598994949366117 1.9589949493661167 A 0.06999999999999999 0.06999999999999999 0 0 0 4.64 2.07 C 4.82 2.07, 4.82 2.0, 5.0 2.0 M 0 3 C 0.18 3.0, 0.18 2.93, 0.36 2.93 A 0.06999999999999999 0.06999999999999999 0 0 1 0.40100505063388336 3.0410050506338835 A 0.13999999999999999 0.13999999999999999 0 1 0 0.5989949493661166 3.0410050506338835 A 0.06999999999999999 0.06999999999999999 0 0 1 0.64 2.93 C 0.82 2.93, 0.82 3.0, 1.0 3.0 C 1.2 3.0, 1.2 3.05, 1.4 3.05 A 0.05 0.05 0 0 0 1.4292893218813454 2.970710678118655 A 0.1 0.1 0 1 1 1.5707106781186546 2.970710678118655 A 0.05 0.05 0 0 0 1.6 3.05 C 1.8 3.05, 1.8 3.0, 2.0 3.0 C 2.18 3.0, 2.18 3.07, 2.36 3.07 A 0.06999999999999999 0.06999999999999999 0 0 0 2.4010050506338834 2.9589949493661165 A 0.13999999999999999 0.13999999999999999 0 1 1 2.5989949493661166 2.9589949493661165 A 0.06999999999999999 0.06999999999999999 0 0 0 2.64 3.07 C 2.82 3.07, 2.82 3.0, 3.0 3.0 C 3.2 3.0, 3.2 2.95, 3.4 2.95 A 0.05 0.05 0 0 1 3.4292893218813454 3.029289321881345 A 0.1 0.1 0 1 0 3.5707106781186546 3.029289321881345 A 0.05 0.05 0 0 1 3.6 2.95 C 3.8 2.95, 3.8 3.0, 4.0 3.0 C 4.2 3.0, 4.2 2.95, 4.4 2.95 A 0.05 0.05 0 0 1 4.429289321881345 3.029289321881345 A 0.1 0.1 0 1 0 4.570710678118655 3.029289321881345 A 0.05 0.05 0 0 1 4.6 2.95 C 4.8 2.95, 4.8 3.0, 5.0 3.0 M 0 4 C 0.18 4.0, 0.18 4.07, 0.36 4.07 A 0.06999999999999999 0.06999999999999999 0 0 0 0.40100505063388336 3.9589949493661165 A 0.13999999999999999 0.13999999999999999 0 1 1 0.5989949493661166 3.9589949493661165 A 0.06999999999999999 0.06999999999999999 0 0 0 0.64 4.07 C 0.82 4.07, 0.82 4.0, 1.0 4.0 C 1.2 4.0, 1.2 4.05, 1.4 4.05 A 0.05 0.05 0 0 0 1.4292893218813454 3.970710678118655 A 0.1 0.1 0 1 1 1.5707106781186546 3.970710678118655 A 0.05 0.05 0 0 0 1.6 4.05 C 1.8 4.05, 1.8 4.0, 2.0 4.0 C 2.18 4.0, 2.18 4.07, 2.36 4.07 A 0.06999999999999999 0.06999999999999999 0 0 0 2.4010050506338834 3.9589949493661165 A 0.13999999999999999 0.13999999999999999 0 1 1 2.5989949493661166 3.9589949493661165 A 0.06999999999999999 0.06999999999999999 0 0 0 2.64 4.07 C 2.82 4.07, 2.82 4.0, 3.0 4.0 C 3.2 4.0, 3.2 3.95, 3.4 3.95 A 0.05 0.05 0 0 1 3.4292893218813454 4.029289321881345 A 0.1 0.1 0 1 0 3.5707106781186546 4.029289321881345 A 0.05 0.05 0 0 1 3.6 3.95 C 3.8 3.95, 3.8 4.0, 4.0 4.0 C 4.18 4.0, 4.18 3.93, 4.36 3.93 A 0.06999999999999999 0.06999999999999999 0 0 1 4.401005050633883 4.041005050633883 A 0.13999999999999999 0.13999999999999999 0 1 0 4.598994949366117 4.041005050633883 A 0.06999999999999999 0.06999999999999999 0 0 1 4.64 3.93 C 4.82 3.93, 4.82 4.0, 5.0 4.0 M 0 5 L 1.0 5.0 L 2.0 5.0 L 3.0 5.0 L 4.0 5.0 L 5.0 5.0 M 0 0 L 0.0 1.0 L 0.0 2.0 L 0.0 3.0 L 0.0 4.0 L 0.0 5.0 M 1 0 C 1.0 0.2, 1.05 0.2, 1.05 0.4 A 0.05 0.05 0 0 1 0.9707106781186547 0.4292893218813453 A 0.1 0.1 0 1 0 0.9707106781186547 0.5707106781186547 A 0.05 0.05 0 0 1 1.05 0.6 C 1.05 0.8, 1.0 0.8, 1.0 1.0 C 1.0 1.2, 1.05 1.2, 1.05 1.4 A 0.05 0.05 0 0 1 0.9707106781186547 1.4292893218813454 A 0.1 0.1 0 1 0 0.9707106781186547 1.5707106781186546 A 0.05 0.05 0 0 1 1.05 1.6 C 1.05 1.8, 1.0 1.8, 1.0 2.0 C 1.0 2.2, 1.05 2.2, 1.05 2.4 A 0.05 0.05 0 0 1 0.9707106781186547 2.4292893218813454 A 0.1 0.1 0 1 0 0.9707106781186547 2.5707106781186546 A 0.05 0.05 0 0 1 1.05 2.6 C 1.05 2.8, 1.0 2.8, 1.0 3.0 C 1.0 3.18, 1.07 3.18, 1.07 3.36 A 0.06999999999999999 0.06999999999999999 0 0 1 0.9589949493661166 3.4010050506338834 A 0.13999999999999999 0.13999999999999999 0 1 0 0.9589949493661166 3.5989949493661166 A 0.06999999999999999 0.06999999999999999 0 0 1 1.07 3.64 C 1.07 3.82, 1.0 3.82, 1.0 4.0 C 1.0 4.18, 0.93 4.18, 0.93 4.36 A 0.06999999999999999 0.06999999999999999 0 0 0 1.0410050506338833 4.401005050633883 A 0.13999999999999999 0.13999999999999999 0 1 1 1.0410050506338833 4.598994949366117 A 0.06999999999999999 0.06999999999999999 0 0 0 0.93 4.64 C 0.93 4.82, 1.0 4.82, 1.0 5.0 M 2 0 C 2.0 0.2, 2.05 0.2, 2.05 0.4 A 0.05 0.05 0 0 1 1.9707106781186547 0.4292893218813453 A 0.1 0.1 0 1 0 1.9707106781186547 0.5707106781186547 A 0.05 0.05 0 0 1 2.05 0.6 C 2.05 0.8, 2.0 0.8, 2.0 1.0 L 2.0 2.0 C 2.0 2.2, 1.95 2.2, 1.95 2.4 A 0.05 0.05 0 0 0 2.029289321881345 2.4292893218813454 A 0.1 0.1 0 1 1 2.029289321881345 2.5707106781186546 A 0.05 0.05 0 0 0 1.95 2.6 C 1.95 2.8, 2.0 2.8, 2.0 3.0 C 2.0 3.18, 1.93 3.18, 1.93 3.36 A 0.06999999999999999 0.06999999999999999 0 0 0 2.0410050506338835 3.4010050506338834 A 0.13999999999999999 0.13999999999999999 0 1 1 2.0410050506338835 3.5989949493661166 A 0.06999999999999999 0.06999999999999999 0 0 0 1.93 3.64 C 1.93 3.82, 2.0 3.82, 2.0 4.0 C 2.0 4.18, 2.07 4.18, 2.07 4.36 A 0.06999999999999999 0.06999999999999999 0 0 1 1.9589949493661167 4.401005050633883 A 0.13999999999999999 0.13999999999999999 0 1 0 1.9589949493661167 4.598994949366117 A 0.06999999999999999 0.06999999999999999 0 0 1 2.07 4.64 C 2.07 4.82, 2.0 4.82, 2.0 5.0 M 3 0 C 3.0 0.2, 2.95 0.2, 2.95 0.4 A 0.05 0.05 0 0 0 3.029289321881345 0.4292893218813453 A 0.1 0.1 0 1 1 3.029289321881345 0.5707106781186547 A 0.05 0.05 0 0 0 2.95 0.6 C 2.95 0.8, 3.0 0.8, 3.0 1.0 C 3.0 1.2, 3.05 1.2, 3.05 1.4 A 0.05 0.05 0 0 1 2.970710678118655 1.4292893218813454 A 0.1 0.1 0 1 0 2.970710678118655 1.5707106781186546 A 0.05 0.05 0 0 1 3.05 1.6 C 3.05 1.8, 3.0 1.8, 3.0 2.0 C 3.0 2.2, 3.05 2.2, 3.05 2.4 A 0.05 0.05 0 0 1 2.970710678118655 2.4292893218813454 A 0.1 0.1 0 1 0 2.970710678118655 2.5707106781186546 A 0.05 0.05 0 0 1 3.05 2.6 C 3.05 2.8, 3.0 2.8, 3.0 3.0 C 3.0 3.2, 2.95 3.2, 2.95 3.4 A 0.05 0.05 0 0 0 3.029289321881345 3.4292893218813454 A 0.1 0.1 0 1 1 3.029289321881345 3.5707106781186546 A 0.05 0.05 0 0 0 2.95 3.6 C 2.95 3.8, 3.0 3.8, 3.0 4.0 C 3.0 4.18, 3.07 4.18, 3.07 4.36 A 0.06999999999999999 0.06999999999999999 0 0 1 2.9589949493661165 4.401005050633883 A 0.13999999999999999 0.13999999999999999 0 1 0 2.9589949493661165 4.598994949366117 A 0.06999999999999999 0.06999999999999999 0 0 1 3.07 4.64 C 3.07 4.82, 3.0 4.82, 3.0 5.0 M 4 0 C 4.0 0.2, 3.95 0.2, 3.95 0.4 A 0.05 0.05 0 0 0 4.029289321881345 0.4292893218813453 A 0.1 0.1 0 1 1 4.029289321881345 0.5707106781186547 A 0.05 0.05 0 0 0 3.95 0.6 C 3.95 0.8, 4.0 0.8, 4.0 1.0 C 4.0 1.18, 3.93 1.18, 3.93 1.3599999999999999 A 0.06999999999999999 0.06999999999999999 0 0 0 4.041005050633883 1.4010050506338834 A 0.13999999999999999 0.13999999999999999 0 1 1 4.041005050633883 1.5989949493661166 A 0.06999999999999999 0.06999999999999999 0 0 0 3.93 1.6400000000000001 C 3.93 1.8199999999999998, 4.0 1.8199999999999998, 4.0 2.0 C 4.0 2.18, 3.93 2.18, 3.93 2.36 A 0.06999999999999999 0.06999999999999999 0 0 0 4.041005050633883 2.4010050506338834 A 0.13999999999999999 0.13999999999999999 0 1 1 4.041005050633883 2.5989949493661166 A 0.06999999999999999 0.06999999999999999 0 0 0 3.93 2.64 C 3.93 2.82, 4.0 2.82, 4.0 3.0 C 4.0 3.18, 4.07 3.18, 4.07 3.36 A 0.06999999999999999 0.06999999999999999 0 0 1 3.9589949493661165 3.4010050506338834 A 0.13999999999999999 0.13999999999999999 0 1 0 3.9589949493661165 3.5989949493661166 A 0.06999999999999999 0.06999999999999999 0 0 1 4.07 3.64 C 4.07 3.82, 4.0 3.82, 4.0 4.0 C 4.0 4.18, 3.93 4.18, 3.93 4.36 A 0.06999999999999999 0.06999999999999999 0 0 0 4.041005050633883 4.401005050633883 A 0.13999999999999999 0.13999999999999999 0 1 1 4.041005050633883 4.598994949366117 A 0.06999999999999999 0.06999999999999999 0 0 0 3.93 4.64 C 3.93 4.82, 4.0 4.82, 4.0 5.0 M 5 0 L 5.0 1.0 L 5.0 2.0 L 5.0 3.0 L 5.0 4.0 L 5.0 5.0"/></g></svg>