<svg width="1152" height="768" xmlns="http://www.w3.org/2000/svg"><g transform="translate(32.0 32.0)"><path fill="none" stroke="black" d="M 0.0 -2.56 L 0.0 0.0 L 0.0 64.0 L 0.0 128.0 L 0.0 192.0 L 0.0 256.0 L 0.0 320.0 L 0.0 384.0 L 0.0 448.0 L 0.0 512.0 L 0.0 576.0 L 0.0 640.0 L 0.0 704.0 L 0.0 706.56 M 64.0 -2.56 L 64.0 0.0 C 64.0 7.999999999999999, 60.8 7.999999999999999, 60.8 15.999999999999998 A 3.2 3.2 0 0 0 65.8745166004061 17.874516600406096 A 6.4 6.4 0 1 1 65.8745166004061 26.9254833995939 A 3.2 3.2 0 0 0 60.8 28.799999999999997 C 60.8 46.400000000000006, 64.0 46.400000000000006, 64.0 64.0 C 64.0 75.52, 59.52 75.52, 59.52 87.03999999999999 A 4.4799999999999995 4.4799999999999995 0 0 0 66.62432324056853 89.66432324056854 A 8.959999999999999 8.959999999999999 0 1 1 66.62432324056853 102.33567675943146 A 4.4799999999999995 4.4799999999999995 0 0 0 59.52 104.96000000000001 C 59.52 116.47999999999999, 64.0 116.47999999999999, 64.0 128.0 C 64.0 145.6, 67.2 145.6, 67.2 163.2 A 3.2 3.2 0 0 1 62.125483399593904 165.0745166004061 A 6.4 6.4 0 1 0 62.125483399593904 174.12548339959392 A 3.2 3.2 0 0 1 67.2 176.0 C 67.2 184.0, 64.0 184.0, 64.0 192.0 C 64.0 204.8, 67.2 204.8, 67.2 217.6 A 3.2 3.2 0 0 1 62.125483399593904 219.4745166004061 A 6.4 6.4 0 1 0 62.125483399593904 228.5254833995939 A 3.2 3.2 0 0 1 67.2 230.4 C 67.2 243.2, 64.0 243.2, 64.0 256.0 C 64.0 264.0, 67.2 264.0, 67.2 272.0 A 3.2 3.2 0 0 1 62.125483399593904 273.8745166004061 A 6.4 6.4 0 1 0 62.125483399593904 282.9254833995939 A 3.2 3.2 0 0 1 67.2 284.8 C 67.2 302.4, 64.0 302.4, 64.0 320.0 C 64.0 328.0, 67.2 328.0, 67.2 336.0 A 3.2 3.2 0 0 1 62.125483399593904 337.8745166004061 A 6.4 6.4 0 1 0 62.125483399593904 346.9254833995939 A 3.2 3.2 0 0 1 67.2 348.8 C 67.2 366.4, 64.0 366.4, 64.0 384.0 C 64.0 392.0, 67.2 392.0, 67.2 400.0 A 3.2 3.2 0 0 1 62.125483399593904 401.8745166004061 A 6.4 6.4 0 1 0 62.125483399593904 410.9254833995939 A 3.2 3.2 0 0 1 67.2 412.8 C 67.2 430.4, 64.0 430.4, 64.0 448.0 C 64.0 460.8, 60.8 460.8, 60.8 473.6 A 3.2 3.2 0 0 0 65.8745166004061 475.4745166004061 A 6.4 6.4 0 1 1 65.8745166004061 484.5254833995939 A 3.2 3.2 0 0 0 60.8 486.4 C 60.8 499.2, 64.0 499.2, 64.0 512.0 C 64.0 520.0, 60.8 520.0, 60.8 528.0 A 3.2 3.2 0 0 0 65.8745166004061 529.8745166004061 A 6.4 6.4 0 1 1 65.8745166004061 538.9254833995939 A 3.2 3.2 0 0 0 60.8 540.8 C 60.8 544.0, 67.2 544.0, 67.2 547.2 A 3.2 3.2 0 0 1 62.125483399593904 549.0745166004061 A 6.4 6.4 0 1 0 62.125483399593904 558.1254833995939 A 3.2 3.2 0 0 1 67.2 560.0 C 67.2 568.0, 64.0 568.0, 64.0 576.0 C 64.0 584.0, 60.8 584.0, 60.8 592.0 A 3.2 3.2 0 0 0 65.8745166004061 593.8745166004061 A 6.4 6.4 0 1 1 65.8745166004061 602.9254833995939 A 3.2 3.2 0 0 0 60.8 604.8 C 60.8 622.4, 64.0 622.4, 64.0 640.0 L 64.0 704.0 L 64.0 706.56 M 128.0 -2.56 L 128.0 0.0 C 128.0 7.999999999999999, 124.8 7.999999999999999, 124.8 15.999999999999998 A 3.2 3.2 0 0 0 129.87451660040608 17.874516600406096 A 6.4 6.4 0 1 1 129.87451660040608 26.9254833995939 A 3.2 3.2 0 0 0 124.8 28.799999999999997 L 124.8 35.2 A 3.2 3.2 0 0 0 129.87451660040608 37.0745166004061 A 6.4 6.4 0 1 1 129.87451660040608 46.125483399593904 A 3.2 3.2 0 0 0 124.8 48.0 C 124.8 56.0, 128.0 56.0, 128.0 64.0 C 128.0 75.52, 132.48 75.52, 132.48 87.03999999999999 A 4.4799999999999995 4.4799999999999995 0 0 1 125.37567675943147 89.66432324056854 A 8.959999999999999 8.959999999999999 0 1 0 125.37567675943147 102.33567675943146 A 4.4799999999999995 4.4799999999999995 0 0 1 132.48 104.96000000000001 C 132.48 116.47999999999999, 128.0 116.47999999999999, 128.0 128.0 L 128.0 192.0 C 128.0 203.52, 123.52 203.52, 123.52 215.04 A 4.4799999999999995 4.4799999999999995 0 0 0 130.62432324056854 217.66432324056854 A 8.959999999999999 8.959999999999999 0 1 1 130.62432324056854 230.33567675943146 A 4.4799999999999995 4.4799999999999995 0 0 0 123.52 232.96 C 123.52 244.48, 128.0 244.48, 128.0 256.0 C 128.0 264.0, 124.8 264.0, 124.8 272.0 A 3.2 3.2 0 0 0 129.87451660040608 273.8745166004061 A 6.4 6.4 0 1 1 129.87451660040608 282.9254833995939 A 3.2 3.2 0 0 0 124.8 284.8 C 124.8 302.4, 128.0 302.4, 128.0 320.0 C 128.0 337.6, 131.2 337.6, 131.2 355.2 A 3.2 3.2 0 0 1 126.1254833995939 357.0745166004061 A 6.4 6.4 0 1 0 126.1254833995939 366.1254833995939 A 3.2 3.2 0 0 1 131.2 368.0 C 131.2 376.0, 128.0 376.0, 128.0 384.0 C 128.0 392.0, 124.8 392.0, 124.8 400.0 A 3.2 3.2 0 0 0 129.87451660040608 401.8745166004061 A 6.4 6.4 0 1 1 129.87451660040608 410.9254833995939 A 3.2 3.2 0 0 0 124.8 412.8 C 124.8 416.0, 131.2 416.0, 131.2 419.2 A 3.2 3.2 0 0 1 126.1254833995939 421.0745166004061 A 6.4 6.4 0 1 0 126.1254833995939 430.1254833995939 A 3.2 3.2 0 0 1 131.2 432.0 C 131.2 440.0, 128.0 440.0, 128.0 448.0 C 128.0 460.8, 124.8 460.8, 124.8 473.6 A 3.2 3.2 0 0 0 129.87451660040608 475.4745166004061 A 6.4 6.4 0 1 1 129.87451660040608 484.5254833995939 A 3.2 3.2 0 0 0 124.8 486.4 C 124.8 499.2, 128.0 499.2, 128.0 512.0 C 128.0 524.8, 124.8 524.8, 124.8 537.6 A 3.2 3.2 0 0 0 129.87451660040608 539.4745166004061 A 6.4 6.4 0 1 1 129.87451660040608 548.5254833995939 A 3.2 3.2 0 0 0 124.8 550.4 C 124.8 563.2, 128.0 563.2, 128.0 576.0 C 128.0 584.0, 131.2 584.0, 131.2 592.0 A 3.2 3.2 0 0 1 126.1254833995939 593.8745166004061 A 6.4 6.4 0 1 0 126.1254833995939 602.9254833995939 A 3.2 3.2 0 0 1 131.2 604.8 C 131.2 608.0, 124.8 608.0, 124.8 611.2 A 3.2 3.2 0 0 0 129.87451660040608 613.0745166004061 A 6.4 6.4 0 1 1 129.87451660040608 622.1254833995939 A 3.2 3.2 0 0 0 124.8 624.0 C 124.8 632.0, 128.0 632.0, 128.0 640.0 L 128.0 704.0 L 128.0 706.56 M 192.0 -2.56 L 192.0 0.0 C 192.0 7.999999999999999, 188.8 7.999999999999999, 188.8 15.999999999999998 A 3.2 3.2 0 0 0 193.87451660040608 17.874516600406096 A 6.4 6.4 0 1 1 193.87451660040608 26.9254833995939 A 3.2 3.2 0 0 0 188.8 28.799999999999997 L 188.8 35.2 A 3.2 3.2 0 0 0 193.87451660040608 37.0745166004061 A 6.4 6.4 0 1 1 193.87451660040608 46.125483399593904 A 3.2 3.2 0 0 0 188.8 48.0 C 188.8 56.0, 192.0 56.0, 192.0 64.0 C 192.0 75.52, 187.52 75.52, 187.52 87.03999999999999 A 4.4799999999999995 4.4799999999999995 0 0 0 194.62432324056854 89.66432324056854 A 8.959999999999999 8.959999999999999 0 1 1 194.62432324056854 102.33567675943146 A 4.4799999999999995 4.4799999999999995 0 0 0 187.52 104.96000000000001 C 187.52 116.47999999999999, 192.0 116.47999999999999, 192.0 128.0 L 192.0 192.0 C 192.0 204.8, 195.2 204.8, 195.2 217.6 A 3.2 3.2 0 0 1 190.12548339959392 219.4745166004061 A 6.4 6.4 0 1 0 190.12548339959392 228.5254833995939 A 3.2 3.2 0 0 1 195.2 230.4 C 195.2 243.2, 192.0 243.2, 192.0 256.0 C 192.0 273.6, 195.2 273.6, 195.2 291.2 A 3.2 3.2 0 0 1 190.12548339959392 293.0745166004061 A 6.4 6.4 0 1 0 190.12548339959392 302.1254833995939 A 3.2 3.2 0 0 1 195.2 304.0 C 195.2 312.0, 192.0 312.0, 192.0 320.0 C 192.0 328.0, 195.2 328.0, 195.2 336.0 A 3.2 3.2 0 0 1 190.12548339959392 337.8745166004061 A 6.4 6.4 0 1 0 190.12548339959392 346.9254833995939 A 3.2 3.2 0 0 1 195.2 348.8 L 195.2 355.2 A 3.2 3.2 0 0 1 190.12548339959392 357.0745166004061 A 6.4 6.4 0 1 0 190.12548339959392 366.1254833995939 A 3.2 3.2 0 0 1 195.2 368.0 C 195.2 376.0, 192.0 376.0, 192.0 384.0 C 192.0 401.6, 195.2 401.6, 195.2 419.2 A 3.2 3.2 0 0 1 190.12548339959392 421.0745166004061 A 6.4 6.4 0 1 0 190.12548339959392 430.1254833995939 A 3.2 3.2 0 0 1 195.2 432.0 C 195.2 440.0, 192.0 440.0, 192.0 448.0 L 192.0 512.0 C 192.0 524.8, 195.2 524.8, 195.2 537.6 A 3.2 3.2 0 0 1 190.12548339959392 539.4745166004061 A 6.4 6.4 0 1 0 190.12548339959392 548.5254833995939 A 3.2 3.2 0 0 1 195.2 550.4 C 195.2 563.2, 192.0 563.2, 192.0 576.0 C 192.0 593.6, 188.8 593.6, 188.8 611.2 A 3.2 3.2 0 0 0 193.87451660040608 613.0745166004061 A 6.4 6.4 0 1 1 193.87451660040608 622.1254833995939 A 3.2 3.2 0 0 0 188.8 624.0 C 188.8 632.0, 192.0 632.0, 192.0 640.0 L 192.0 704.0 L 192.0 706.56 M 256.0 -2.56 L 256.0 0.0 C 256.0 7.999999999999999, 252.8 7.999999999999999, 252.8 15.999999999999998 A 3.2 3.2 0 0 0 257.8745166004061 17.874516600406096 A 6.4 6.4 0 1 1 257.8745166004061 26.9254833995939 A 3.2 3.2 0 0 0 252.8 28.799999999999997 C 252.8 46.400000000000006, 256.0 46.400000000000006, 256.0 64.0 C 256.0 75.52, 260.48 75.52, 260.48 87.03999999999999 A 4.4799999999999995 4.4799999999999995 0 0 1 253.37567675943146 89.66432324056854 A 8.959999999999999 8.959999999999999 0 1 0 253.37567675943146 102.33567675943146 A 4.4799999999999995 4.4799999999999995 0 0 1 260.48 104.96000000000001 C 260.48 116.47999999999999, 256.0 116.47999999999999, 256.0 128.0 C 256.0 145.6, 259.2 145.6, 259.2 163.2 A 3.2 3.2 0 0 1 254.12548339959392 165.0745166004061 A 6.4 6.4 0 1 0 254.12548339959392 174.12548339959392 A 3.2 3.2 0 0 1 259.2 176.0 C 259.2 184.0, 256.0 184.0, 256.0 192.0 C 256.0 204.8, 259.2 204.8, 259.2 217.6 A 3.2 3.2 0 0 1 254.12548339959392 219.4745166004061 A 6.4 6.4 0 1 0 254.12548339959392 228.5254833995939 A 3.2 3.2 0 0 1 259.2 230.4 C 259.2 243.2, 256.0 243.2, 256.0 256.0 C 256.0 264.0, 252.8 264.0, 252.8 272.0 A 3.2 3.2 0 0 0 257.8745166004061 273.8745166004061 A 6.4 6.4 0 1 1 257.8745166004061 282.9254833995939 A 3.2 3.2 0 0 0 252.8 284.8 C 252.8 302.4, 256.0 302.4, 256.0 320.0 C 256.0 328.0, 252.8 328.0, 252.8 336.0 A 3.2 3.2 0 0 0 257.8745166004061 337.8745166004061 A 6.4 6.4 0 1 1 257.8745166004061 346.9254833995939 A 3.2 3.2 0 0 0 252.8 348.8 C 252.8 366.4, 256.0 366.4, 256.0 384.0 C 256.0 392.0, 259.2 392.0, 259.2 400.0 A 3.2 3.2 0 0 1 254.12548339959392 401.8745166004061 A 6.4 6.4 0 1 0 254.12548339959392 410.9254833995939 A 3.2 3.2 0 0 1 259.2 412.8 C 259.2 430.4, 256.0 430.4, 256.0 448.0 C 256.0 456.0, 259.2 456.0, 259.2 464.0 A 3.2 3.2 0 0 1 254.12548339959392 465.8745166004061 A 6.4 6.4 0 1 0 254.12548339959392 474.9254833995939 A 3.2 3.2 0 0 1 259.2 476.8 L 259.2 483.2 A 3.2 3.2 0 0 1 254.12548339959392 485.0745166004061 A 6.4 6.4 0 1 0 254.12548339959392 494.1254833995939 A 3.2 3.2 0 0 1 259.2 496.0 C 259.2 504.0, 256.0 504.0, 256.0 512.0 C 256.0 520.0, 259.2 520.0, 259.2 528.0 A 3.2 3.2 0 0 1 254.12548339959392 529.8745166004061 A 6.4 6.4 0 1 0 254.12548339959392 538.9254833995939 A 3.2 3.2 0 0 1 259.2 540.8 C 259.2 558.4, 256.0 558.4, 256.0 576.0 C 256.0 584.0, 252.8 584.0, 252.8 592.0 A 3.2 3.2 0 0 0 257.8745166004061 593.8745166004061 A 6.4 6.4 0 1 1 257.8745166004061 602.9254833995939 A 3.2 3.2 0 0 0 252.8 604.8 L 252.8 611.2 A 3.2 3.2 0 0 0 257.8745166004061 613.0745166004061 A 6.4 6.4 0 1 1 257.8745166004061 622.1254833995939 A 3.2 3.2 0 0 0 252.8 624.0 C 252.8 632.0, 256.0 632.0, 256.0 640.0 L 256.0 704.0 L 256.0 706.56 M 320.0 -2.56 L 320.0 0.0 L 320.0 64.0 L 320.0 128.0 L 320.0 192.0 L 320.0 256.0 L 320.0 320.0 L 320.0 384.0 L 320.0 448.0 L 320.0 512.0 L 320.0 576.0 L 320.0 640.0 L 320.0 704.0 L 320.0 706.56 M 384.0 -2.56 L 384.0 0.0 C 384.0 11.52, 379.52 11.52, 379.52 23.04 A 4.4799999999999995 4.4799999999999995 0 0 0 386.6243232405685 25.664323240568535 A 8.959999999999999 8.959999999999999 0 1 1 386.6243232405685 38.335676759431465 A 4.4799999999999995 4.4799999999999995 0 0 0 379.52 40.96 C 379.52 52.48, 384.0 52.48, 384.0 64.0 C 384.0 76.8, 380.8 76.8, 380.8 89.6 A 3.2 3.2 0 0 0 385.8745166004061 91.4745166004061 A 6.4 6.4 0 1 1 385.8745166004061 100.5254833995939 A 3.2 3.2 0 0 0 380.8 102.4 C 380.8 115.2, 384.0 115.2, 384.0 128.0 C 384.0 140.8, 387.2 140.8, 387.2 153.6 A 3.2 3.2 0 0 1 382.1254833995939 155.4745166004061 A 6.4 6.4 0 1 0 382.1254833995939 164.5254833995939 A 3.2 3.2 0 0 1 387.2 166.4 C 387.2 179.2, 384.0 179.2, 384.0 192.0 C 384.0 203.52, 379.52 203.52, 379.52 215.04 A 4.4799999999999995 4.4799999999999995 0 0 0 386.6243232405685 217.66432324056854 A 8.959999999999999 8.959999999999999 0 1 1 386.6243232405685 230.33567675943146 A 4.4799999999999995 4.4799999999999995 0 0 0 379.52 232.96 C 379.52 244.48, 384.0 244.48, 384.0 256.0 C 384.0 273.6, 380.8 273.6, 380.8 291.2 A 3.2 3.2 0 0 0 385.8745166004061 293.0745166004061 A 6.4 6.4 0 1 1 385.8745166004061 302.1254833995939 A 3.2 3.2 0 0 0 380.8 304.0 C 380.8 312.0, 384.0 312.0, 384.0 320.0 C 384.0 337.6, 380.8 337.6, 380.8 355.2 A 3.2 3.2 0 0 0 385.8745166004061 357.0745166004061 A 6.4 6.4 0 1 1 385.8745166004061 366.1254833995939 A 3.2 3.2 0 0 0 380.8 368.0 C 380.8 376.0, 384.0 376.0, 384.0 384.0 C 384.0 392.0, 380.8 392.0, 380.8 400.0 A 3.2 3.2 0 0 0 385.8745166004061 401.8745166004061 A 6.4 6.4 0 1 1 385.8745166004061 410.9254833995939 A 3.2 3.2 0 0 0 380.8 412.8 C 380.8 430.4, 384.0 430.4, 384.0 448.0 C 384.0 465.6, 380.8 465.6, 380.8 483.2 A 3.2 3.2 0 0 0 385.8745166004061 485.0745166004061 A 6.4 6.4 0 1 1 385.8745166004061 494.1254833995939 A 3.2 3.2 0 0 0 380.8 496.0 C 380.8 504.0, 384.0 504.0, 384.0 512.0 C 384.0 523.52, 379.52 523.52, 379.52 535.04 A 4.4799999999999995 4.4799999999999995 0 0 0 386.6243232405685 537.6643232405686 A 8.959999999999999 8.959999999999999 0 1 1 386.6243232405685 550.3356767594314 A 4.4799999999999995 4.4799999999999995 0 0 0 379.52 552.96 C 379.52 564.48, 384.0 564.48, 384.0 576.0 C 384.0 587.52, 388.48 587.52, 388.48 599.04 A 4.4799999999999995 4.4799999999999995 0 0 1 381.3756767594315 601.6643232405686 A 8.959999999999999 8.959999999999999 0 1 0 381.3756767594315 614.3356767594314 A 4.4799999999999995 4.4799999999999995 0 0 1 388.48 616.96 C 388.48 628.48, 384.0 628.48, 384.0 640.0 C 384.0 651.52, 388.48 651.52, 388.48 663.04 A 4.4799999999999995 4.4799999999999995 0 0 1 381.3756767594315 665.6643232405686 A 8.959999999999999 8.959999999999999 0 1 0 381.3756767594315 678.3356767594314 A 4.4799999999999995 4.4799999999999995 0 0 1 388.48 680.96 C 388.48 692.48, 384.0 692.48, 384.0 704.0 L 384.0 706.56 M 448.0 -2.56 L 448.0 0.0 C 448.0 12.8, 444.8 12.8, 444.8 25.6 A 3.2 3.2 0 0 0 449.8745166004061 27.474516600406098 A 6.4 6.4 0 1 1 449.8745166004061 36.5254833995939 A 3.2 3.2 0 0 0 444.8 38.4 C 444.8 51.2, 448.0 51.2, 448.0 64.0 C 448.0 76.8, 444.8 76.8, 444.8 89.6 A 3.2 3.2 0 0 0 449.8745166004061 91.4745166004061 A 6.4 6.4 0 1 1 449.8745166004061 100.5254833995939 A 3.2 3.2 0 0 0 444.8 102.4 C 444.8 115.2, 448.0 115.2, 448.0 128.0 C 448.0 139.52, 452.48 139.52, 452.48 151.04 A 4.4799999999999995 4.4799999999999995 0 0 1 445.3756767594315 153.66432324056854 A 8.959999999999999 8.959999999999999 0 1 0 445.3756767594315 166.33567675943146 A 4.4799999999999995 4.4799999999999995 0 0 1 452.48 168.96 C 452.48 180.48, 448.0 180.48, 448.0 192.0 C 448.0 204.8, 451.2 204.8, 451.2 217.6 A 3.2 3.2 0 0 1 446.1254833995939 219.4745166004061 A 6.4 6.4 0 1 0 446.1254833995939 228.5254833995939 A 3.2 3.2 0 0 1 451.2 230.4 C 451.2 243.2, 448.0 243.2, 448.0 256.0 C 448.0 264.0, 451.2 264.0, 451.2 272.0 A 3.2 3.2 0 0 1 446.1254833995939 273.8745166004061 A 6.4 6.4 0 1 0 446.1254833995939 282.9254833995939 A 3.2 3.2 0 0 1 451.2 284.8 L 451.2 291.2 A 3.2 3.2 0 0 1 446.1254833995939 293.0745166004061 A 6.4 6.4 0 1 0 446.1254833995939 302.1254833995939 A 3.2 3.2 0 0 1 451.2 304.0 C 451.2 312.0, 448.0 312.0, 448.0 320.0 C 448.0 328.0, 451.2 328.0, 451.2 336.0 A 3.2 3.2 0 0 1 446.1254833995939 337.8745166004061 A 6.4 6.4 0 1 0 446.1254833995939 346.9254833995939 A 3.2 3.2 0 0 1 451.2 348.8 C 451.2 352.0, 444.8 352.0, 444.8 355.2 A 3.2 3.2 0 0 0 449.8745166004061 357.0745166004061 A 6.4 6.4 0 1 1 449.8745166004061 366.1254833995939 A 3.2 3.2 0 0 0 444.8 368.0 C 444.8 376.0, 448.0 376.0, 448.0 384.0 C 448.0 401.6, 451.2 401.6, 451.2 419.2 A 3.2 3.2 0 0 1 446.1254833995939 421.0745166004061 A 6.4 6.4 0 1 0 446.1254833995939 430.1254833995939 A 3.2 3.2 0 0 1 451.2 432.0 C 451.2 440.0, 448.0 440.0, 448.0 448.0 C 448.0 465.6, 444.8 465.6, 444.8 483.2 A 3.2 3.2 0 0 0 449.8745166004061 485.0745166004061 A 6.4 6.4 0 1 1 449.8745166004061 494.1254833995939 A 3.2 3.2 0 0 0 444.8 496.0 C 444.8 504.0, 448.0 504.0, 448.0 512.0 C 448.0 523.52, 443.52 523.52, 443.52 535.04 A 4.4799999999999995 4.4799999999999995 0 0 0 450.6243232405685 537.6643232405686 A 8.959999999999999 8.959999999999999 0 1 1 450.6243232405685 550.3356767594314 A 4.4799999999999995 4.4799999999999995 0 0 0 443.52 552.96 C 443.52 564.48, 448.0 564.48, 448.0 576.0 C 448.0 587.52, 443.52 587.52, 443.52 599.04 A 4.4799999999999995 4.4799999999999995 0 0 0 450.6243232405685 601.6643232405686 A 8.959999999999999 8.959999999999999 0 1 1 450.6243232405685 614.3356767594314 A 4.4799999999999995 4.4799999999999995 0 0 0 443.52 616.96 C 443.52 628.48, 448.0 628.48, 448.0 640.0 C 448.0 651.52, 452.48 651.52, 452.48 663.04 A 4.4799999999999995 4.4799999999999995 0 0 1 445.3756767594315 665.6643232405686 A 8.959999999999999 8.959999999999999 0 1 0 445.3756767594315 678.3356767594314 A 4.4799999999999995 4.4799999999999995 0 0 1 452.48 680.96 C 452.48 692.48, 448.0 692.48, 448.0 704.0 L 448.0 706.56 M 512.0 -2.56 L 512.0 0.0 C 512.0 12.8, 515.2 12.8, 515.2 25.6 A 3.2 3.2 0 0 1 510.1254833995939 27.474516600406098 A 6.4 6.4 0 1 0 510.1254833995939 36.5254833995939 A 3.2 3.2 0 0 1 515.2 38.4 C 515.2 51.2, 512.0 51.2, 512.0 64.0 C 512.0 75.52, 507.52 75.52, 507.52 87.03999999999999 A 4.4799999999999995 4.4799999999999995 0 0 0 514.6243232405685 89.66432324056854 A 8.959999999999999 8.959999999999999 0 1 1 514.6243232405685 102.33567675943146 A 4.4799999999999995 4.4799999999999995 0 0 0 507.52 104.96000000000001 C 507.52 116.47999999999999, 512.0 116.47999999999999, 512.0 128.0 C 512.0 139.52, 516.48 139.52, 516.48 151.04 A 4.4799999999999995 4.4799999999999995 0 0 1 509.3756767594315 153.66432324056854 A 8.959999999999999 8.959999999999999 0 1 0 509.3756767594315 166.33567675943146 A 4.4799999999999995 4.4799999999999995 0 0 1 516.48 168.96 C 516.48 180.48, 512.0 180.48, 512.0 192.0 C 512.0 204.8, 515.2 204.8, 515.2 217.6 A 3.2 3.2 0 0 1 510.1254833995939 219.4745166004061 A 6.4 6.4 0 1 0 510.1254833995939 228.5254833995939 A 3.2 3.2 0 0 1 515.2 230.4 C 515.2 243.2, 512.0 243.2, 512.0 256.0 C 512.0 273.6, 508.8 273.6, 508.8 291.2 A 3.2 3.2 0 0 0 513.8745166004061 293.0745166004061 A 6.4 6.4 0 1 1 513.8745166004061 302.1254833995939 A 3.2 3.2 0 0 0 508.8 304.0 C 508.8 312.0, 512.0 312.0, 512.0 320.0 C 512.0 328.0, 515.2 328.0, 515.2 336.0 A 3.2 3.2 0 0 1 510.1254833995939 337.8745166004061 A 6.4 6.4 0 1 0 510.1254833995939 346.9254833995939 A 3.2 3.2 0 0 1 515.2 348.8 C 515.2 352.0, 508.8 352.0, 508.8 355.2 A 3.2 3.2 0 0 0 513.8745166004061 357.0745166004061 A 6.4 6.4 0 1 1 513.8745166004061 366.1254833995939 A 3.2 3.2 0 0 0 508.8 368.0 C 508.8 376.0, 512.0 376.0, 512.0 384.0 C 512.0 401.6, 515.2 401.6, 515.2 419.2 A 3.2 3.2 0 0 1 510.1254833995939 421.0745166004061 A 6.4 6.4 0 1 0 510.1254833995939 430.1254833995939 A 3.2 3.2 0 0 1 515.2 432.0 C 515.2 440.0, 512.0 440.0, 512.0 448.0 C 512.0 456.0, 515.2 456.0, 515.2 464.0 A 3.2 3.2 0 0 1 510.1254833995939 465.8745166004061 A 6.4 6.4 0 1 0 510.1254833995939 474.9254833995939 A 3.2 3.2 0 0 1 515.2 476.8 L 515.2 483.2 A 3.2 3.2 0 0 1 510.1254833995939 485.0745166004061 A 6.4 6.4 0 1 0 510.1254833995939 494.1254833995939 A 3.2 3.2 0 0 1 515.2 496.0 C 515.2 504.0, 512.0 504.0, 512.0 512.0 L 512.0 576.0 L 512.0 640.0 L 512.0 704.0 L 512.0 706.56 M 576.0 -2.56 L 576.0 0.0 L 576.0 64.0 L 576.0 128.0 L 576.0 192.0 L 576.0 256.0 L 576.0 320.0 L 576.0 384.0 L 576.0 448.0 L 576.0 512.0 C 576.0 523.52, 580.48 523.52, 580.48 535.04 A 4.4799999999999995 4.4799999999999995 0 0 1 573.3756767594315 537.6643232405686 A 8.959999999999999 8.959999999999999 0 1 0 573.3756767594315 550.3356767594314 A 4.4799999999999995 4.4799999999999995 0 0 1 580.48 552.96 C 580.48 564.48, 576.0 564.48, 576.0 576.0 C 576.0 588.8, 572.8 588.8, 572.8 601.6 A 3.2 3.2 0 0 0 577.8745166004061 603.4745166004061 A 6.4 6.4 0 1 1 577.8745166004061 612.5254833995939 A 3.2 3.2 0 0 0 572.8 614.4 C 572.8 627.2, 576.0 627.2, 576.0 640.0 C 576.0 652.8, 572.8 652.8, 572.8 665.6 A 3.2 3.2 0 0 0 577.8745166004061 667.4745166004061 A 6.4 6.4 0 1 1 577.8745166004061 676.5254833995939 A 3.2 3.2 0 0 0 572.8 678.4 C 572.8 691.2, 576.0 691.2, 576.0 704.0 L 576.0 706.56 M 640.0 -2.56 L 640.0 0.0 C 640.0 17.6, 636.8 17.6, 636.8 35.2 A 3.2 3.2 0 0 0 641.8745166004061 37.0745166004061 A 6.4 6.4 0 1 1 641.8745166004061 46.125483399593904 A 3.2 3.2 0 0 0 636.8 48.0 C 636.8 56.0, 640.0 56.0, 640.0 64.0 C 640.0 76.8, 636.8 76.8, 636.8 89.6 A 3.2 3.2 0 0 0 641.8745166004061 91.4745166004061 A 6.4 6.4 0 1 1 641.8745166004061 100.5254833995939 A 3.2 3.2 0 0 0 636.8 102.4 C 636.8 115.2, 640.0 115.2, 640.0 128.0 C 640.0 140.8, 643.2 140.8, 643.2 153.6 A 3.2 3.2 0 0 1 638.1254833995939 155.4745166004061 A 6.4 6.4 0 1 0 638.1254833995939 164.5254833995939 A 3.2 3.2 0 0 1 643.2 166.4 C 643.2 179.2, 640.0 179.2, 640.0 192.0 C 640.0 209.6, 636.8 209.6, 636.8 227.2 A 3.2 3.2 0 0 0 641.8745166004061 229.0745166004061 A 6.4 6.4 0 1 1 641.8745166004061 238.12548339959392 A 3.2 3.2 0 0 0 636.8 240.0 C 636.8 248.0, 640.0 248.0, 640.0 256.0 C 640.0 268.8, 643.2 268.8, 643.2 281.6 A 3.2 3.2 0 0 1 638.1254833995939 283.4745166004061 A 6.4 6.4 0 1 0 638.1254833995939 292.5254833995939 A 3.2 3.2 0 0 1 643.2 294.4 C 643.2 307.2, 640.0 307.2, 640.0 320.0 C 640.0 332.8, 636.8 332.8, 636.8 345.6 A 3.2 3.2 0 0 0 641.8745166004061 347.4745166004061 A 6.4 6.4 0 1 1 641.8745166004061 356.5254833995939 A 3.2 3.2 0 0 0 636.8 358.4 C 636.8 371.2, 640.0 371.2, 640.0 384.0 C 640.0 396.8, 636.8 396.8, 636.8 409.6 A 3.2 3.2 0 0 0 641.8745166004061 411.4745166004061 A 6.4 6.4 0 1 1 641.8745166004061 420.5254833995939 A 3.2 3.2 0 0 0 636.8 422.4 C 636.8 435.2, 640.0 435.2, 640.0 448.0 C 640.0 459.52, 644.48 459.52, 644.48 471.04 A 4.4799999999999995 4.4799999999999995 0 0 1 637.3756767594315 473.66432324056854 A 8.959999999999999 8.959999999999999 0 1 0 637.3756767594315 486.33567675943146 A 4.4799999999999995 4.4799999999999995 0 0 1 644.48 488.96 C 644.48 500.48, 640.0 500.48, 640.0 512.0 C 640.0 524.8, 636.8 524.8, 636.8 537.6 A 3.2 3.2 0 0 0 641.8745166004061 539.4745166004061 A 6.4 6.4 0 1 1 641.8745166004061 548.5254833995939 A 3.2 3.2 0 0 0 636.8 550.4 C 636.8 563.2, 640.0 563.2, 640.0 576.0 C 640.0 587.52, 644.48 587.52, 644.48 599.04 A 4.4799999999999995 4.4799999999999995 0 0 1 637.3756767594315 601.6643232405686 A 8.959999999999999 8.959999999999999 0 1 0 637.3756767594315 614.3356767594314 A 4.4799999999999995 4.4799999999999995 0 0 1 644.48 616.96 C 644.48 628.48, 640.0 628.48, 640.0 640.0 C 640.0 652.8, 643.2 652.8, 643.2 665.6 A 3.2 3.2 0 0 1 638.1254833995939 667.4745166004061 A 6.4 6.4 0 1 0 638.1254833995939 676.5254833995939 A 3.2 3.2 0 0 1 643.2 678.4 C 643.2 691.2, 640.0 691.2, 640.0 704.0 L 640.0 706.56 M 704.0 -2.56 L 704.0 0.0 C 704.0 7.999999999999999, 700.8 7.999999999999999, 700.8 15.999999999999998 A 3.2 3.2 0 0 0 705.8745166004061 17.874516600406096 A 6.4 6.4 0 1 1 705.8745166004061 26.9254833995939 A 3.2 3.2 0 0 0 700.8 28.799999999999997 C 700.8 46.400000000000006, 704.0 46.400000000000006, 704.0 64.0 L 704.0 128.0 L 704.0 192.0 C 704.0 200.0, 707.2 200.0, 707.2 208.0 A 3.2 3.2 0 0 1 702.1254833995939 209.87451660040608 A 6.4 6.4 0 1 0 702.1254833995939 218.9254833995939 A 3.2 3.2 0 0 1 707.2 220.8 C 707.2 238.4, 704.0 238.4, 704.0 256.0 C 704.0 268.8, 707.2 268.8, 707.2 281.6 A 3.2 3.2 0 0 1 702.1254833995939 283.4745166004061 A 6.4 6.4 0 1 0 702.1254833995939 292.5254833995939 A 3.2 3.2 0 0 1 707.2 294.4 C 707.2 307.2, 704.0 307.2, 704.0 320.0 L 704.0 384.0 C 704.0 396.8, 707.2 396.8, 707.2 409.6 A 3.2 3.2 0 0 1 702.1254833995939 411.4745166004061 A 6.4 6.4 0 1 0 702.1254833995939 420.5254833995939 A 3.2 3.2 0 0 1 707.2 422.4 C 707.2 435.2, 704.0 435.2, 704.0 448.0 C 704.0 460.8, 700.8 460.8, 700.8 473.6 A 3.2 3.2 0 0 0 705.8745166004061 475.4745166004061 A 6.4 6.4 0 1 1 705.8745166004061 484.5254833995939 A 3.2 3.2 0 0 0 700.8 486.4 C 700.8 499.2, 704.0 499.2, 704.0 512.0 L 704.0 576.0 L 704.0 640.0 L 704.0 704.0 L 704.0 706.56 M 768.0 -2.56 L 768.0 0.0 C 768.0 17.6, 771.2 17.6, 771.2 35.2 A 3.2 3.2 0 0 1 766.1254833995939 37.0745166004061 A 6.4 6.4 0 1 0 766.1254833995939 46.125483399593904 A 3.2 3.2 0 0 1 771.2 48.0 C 771.2 56.0, 768.0 56.0, 768.0 64.0 C 768.0 76.8, 764.8 76.8, 764.8 89.6 A 3.2 3.2 0 0 0 769.8745166004061 91.4745166004061 A 6.4 6.4 0 1 1 769.8745166004061 100.5254833995939 A 3.2 3.2 0 0 0 764.8 102.4 C 764.8 115.2, 768.0 115.2, 768.0 128.0 C 768.0 140.8, 764.8 140.8, 764.8 153.6 A 3.2 3.2 0 0 0 769.8745166004061 155.4745166004061 A 6.4 6.4 0 1 1 769.8745166004061 164.5254833995939 A 3.2 3.2 0 0 0 764.8 166.4 C 764.8 179.2, 768.0 179.2, 768.0 192.0 C 768.0 200.0, 764.8 200.0, 764.8 208.0 A 3.2 3.2 0 0 0 769.8745166004061 209.87451660040608 A 6.4 6.4 0 1 1 769.8745166004061 218.9254833995939 A 3.2 3.2 0 0 0 764.8 220.8 L 764.8 227.2 A 3.2 3.2 0 0 0 769.8745166004061 229.0745166004061 A 6.4 6.4 0 1 1 769.8745166004061 238.12548339959392 A 3.2 3.2 0 0 0 764.8 240.0 C 764.8 248.0, 768.0 248.0, 768.0 256.0 C 768.0 267.52, 772.48 267.52, 772.48 279.04 A 4.4799999999999995 4.4799999999999995 0 0 1 765.3756767594315 281.66432324056854 A 8.959999999999999 8.959999999999999 0 1 0 765.3756767594315 294.33567675943146 A 4.4799999999999995 4.4799999999999995 0 0 1 772.48 296.96 C 772.48 308.48, 768.0 308.48, 768.0 320.0 C 768.0 332.8, 764.8 332.8, 764.8 345.6 A 3.2 3.2 0 0 0 769.8745166004061 347.4745166004061 A 6.4 6.4 0 1 1 769.8745166004061 356.5254833995939 A 3.2 3.2 0 0 0 764.8 358.4 C 764.8 371.2, 768.0 371.2, 768.0 384.0 C 768.0 396.8, 764.8 396.8, 764.8 409.6 A 3.2 3.2 0 0 0 769.8745166004061 411.4745166004061 A 6.4 6.4 0 1 1 769.8745166004061 420.5254833995939 A 3.2 3.2 0 0 0 764.8 422.4 C 764.8 435.2, 768.0 435.2, 768.0 448.0 C 768.0 460.8, 771.2 460.8, 771.2 473.6 A 3.2 3.2 0 0 1 766.1254833995939 475.4745166004061 A 6.4 6.4 0 1 0 766.1254833995939 484.5254833995939 A 3.2 3.2 0 0 1 771.2 486.4 C 771.2 499.2, 768.0 499.2, 768.0 512.0 C 768.0 520.0, 771.2 520.0, 771.2 528.0 A 3.2 3.2 0 0 1 766.1254833995939 529.8745166004061 A 6.4 6.4 0 1 0 766.1254833995939 538.9254833995939 A 3.2 3.2 0 0 1 771.2 540.8 C 771.2 558.4, 768.0 558.4, 768.0 576.0 C 768.0 593.6, 764.8 593.6, 764.8 611.2 A 3.2 3.2 0 0 0 769.8745166004061 613.0745166004061 A 6.4 6.4 0 1 1 769.8745166004061 622.1254833995939 A 3.2 3.2 0 0 0 764.8 624.0 C 764.8 632.0, 768.0 632.0, 768.0 640.0 C 768.0 657.6, 764.8 657.6, 764.8 675.2 A 3.2 3.2 0 0 0 769.8745166004061 677.0745166004061 A 6.4 6.4 0 1 1 769.8745166004061 686.1254833995939 A 3.2 3.2 0 0 0 764.8 688.0 C 764.8 696.0, 768.0 696.0, 768.0 704.0 L 768.0 706.56 M 832.0 -2.56 L 832.0 0.0 L 832.0 64.0 L 832.0 128.0 L 832.0 192.0 L 832.0 256.0 L 832.0 320.0 L 832.0 384.0 L 832.0 448.0 L 832.0 512.0 C 832.0 529.6, 828.8 529.6, 828.8 547.2 A 3.2 3.2 0 0 0 833.8745166004061 549.0745166004061 A 6.4 6.4 0 1 1 833.8745166004061 558.1254833995939 A 3.2 3.2 0 0 0 828.8 560.0 C 828.8 568.0, 832.0 568.0, 832.0 576.0 C 832.0 584.0, 835.2 584.0, 835.2 592.0 A 3.2 3.2 0 0 1 830.1254833995939 593.8745166004061 A 6.4 6.4 0 1 0 830.1254833995939 602.9254833995939 A 3.2 3.2 0 0 1 835.2 604.8 C 835.2 622.4, 832.0 622.4, 832.0 640.0 C 832.0 657.6, 835.2 657.6, 835.2 675.2 A 3.2 3.2 0 0 1 830.1254833995939 677.0745166004061 A 6.4 6.4 0 1 0 830.1254833995939 686.1254833995939 A 3.2 3.2 0 0 1 835.2 688.0 C 835.2 696.0, 832.0 696.0, 832.0 704.0 L 832.0 706.56 M 896.0 -2.56 L 896.0 0.0 C 896.0 12.8, 899.2 12.8, 899.2 25.6 A 3.2 3.2 0 0 1 894.1254833995939 27.474516600406098 A 6.4 6.4 0 1 0 894.1254833995939 36.5254833995939 A 3.2 3.2 0 0 1 899.2 38.4 C 899.2 51.2, 896.0 51.2, 896.0 64.0 L 896.0 128.0 C 896.0 139.52, 891.52 139.52, 891.52 151.04 A 4.4799999999999995 4.4799999999999995 0 0 0 898.6243232405685 153.66432324056854 A 8.959999999999999 8.959999999999999 0 1 1 898.6243232405685 166.33567675943146 A 4.4799999999999995 4.4799999999999995 0 0 0 891.52 168.96 C 891.52 180.48, 896.0 180.48, 896.0 192.0 C 896.0 203.52, 891.52 203.52, 891.52 215.04 A 4.4799999999999995 4.4799999999999995 0 0 0 898.6243232405685 217.66432324056854 A 8.959999999999999 8.959999999999999 0 1 1 898.6243232405685 230.33567675943146 A 4.4799999999999995 4.4799999999999995 0 0 0 891.52 232.96 C 891.52 244.48, 896.0 244.48, 896.0 256.0 C 896.0 273.6, 899.2 273.6, 899.2 291.2 A 3.2 3.2 0 0 1 894.1254833995939 293.0745166004061 A 6.4 6.4 0 1 0 894.1254833995939 302.1254833995939 A 3.2 3.2 0 0 1 899.2 304.0 C 899.2 312.0, 896.0 312.0, 896.0 320.0 C 896.0 328.0, 892.8 328.0, 892.8 336.0 A 3.2 3.2 0 0 0 897.8745166004061 337.8745166004061 A 6.4 6.4 0 1 1 897.8745166004061 346.9254833995939 A 3.2 3.2 0 0 0 892.8 348.8 C 892.8 352.0, 899.2 352.0, 899.2 355.2 A 3.2 3.2 0 0 1 894.1254833995939 357.0745166004061 A 6.4 6.4 0 1 0 894.1254833995939 366.1254833995939 A 3.2 3.2 0 0 1 899.2 368.0 C 899.2 376.0, 896.0 376.0, 896.0 384.0 L 896.0 448.0 C 896.0 456.0, 892.8 456.0, 892.8 464.0 A 3.2 3.2 0 0 0 897.8745166004061 465.8745166004061 A 6.4 6.4 0 1 1 897.8745166004061 474.9254833995939 A 3.2 3.2 0 0 0 892.8 476.8 L 892.8 483.2 A 3.2 3.2 0 0 0 897.8745166004061 485.0745166004061 A 6.4 6.4 0 1 1 897.8745166004061 494.1254833995939 A 3.2 3.2 0 0 0 892.8 496.0 C 892.8 504.0, 896.0 504.0, 896.0 512.0 L 896.0 576.0 L 896.0 640.0 L 896.0 704.0 L 896.0 706.56 M 960.0 -2.56 L 960.0 0.0 C 960.0 7.999999999999999, 956.8 7.999999999999999, 956.8 15.999999999999998 A 3.2 3.2 0 0 0 961.8745166004061 17.874516600406096 A 6.4 6.4 0 1 1 961.8745166004061 26.9254833995939 A 3.2 3.2 0 0 0 956.8 28.799999999999997 C 956.8 46.400000000000006, 960.0 46.400000000000006, 960.0 64.0 C 960.0 72.0, 963.2 72.0, 963.2 80.0 A 3.2 3.2 0 0 1 958.1254833995939 81.8745166004061 A 6.4 6.4 0 1 0 958.1254833995939 90.9254833995939 A 3.2 3.2 0 0 1 963.2 92.8 C 963.2 110.4, 960.0 110.4, 960.0 128.0 L 960.0 192.0 C 960.0 203.52, 955.52 203.52, 955.52 215.04 A 4.4799999999999995 4.4799999999999995 0 0 0 962.6243232405685 217.66432324056854 A 8.959999999999999 8.959999999999999 0 1 1 962.6243232405685 230.33567675943146 A 4.4799999999999995 4.4799999999999995 0 0 0 955.52 232.96 C 955.52 244.48, 960.0 244.48, 960.0 256.0 L 960.0 320.0 L 960.0 384.0 C 960.0 401.6, 963.2 401.6, 963.2 419.2 A 3.2 3.2 0 0 1 958.1254833995939 421.0745166004061 A 6.4 6.4 0 1 0 958.1254833995939 430.1254833995939 A 3.2 3.2 0 0 1 963.2 432.0 C 963.2 440.0, 960.0 440.0, 960.0 448.0 C 960.0 456.0, 956.8 456.0, 956.8 464.0 A 3.2 3.2 0 0 0 961.8745166004061 465.8745166004061 A 6.4 6.4 0 1 1 961.8745166004061 474.9254833995939 A 3.2 3.2 0 0 0 956.8 476.8 L 956.8 483.2 A 3.2 3.2 0 0 0 961.8745166004061 485.0745166004061 A 6.4 6.4 0 1 1 961.8745166004061 494.1254833995939 A 3.2 3.2 0 0 0 956.8 496.0 C 956.8 504.0, 960.0 504.0, 960.0 512.0 C 960.0 520.0, 963.2 520.0, 963.2 528.0 A 3.2 3.2 0 0 1 958.1254833995939 529.8745166004061 A 6.4 6.4 0 1 0 958.1254833995939 538.9254833995939 A 3.2 3.2 0 0 1 963.2 540.8 C 963.2 544.0, 956.8 544.0, 956.8 547.2 A 3.2 3.2 0 0 0 961.8745166004061 549.0745166004061 A 6.4 6.4 0 1 1 961.8745166004061 558.1254833995939 A 3.2 3.2 0 0 0 956.8 560.0 C 956.8 568.0, 960.0 568.0, 960.0 576.0 C 960.0 584.0, 956.8 584.0, 956.8 592.0 A 3.2 3.2 0 0 0 961.8745166004061 593.8745166004061 A 6.4 6.4 0 1 1 961.8745166004061 602.9254833995939 A 3.2 3.2 0 0 0 956.8 604.8 C 956.8 622.4, 960.0 622.4, 960.0 640.0 C 960.0 652.8, 963.2 652.8, 963.2 665.6 A 3.2 3.2 0 0 1 958.1254833995939 667.4745166004061 A 6.4 6.4 0 1 0 958.1254833995939 676.5254833995939 A 3.2 3.2 0 0 1 963.2 678.4 C 963.2 691.2, 960.0 691.2, 960.0 704.0 L 960.0 706.56 M 1024.0 -2.56 L 1024.0 0.0 C 1024.0 12.8, 1027.2 12.8, 1027.2 25.6 A 3.2 3.2 0 0 1 1022.1254833995939 27.474516600406098 A 6.4 6.4 0 1 0 1022.1254833995939 36.5254833995939 A 3.2 3.2 0 0 1 1027.2 38.4 C 1027.2 51.2, 1024.0 51.2, 1024.0 64.0 C 1024.0 72.0, 1027.2 72.0, 1027.2 80.0 A 3.2 3.2 0 0 1 1022.1254833995939 81.8745166004061 A 6.4 6.4 0 1 0 1022.1254833995939 90.9254833995939 A 3.2 3.2 0 0 1 1027.2 92.8 C 1027.2 110.4, 1024.0 110.4, 1024.0 128.0 C 1024.0 145.6, 1027.2 145.6, 1027.2 163.2 A 3.2 3.2 0 0 1 1022.1254833995939 165.0745166004061 A 6.4 6.4 0 1 0 1022.1254833995939 174.12548339959392 A 3.2 3.2 0 0 1 1027.2 176.0 C 1027.2 184.0, 1024.0 184.0, 1024.0 192.0 L 1024.0 256.0 C 1024.0 264.0, 1027.2 264.0, 1027.2 272.0 A 3.2 3.2 0 0 1 1022.1254833995939 273.8745166004061 A 6.4 6.4 0 1 0 1022.1254833995939 282.9254833995939 A 3.2 3.2 0 0 1 1027.2 284.8 C 1027.2 302.4, 1024.0 302.4, 1024.0 320.0 L 1024.0 384.0 L 1024.0 448.0 C 1024.0 465.6, 1020.8 465.6, 1020.8 483.2 A 3.2 3.2 0 0 0 1025.8745166004062 485.0745166004061 A 6.4 6.4 0 1 1 1025.8745166004062 494.1254833995939 A 3.2 3.2 0 0 0 1020.8 496.0 C 1020.8 504.0, 1024.0 504.0, 1024.0 512.0 C 1024.0 524.8, 1027.2 524.8, 1027.2 537.6 A 3.2 3.2 0 0 1 1022.1254833995939 539.4745166004061 A 6.4 6.4 0 1 0 1022.1254833995939 548.5254833995939 A 3.2 3.2 0 0 1 1027.2 550.4 C 1027.2 563.2, 1024.0 563.2, 1024.0 576.0 C 1024.0 593.6, 1027.2 593.6, 1027.2 611.2 A 3.2 3.2 0 0 1 1022.1254833995939 613.0745166004061 A 6.4 6.4 0 1 0 1022.1254833995939 622.1254833995939 A 3.2 3.2 0 0 1 1027.2 624.0 C 1027.2 632.0, 1024.0 632.0, 1024.0 640.0 C 1024.0 652.8, 1027.2 652.8, 1027.2 665.6 A 3.2 3.2 0 0 1 1022.1254833995939 667.4745166004061 A 6.4 6.4 0 1 0 1022.1254833995939 676.5254833995939 A 3.2 3.2 0 0 1 1027.2 678.4 C 1027.2 691.2, 1024.0 691.2, 1024.0 704.0 L 1024.0 706.56 M 1088.0 -2.56 L 1088.0 0.0 L 1088.0 64.0 L 1088.0 128.0 L 1088.0 192.0 L 1088.0 256.0 L 1088.0 320.0 L 1088.0 384.0 L 1088.0 448.0 L 1088.0 512.0 L 1088.0 576.0 L 1088.0 640.0 L 1088.0 704.0 L 1088.0 706.56 M -2.56 0.0 L 0.0 0.0 L 64.0 0.0 L 128.0 0.0 L 192.0 0.0 L 256.0 0.0 L 320.0 0.0 L 384.0 0.0 L 448.0 0.0 L 512.0 0.0 L 576.0 0.0 L 640.0 0.0 L 704.0 0.0 L 768.0 0.0 L 832.0 0.0 L 896.0 0.0 L 960.0 0.0 L 1024.0 0.0 L 1088.0 0.0 L 1090.56 0.0 M -2.56 64.0 L 0.0 64.0 C 17.6 64.0, 17.6 67.2, 35.2 67.2 A 3.2 3.2 0 0 0 37.0745166004061 62.125483399593904 A 6.4 6.4 0 1 1 46.125483399593904 62.125483399593904 A 3.2 3.2 0 0 0 48.0 67.2 C 56.0 67.2, 56.0 64.0, 64.0 64.0 C 75.52 64.0, 75.52 59.52, 87.03999999999999 59.52 A 4.4799999999999995 4.4799999999999995 0 0 1 89.66432324056854 66.62432324056853 A 8.959999999999999 8.959999999999999 0 1 0 102.33567675943146 66.62432324056853 A 4.4799999999999995 4.4799999999999995 0 0 1 104.96000000000001 59.52 C 116.47999999999999 59.52, 116.47999999999999 64.0, 128.0 64.0 C 136.0 64.0, 136.0 67.2, 144.0 67.2 A 3.2 3.2 0 0 0 145.87451660040608 62.125483399593904 A 6.4 6.4 0 1 1 154.9254833995939 62.125483399593904 A 3.2 3.2 0 0 0 156.8 67.2 L 163.2 67.2 A 3.2 3.2 0 0 0 165.0745166004061 62.125483399593904 A 6.4 6.4 0 1 1 174.12548339959392 62.125483399593904 A 3.2 3.2 0 0 0 176.0 67.2 C 184.0 67.2, 184.0 64.0, 192.0 64.0 C 204.8 64.0, 204.8 60.8, 217.6 60.8 A 3.2 3.2 0 0 1 219.4745166004061 65.8745166004061 A 6.4 6.4 0 1 0 228.5254833995939 65.8745166004061 A 3.2 3.2 0 0 1 230.4 60.8 C 243.2 60.8, 243.2 64.0, 256.0 64.0 C 273.6 64.0, 273.6 60.8, 291.2 60.8 A 3.2 3.2 0 0 1 293.0745166004061 65.8745166004061 A 6.4 6.4 0 1 0 302.1254833995939 65.8745166004061 A 3.2 3.2 0 0 1 304.0 60.8 C 312.0 60.8, 312.0 64.0, 320.0 64.0 C 331.52 64.0, 331.52 59.52, 343.04 59.52 A 4.4799999999999995 4.4799999999999995 0 0 1 345.66432324056854 66.62432324056853 A 8.959999999999999 8.959999999999999 0 1 0 358.33567675943146 66.62432324056853 A 4.4799999999999995 4.4799999999999995 0 0 1 360.96 59.52 C 372.48 59.52, 372.48 64.0, 384.0 64.0 C 396.8 64.0, 396.8 67.2, 409.6 67.2 A 3.2 3.2 0 0 0 411.4745166004061 62.125483399593904 A 6.4 6.4 0 1 1 420.5254833995939 62.125483399593904 A 3.2 3.2 0 0 0 422.4 67.2 C 435.2 67.2, 435.2 64.0, 448.0 64.0 C 459.52 64.0, 459.52 68.48, 471.04 68.48 A 4.4799999999999995 4.4799999999999995 0 0 0 473.66432324056854 61.375676759431464 A 8.959999999999999 8.959999999999999 0 1 1 486.33567675943146 61.375676759431464 A 4.4799999999999995 4.4799999999999995 0 0 0 488.96 68.48 C 500.48 68.48, 500.48 64.0, 512.0 64.0 C 524.8 64.0, 524.8 60.8, 537.6 60.8 A 3.2 3.2 0 0 1 539.4745166004061 65.8745166004061 A 6.4 6.4 0 1 0 548.5254833995939 65.8745166004061 A 3.2 3.2 0 0 1 550.4 60.8 C 563.2 60.8, 563.2 64.0, 576.0 64.0 C 584.0 64.0, 584.0 60.8, 592.0 60.8 A 3.2 3.2 0 0 1 593.8745166004061 65.8745166004061 A 6.4 6.4 0 1 0 602.9254833995939 65.8745166004061 A 3.2 3.2 0 0 1 604.8 60.8 L 611.2 60.8 A 3.2 3.2 0 0 1 613.0745166004061 65.8745166004061 A 6.4 6.4 0 1 0 622.1254833995939 65.8745166004061 A 3.2 3.2 0 0 1 624.0 60.8 C 632.0 60.8, 632.0 64.0, 640.0 64.0 C 652.8 64.0, 652.8 60.8, 665.6 60.8 A 3.2 3.2 0 0 1 667.4745166004061 65.8745166004061 A 6.4 6.4 0 1 0 676.5254833995939 65.8745166004061 A 3.2 3.2 0 0 1 678.4 60.8 C 691.2 60.8, 691.2 64.0, 704.0 64.0 C 716.8 64.0, 716.8 67.2, 729.6 67.2 A 3.2 3.2 0 0 0 731.4745166004061 62.125483399593904 A 6.4 6.4 0 1 1 740.5254833995939 62.125483399593904 A 3.2 3.2 0 0 0 742.4 67.2 C 755.2 67.2, 755.2 64.0, 768.0 64.0 C 785.6 64.0, 785.6 67.2, 803.2 67.2 A 3.2 3.2 0 0 0 805.0745166004061 62.125483399593904 A 6.4 6.4 0 1 1 814.1254833995939 62.125483399593904 A 3.2 3.2 0 0 0 816.0 67.2 C 824.0 67.2, 824.0 64.0, 832.0 64.0 L 896.0 64.0 C 913.6 64.0, 913.6 67.2, 931.2 67.2 A 3.2 3.2 0 0 0 933.0745166004061 62.125483399593904 A 6.4 6.4 0 1 1 942.1254833995939 62.125483399593904 A 3.2 3.2 0 0 0 944.0 67.2 C 952.0 67.2, 952.0 64.0, 960.0 64.0 C 972.8 64.0, 972.8 60.8, 985.6 60.8 A 3.2 3.2 0 0 1 987.4745166004061 65.8745166004061 A 6.4 6.4 0 1 0 996.5254833995939 65.8745166004061 A 3.2 3.2 0 0 1 998.4 60.8 C 1011.2 60.8, 1011.2 64.0, 1024.0 64.0 C 1036.8 64.0, 1036.8 60.8, 1049.6 60.8 A 3.2 3.2 0 0 1 1051.474516600406 65.8745166004061 A 6.4 6.4 0 1 0 1060.525483399594 65.8745166004061 A 3.2 3.2 0 0 1 1062.4 60.8 C 1075.2 60.8, 1075.2 64.0, 1088.0 64.0 L 1090.56 64.0 M -2.56 128.0 L 0.0 128.0 C 17.6 128.0, 17.6 131.2, 35.2 131.2 A 3.2 3.2 0 0 0 37.0745166004061 126.1254833995939 A 6.4 6.4 0 1 1 46.125483399593904 126.1254833995939 A 3.2 3.2 0 0 0 48.0 131.2 C 56.0 131.2, 56.0 128.0, 64.0 128.0 C 75.52 128.0, 75.52 123.52, 87.03999999999999 123.52 A 4.4799999999999995 4.4799999999999995 0 0 1 89.66432324056854 130.62432324056854 A 8.959999999999999 8.959999999999999 0 1 0 102.33567675943146 130.62432324056854 A 4.4799999999999995 4.4799999999999995 0 0 1 104.96000000000001 123.52 C 116.47999999999999 123.52, 116.47999999999999 128.0, 128.0 128.0 L 192.0 128.0 C 203.52 128.0, 203.52 123.52, 215.04 123.52 A 4.4799999999999995 4.4799999999999995 0 0 1 217.66432324056854 130.62432324056854 A 8.959999999999999 8.959999999999999 0 1 0 230.33567675943146 130.62432324056854 A 4.4799999999999995 4.4799999999999995 0 0 1 232.96 123.52 C 244.48 123.52, 244.48 128.0, 256.0 128.0 C 273.6 128.0, 273.6 124.8, 291.2 124.8 A 3.2 3.2 0 0 1 293.0745166004061 129.87451660040608 A 6.4 6.4 0 1 0 302.1254833995939 129.87451660040608 A 3.2 3.2 0 0 1 304.0 124.8 C 312.0 124.8, 312.0 128.0, 320.0 128.0 C 331.52 128.0, 331.52 123.52, 343.04 123.52 A 4.4799999999999995 4.4799999999999995 0 0 1 345.66432324056854 130.62432324056854 A 8.959999999999999 8.959999999999999 0 1 0 358.33567675943146 130.62432324056854 A 4.4799999999999995 4.4799999999999995 0 0 1 360.96 123.52 C 372.48 123.52, 372.48 128.0, 384.0 128.0 C 395.52 128.0, 395.52 123.52, 407.04 123.52 A 4.4799999999999995 4.4799999999999995 0 0 1 409.66432324056854 130.62432324056854 A 8.959999999999999 8.959999999999999 0 1 0 422.33567675943146 130.62432324056854 A 4.4799999999999995 4.4799999999999995 0 0 1 424.96 123.52 C 436.48 123.52, 436.48 128.0, 448.0 128.0 C 460.8 128.0, 460.8 131.2, 473.6 131.2 A 3.2 3.2 0 0 0 475.4745166004061 126.1254833995939 A 6.4 6.4 0 1 1 484.5254833995939 126.1254833995939 A 3.2 3.2 0 0 0 486.4 131.2 C 499.2 131.2, 499.2 128.0, 512.0 128.0 C 523.52 128.0, 523.52 123.52, 535.04 123.52 A 4.4799999999999995 4.4799999999999995 0 0 1 537.6643232405686 130.62432324056854 A 8.959999999999999 8.959999999999999 0 1 0 550.3356767594314 130.62432324056854 A 4.4799999999999995 4.4799999999999995 0 0 1 552.96 123.52 C 564.48 123.52, 564.48 128.0, 576.0 128.0 C 584.0 128.0, 584.0 131.2, 592.0 131.2 A 3.2 3.2 0 0 0 593.8745166004061 126.1254833995939 A 6.4 6.4 0 1 1 602.9254833995939 126.1254833995939 A 3.2 3.2 0 0 0 604.8 131.2 L 611.2 131.2 A 3.2 3.2 0 0 0 613.0745166004061 126.1254833995939 A 6.4 6.4 0 1 1 622.1254833995939 126.1254833995939 A 3.2 3.2 0 0 0 624.0 131.2 C 632.0 131.2, 632.0 128.0, 640.0 128.0 L 704.0 128.0 L 768.0 128.0 C 785.6 128.0, 785.6 124.8, 803.2 124.8 A 3.2 3.2 0 0 1 805.0745166004061 129.87451660040608 A 6.4 6.4 0 1 0 814.1254833995939 129.87451660040608 A 3.2 3.2 0 0 1 816.0 124.8 C 824.0 124.8, 824.0 128.0, 832.0 128.0 C 843.52 128.0, 843.52 132.48, 855.04 132.48 A 4.4799999999999995 4.4799999999999995 0 0 0 857.6643232405686 125.37567675943147 A 8.959999999999999 8.959999999999999 0 1 1 870.3356767594314 125.37567675943147 A 4.4799999999999995 4.4799999999999995 0 0 0 872.96 132.48 C 884.48 132.48, 884.48 128.0, 896.0 128.0 L 960.0 128.0 C 968.0 128.0, 968.0 124.8, 976.0 124.8 A 3.2 3.2 0 0 1 977.8745166004061 129.87451660040608 A 6.4 6.4 0 1 0 986.9254833995939 129.87451660040608 A 3.2 3.2 0 0 1 988.8 124.8 C 1006.4 124.8, 1006.4 128.0, 1024.0 128.0 C 1032.0 128.0, 1032.0 131.2, 1040.0 131.2 A 3.2 3.2 0 0 0 1041.8745166004062 126.1254833995939 A 6.4 6.4 0 1 1 1050.925483399594 126.1254833995939 A 3.2 3.2 0 0 0 1052.8 131.2 C 1070.4 131.2, 1070.4 128.0, 1088.0 128.0 L 1090.56 128.0 M -2.56 192.0 L 0.0 192.0 C 7.999999999999999 192.0, 7.999999999999999 195.2, 15.999999999999998 195.2 A 3.2 3.2 0 0 0 17.874516600406096 190.12548339959392 A 6.4 6.4 0 1 1 26.9254833995939 190.12548339959392 A 3.2 3.2 0 0 0 28.799999999999997 195.2 L 35.2 195.2 A 3.2 3.2 0 0 0 37.0745166004061 190.12548339959392 A 6.4 6.4 0 1 1 46.125483399593904 190.12548339959392 A 3.2 3.2 0 0 0 48.0 195.2 C 56.0 195.2, 56.0 192.0, 64.0 192.0 C 76.8 192.0, 76.8 188.8, 89.6 188.8 A 3.2 3.2 0 0 1 91.4745166004061 193.87451660040608 A 6.4 6.4 0 1 0 100.5254833995939 193.87451660040608 A 3.2 3.2 0 0 1 102.4 188.8 C 115.2 188.8, 115.2 192.0, 128.0 192.0 L 192.0 192.0 C 204.8 192.0, 204.8 195.2, 217.6 195.2 A 3.2 3.2 0 0 0 219.4745166004061 190.12548339959392 A 6.4 6.4 0 1 1 228.5254833995939 190.12548339959392 A 3.2 3.2 0 0 0 230.4 195.2 C 243.2 195.2, 243.2 192.0, 256.0 192.0 C 264.0 192.0, 264.0 195.2, 272.0 195.2 A 3.2 3.2 0 0 0 273.8745166004061 190.12548339959392 A 6.4 6.4 0 1 1 282.9254833995939 190.12548339959392 A 3.2 3.2 0 0 0 284.8 195.2 L 291.2 195.2 A 3.2 3.2 0 0 0 293.0745166004061 190.12548339959392 A 6.4 6.4 0 1 1 302.1254833995939 190.12548339959392 A 3.2 3.2 0 0 0 304.0 195.2 C 312.0 195.2, 312.0 192.0, 320.0 192.0 C 331.52 192.0, 331.52 196.48, 343.04 196.48 A 4.4799999999999995 4.4799999999999995 0 0 0 345.66432324056854 189.37567675943146 A 8.959999999999999 8.959999999999999 0 1 1 358.33567675943146 189.37567675943146 A 4.4799999999999995 4.4799999999999995 0 0 0 360.96 196.48 C 372.48 196.48, 372.48 192.0, 384.0 192.0 C 396.8 192.0, 396.8 188.8, 409.6 188.8 A 3.2 3.2 0 0 1 411.4745166004061 193.87451660040608 A 6.4 6.4 0 1 0 420.5254833995939 193.87451660040608 A 3.2 3.2 0 0 1 422.4 188.8 C 435.2 188.8, 435.2 192.0, 448.0 192.0 C 460.8 192.0, 460.8 195.2, 473.6 195.2 A 3.2 3.2 0 0 0 475.4745166004061 190.12548339959392 A 6.4 6.4 0 1 1 484.5254833995939 190.12548339959392 A 3.2 3.2 0 0 0 486.4 195.2 C 499.2 195.2, 499.2 192.0, 512.0 192.0 C 524.8 192.0, 524.8 195.2, 537.6 195.2 A 3.2 3.2 0 0 0 539.4745166004061 190.12548339959392 A 6.4 6.4 0 1 1 548.5254833995939 190.12548339959392 A 3.2 3.2 0 0 0 550.4 195.2 C 563.2 195.2, 563.2 192.0, 576.0 192.0 C 593.6 192.0, 593.6 188.8, 611.2 188.8 A 3.2 3.2 0 0 1 613.0745166004061 193.87451660040608 A 6.4 6.4 0 1 0 622.1254833995939 193.87451660040608 A 3.2 3.2 0 0 1 624.0 188.8 C 632.0 188.8, 632.0 192.0, 640.0 192.0 C 652.8 192.0, 652.8 188.8, 665.6 188.8 A 3.2 3.2 0 0 1 667.4745166004061 193.87451660040608 A 6.4 6.4 0 1 0 676.5254833995939 193.87451660040608 A 3.2 3.2 0 0 1 678.4 188.8 C 691.2 188.8, 691.2 192.0, 704.0 192.0 C 716.8 192.0, 716.8 188.8, 729.6 188.8 A 3.2 3.2 0 0 1 731.4745166004061 193.87451660040608 A 6.4 6.4 0 1 0 740.5254833995939 193.87451660040608 A 3.2 3.2 0 0 1 742.4 188.8 C 755.2 188.8, 755.2 192.0, 768.0 192.0 C 776.0 192.0, 776.0 195.2, 784.0 195.2 A 3.2 3.2 0 0 0 785.8745166004061 190.12548339959392 A 6.4 6.4 0 1 1 794.9254833995939 190.12548339959392 A 3.2 3.2 0 0 0 796.8 195.2 C 814.4 195.2, 814.4 192.0, 832.0 192.0 C 843.52 192.0, 843.52 196.48, 855.04 196.48 A 4.4799999999999995 4.4799999999999995 0 0 0 857.6643232405686 189.37567675943146 A 8.959999999999999 8.959999999999999 0 1 1 870.3356767594314 189.37567675943146 A 4.4799999999999995 4.4799999999999995 0 0 0 872.96 196.48 C 884.48 196.48, 884.48 192.0, 896.0 192.0 C 907.52 192.0, 907.52 196.48, 919.04 196.48 A 4.4799999999999995 4.4799999999999995 0 0 0 921.6643232405686 189.37567675943146 A 8.959999999999999 8.959999999999999 0 1 1 934.3356767594314 189.37567675943146 A 4.4799999999999995 4.4799999999999995 0 0 0 936.96 196.48 C 948.48 196.48, 948.48 192.0, 960.0 192.0 L 1024.0 192.0 C 1032.0 192.0, 1032.0 188.8, 1040.0 188.8 A 3.2 3.2 0 0 1 1041.8745166004062 193.87451660040608 A 6.4 6.4 0 1 0 1050.925483399594 193.87451660040608 A 3.2 3.2 0 0 1 1052.8 188.8 C 1070.4 188.8, 1070.4 192.0, 1088.0 192.0 L 1090.56 192.0 M -2.56 256.0 L 0.0 256.0 C 7.999999999999999 256.0, 7.999999999999999 252.8, 15.999999999999998 252.8 A 3.2 3.2 0 0 1 17.874516600406096 257.8745166004061 A 6.4 6.4 0 1 0 26.9254833995939 257.8745166004061 A 3.2 3.2 0 0 1 28.799999999999997 252.8 C 46.400000000000006 252.8, 46.400000000000006 256.0, 64.0 256.0 C 76.8 256.0, 76.8 252.8, 89.6 252.8 A 3.2 3.2 0 0 1 91.4745166004061 257.8745166004061 A 6.4 6.4 0 1 0 100.5254833995939 257.8745166004061 A 3.2 3.2 0 0 1 102.4 252.8 C 115.2 252.8, 115.2 256.0, 128.0 256.0 C 145.6 256.0, 145.6 252.8, 163.2 252.8 A 3.2 3.2 0 0 1 165.0745166004061 257.8745166004061 A 6.4 6.4 0 1 0 174.12548339959392 257.8745166004061 A 3.2 3.2 0 0 1 176.0 252.8 C 184.0 252.8, 184.0 256.0, 192.0 256.0 C 203.52 256.0, 203.52 251.52, 215.04 251.52 A 4.4799999999999995 4.4799999999999995 0 0 1 217.66432324056854 258.6243232405685 A 8.959999999999999 8.959999999999999 0 1 0 230.33567675943146 258.6243232405685 A 4.4799999999999995 4.4799999999999995 0 0 1 232.96 251.52 C 244.48 251.52, 244.48 256.0, 256.0 256.0 C 264.0 256.0, 264.0 252.8, 272.0 252.8 A 3.2 3.2 0 0 1 273.8745166004061 257.8745166004061 A 6.4 6.4 0 1 0 282.9254833995939 257.8745166004061 A 3.2 3.2 0 0 1 284.8 252.8 C 302.4 252.8, 302.4 256.0, 320.0 256.0 L 384.0 256.0 L 448.0 256.0 L 512.0 256.0 L 576.0 256.0 L 640.0 256.0 L 704.0 256.0 L 768.0 256.0 L 832.0 256.0 L 896.0 256.0 L 960.0 256.0 L 1024.0 256.0 L 1088.0 256.0 L 1090.56 256.0 M -2.56 320.0 L 0.0 320.0 L 64.0 320.0 L 128.0 320.0 L 192.0 320.0 L 256.0 320.0 L 320.0 320.0 C 328.0 320.0, 328.0 316.8, 336.0 316.8 A 3.2 3.2 0 0 1 337.8745166004061 321.8745166004061 A 6.4 6.4 0 1 0 346.9254833995939 321.8745166004061 A 3.2 3.2 0 0 1 348.8 316.8 C 366.4 316.8, 366.4 320.0, 384.0 320.0 C 392.0 320.0, 392.0 316.8, 400.0 316.8 A 3.2 3.2 0 0 1 401.8745166004061 321.8745166004061 A 6.4 6.4 0 1 0 410.9254833995939 321.8745166004061 A 3.2 3.2 0 0 1 412.8 316.8 C 430.4 316.8, 430.4 320.0, 448.0 320.0 C 465.6 320.0, 465.6 323.2, 483.2 323.2 A 3.2 3.2 0 0 0 485.0745166004061 318.1254833995939 A 6.4 6.4 0 1 1 494.1254833995939 318.1254833995939 A 3.2 3.2 0 0 0 496.0 323.2 C 504.0 323.2, 504.0 320.0, 512.0 320.0 C 529.6 320.0, 529.6 316.8, 547.2 316.8 A 3.2 3.2 0 0 1 549.0745166004061 321.8745166004061 A 6.4 6.4 0 1 0 558.1254833995939 321.8745166004061 A 3.2 3.2 0 0 1 560.0 316.8 C 568.0 316.8, 568.0 320.0, 576.0 320.0 C 588.8 320.0, 588.8 316.8, 601.6 316.8 A 3.2 3.2 0 0 1 603.4745166004061 321.8745166004061 A 6.4 6.4 0 1 0 612.5254833995939 321.8745166004061 A 3.2 3.2 0 0 1 614.4 316.8 C 627.2 316.8, 627.2 320.0, 640.0 320.0 C 652.8 320.0, 652.8 316.8, 665.6 316.8 A 3.2 3.2 0 0 1 667.4745166004061 321.8745166004061 A 6.4 6.4 0 1 0 676.5254833995939 321.8745166004061 A 3.2 3.2 0 0 1 678.4 316.8 C 691.2 316.8, 691.2 320.0, 704.0 320.0 C 716.8 320.0, 716.8 316.8, 729.6 316.8 A 3.2 3.2 0 0 1 731.4745166004061 321.8745166004061 A 6.4 6.4 0 1 0 740.5254833995939 321.8745166004061 A 3.2 3.2 0 0 1 742.4 316.8 C 755.2 316.8, 755.2 320.0, 768.0 320.0 C 779.52 320.0, 779.52 315.52, 791.04 315.52 A 4.4799999999999995 4.4799999999999995 0 0 1 793.6643232405686 322.6243232405685 A 8.959999999999999 8.959999999999999 0 1 0 806.3356767594314 322.6243232405685 A 4.4799999999999995 4.4799999999999995 0 0 1 808.96 315.52 C 820.48 315.52, 820.48 320.0, 832.0 320.0 L 896.0 320.0 C 904.0 320.0, 904.0 316.8, 912.0 316.8 A 3.2 3.2 0 0 1 913.8745166004061 321.8745166004061 A 6.4 6.4 0 1 0 922.9254833995939 321.8745166004061 A 3.2 3.2 0 0 1 924.8 316.8 C 928.0 316.8, 928.0 323.2, 931.2 323.2 A 3.2 3.2 0 0 0 933.0745166004061 318.1254833995939 A 6.4 6.4 0 1 1 942.1254833995939 318.1254833995939 A 3.2 3.2 0 0 0 944.0 323.2 C 952.0 323.2, 952.0 320.0, 960.0 320.0 C 977.6 320.0, 977.6 316.8, 995.2 316.8 A 3.2 3.2 0 0 1 997.0745166004061 321.8745166004061 A 6.4 6.4 0 1 0 1006.1254833995939 321.8745166004061 A 3.2 3.2 0 0 1 1008.0 316.8 C 1016.0 316.8, 1016.0 320.0, 1024.0 320.0 C 1036.8 320.0, 1036.8 316.8, 1049.6 316.8 A 3.2 3.2 0 0 1 1051.474516600406 321.8745166004061 A 6.4 6.4 0 1 0 1060.525483399594 321.8745166004061 A 3.2 3.2 0 0 1 1062.4 316.8 C 1075.2 316.8, 1075.2 320.0, 1088.0 320.0 L 1090.56 320.0 M -2.56 384.0 L 0.0 384.0 C 7.999999999999999 384.0, 7.999999999999999 380.8, 15.999999999999998 380.8 A 3.2 3.2 0 0 1 17.874516600406096 385.8745166004061 A 6.4 6.4 0 1 0 26.9254833995939 385.8745166004061 A 3.2 3.2 0 0 1 28.799999999999997 380.8 C 32.0 380.8, 32.0 387.2, 35.2 387.2 A 3.2 3.2 0 0 0 37.0745166004061 382.1254833995939 A 6.4 6.4 0 1 1 46.125483399593904 382.1254833995939 A 3.2 3.2 0 0 0 48.0 387.2 C 56.0 387.2, 56.0 384.0, 64.0 384.0 C 76.8 384.0, 76.8 387.2, 89.6 387.2 A 3.2 3.2 0 0 0 91.4745166004061 382.1254833995939 A 6.4 6.4 0 1 1 100.5254833995939 382.1254833995939 A 3.2 3.2 0 0 0 102.4 387.2 C 115.2 387.2, 115.2 384.0, 128.0 384.0 C 140.8 384.0, 140.8 387.2, 153.6 387.2 A 3.2 3.2 0 0 0 155.4745166004061 382.1254833995939 A 6.4 6.4 0 1 1 164.5254833995939 382.1254833995939 A 3.2 3.2 0 0 0 166.4 387.2 C 179.2 387.2, 179.2 384.0, 192.0 384.0 C 204.8 384.0, 204.8 380.8, 217.6 380.8 A 3.2 3.2 0 0 1 219.4745166004061 385.8745166004061 A 6.4 6.4 0 1 0 228.5254833995939 385.8745166004061 A 3.2 3.2 0 0 1 230.4 380.8 C 243.2 380.8, 243.2 384.0, 256.0 384.0 C 273.6 384.0, 273.6 380.8, 291.2 380.8 A 3.2 3.2 0 0 1 293.0745166004061 385.8745166004061 A 6.4 6.4 0 1 0 302.1254833995939 385.8745166004061 A 3.2 3.2 0 0 1 304.0 380.8 C 312.0 380.8, 312.0 384.0, 320.0 384.0 C 328.0 384.0, 328.0 387.2, 336.0 387.2 A 3.2 3.2 0 0 0 337.8745166004061 382.1254833995939 A 6.4 6.4 0 1 1 346.9254833995939 382.1254833995939 A 3.2 3.2 0 0 0 348.8 387.2 C 352.0 387.2, 352.0 380.8, 355.2 380.8 A 3.2 3.2 0 0 1 357.0745166004061 385.8745166004061 A 6.4 6.4 0 1 0 366.1254833995939 385.8745166004061 A 3.2 3.2 0 0 1 368.0 380.8 C 376.0 380.8, 376.0 384.0, 384.0 384.0 C 392.0 384.0, 392.0 380.8, 400.0 380.8 A 3.2 3.2 0 0 1 401.8745166004061 385.8745166004061 A 6.4 6.4 0 1 0 410.9254833995939 385.8745166004061 A 3.2 3.2 0 0 1 412.8 380.8 C 430.4 380.8, 430.4 384.0, 448.0 384.0 C 456.0 384.0, 456.0 387.2, 464.0 387.2 A 3.2 3.2 0 0 0 465.8745166004061 382.1254833995939 A 6.4 6.4 0 1 1 474.9254833995939 382.1254833995939 A 3.2 3.2 0 0 0 476.8 387.2 C 480.0 387.2, 480.0 380.8, 483.2 380.8 A 3.2 3.2 0 0 1 485.0745166004061 385.8745166004061 A 6.4 6.4 0 1 0 494.1254833995939 385.8745166004061 A 3.2 3.2 0 0 1 496.0 380.8 C 504.0 380.8, 504.0 384.0, 512.0 384.0 C 520.0 384.0, 520.0 387.2, 528.0 387.2 A 3.2 3.2 0 0 0 529.8745166004061 382.1254833995939 A 6.4 6.4 0 1 1 538.9254833995939 382.1254833995939 A 3.2 3.2 0 0 0 540.8 387.2 L 547.2 387.2 A 3.2 3.2 0 0 0 549.0745166004061 382.1254833995939 A 6.4 6.4 0 1 1 558.1254833995939 382.1254833995939 A 3.2 3.2 0 0 0 560.0 387.2 C 568.0 387.2, 568.0 384.0, 576.0 384.0 C 588.8 384.0, 588.8 380.8, 601.6 380.8 A 3.2 3.2 0 0 1 603.4745166004061 385.8745166004061 A 6.4 6.4 0 1 0 612.5254833995939 385.8745166004061 A 3.2 3.2 0 0 1 614.4 380.8 C 627.2 380.8, 627.2 384.0, 640.0 384.0 L 704.0 384.0 C 716.8 384.0, 716.8 387.2, 729.6 387.2 A 3.2 3.2 0 0 0 731.4745166004061 382.1254833995939 A 6.4 6.4 0 1 1 740.5254833995939 382.1254833995939 A 3.2 3.2 0 0 0 742.4 387.2 C 755.2 387.2, 755.2 384.0, 768.0 384.0 C 780.8 384.0, 780.8 387.2, 793.6 387.2 A 3.2 3.2 0 0 0 795.4745166004061 382.1254833995939 A 6.4 6.4 0 1 1 804.5254833995939 382.1254833995939 A 3.2 3.2 0 0 0 806.4 387.2 C 819.2 387.2, 819.2 384.0, 832.0 384.0 C 844.8 384.0, 844.8 380.8, 857.6 380.8 A 3.2 3.2 0 0 1 859.4745166004061 385.8745166004061 A 6.4 6.4 0 1 0 868.5254833995939 385.8745166004061 A 3.2 3.2 0 0 1 870.4 380.8 C 883.2 380.8, 883.2 384.0, 896.0 384.0 L 960.0 384.0 C 977.6 384.0, 977.6 387.2, 995.2 387.2 A 3.2 3.2 0 0 0 997.0745166004061 382.1254833995939 A 6.4 6.4 0 1 1 1006.1254833995939 382.1254833995939 A 3.2 3.2 0 0 0 1008.0 387.2 C 1016.0 387.2, 1016.0 384.0, 1024.0 384.0 C 1032.0 384.0, 1032.0 387.2, 1040.0 387.2 A 3.2 3.2 0 0 0 1041.8745166004062 382.1254833995939 A 6.4 6.4 0 1 1 1050.925483399594 382.1254833995939 A 3.2 3.2 0 0 0 1052.8 387.2 L 1059.2 387.2 A 3.2 3.2 0 0 0 1061.074516600406 382.1254833995939 A 6.4 6.4 0 1 1 1070.1254833995938 382.1254833995939 A 3.2 3.2 0 0 0 1072.0 387.2 C 1080.0 387.2, 1080.0 384.0, 1088.0 384.0 L 1090.56 384.0 M -2.56 448.0 L 0.0 448.0 C 12.8 448.0, 12.8 444.8, 25.6 444.8 A 3.2 3.2 0 0 1 27.474516600406098 449.8745166004061 A 6.4 6.4 0 1 0 36.5254833995939 449.8745166004061 A 3.2 3.2 0 0 1 38.4 444.8 C 51.2 444.8, 51.2 448.0, 64.0 448.0 C 76.8 448.0, 76.8 451.2, 89.6 451.2 A 3.2 3.2 0 0 0 91.4745166004061 446.1254833995939 A 6.4 6.4 0 1 1 100.5254833995939 446.1254833995939 A 3.2 3.2 0 0 0 102.4 451.2 C 115.2 451.2, 115.2 448.0, 128.0 448.0 C 140.8 448.0, 140.8 444.8, 153.6 444.8 A 3.2 3.2 0 0 1 155.4745166004061 449.8745166004061 A 6.4 6.4 0 1 0 164.5254833995939 449.8745166004061 A 3.2 3.2 0 0 1 166.4 444.8 C 179.2 444.8, 179.2 448.0, 192.0 448.0 C 204.8 448.0, 204.8 444.8, 217.6 444.8 A 3.2 3.2 0 0 1 219.4745166004061 449.8745166004061 A 6.4 6.4 0 1 0 228.5254833995939 449.8745166004061 A 3.2 3.2 0 0 1 230.4 444.8 C 243.2 444.8, 243.2 448.0, 256.0 448.0 C 268.8 448.0, 268.8 444.8, 281.6 444.8 A 3.2 3.2 0 0 1 283.4745166004061 449.8745166004061 A 6.4 6.4 0 1 0 292.5254833995939 449.8745166004061 A 3.2 3.2 0 0 1 294.4 444.8 C 307.2 444.8, 307.2 448.0, 320.0 448.0 C 328.0 448.0, 328.0 444.8, 336.0 444.8 A 3.2 3.2 0 0 1 337.8745166004061 449.8745166004061 A 6.4 6.4 0 1 0 346.9254833995939 449.8745166004061 A 3.2 3.2 0 0 1 348.8 444.8 C 366.4 444.8, 366.4 448.0, 384.0 448.0 C 392.0 448.0, 392.0 444.8, 400.0 444.8 A 3.2 3.2 0 0 1 401.8745166004061 449.8745166004061 A 6.4 6.4 0 1 0 410.9254833995939 449.8745166004061 A 3.2 3.2 0 0 1 412.8 444.8 C 430.4 444.8, 430.4 448.0, 448.0 448.0 C 456.0 448.0, 456.0 444.8, 464.0 444.8 A 3.2 3.2 0 0 1 465.8745166004061 449.8745166004061 A 6.4 6.4 0 1 0 474.9254833995939 449.8745166004061 A 3.2 3.2 0 0 1 476.8 444.8 C 494.4 444.8, 494.4 448.0, 512.0 448.0 C 520.0 448.0, 520.0 451.2, 528.0 451.2 A 3.2 3.2 0 0 0 529.8745166004061 446.1254833995939 A 6.4 6.4 0 1 1 538.9254833995939 446.1254833995939 A 3.2 3.2 0 0 0 540.8 451.2 C 544.0 451.2, 544.0 444.8, 547.2 444.8 A 3.2 3.2 0 0 1 549.0745166004061 449.8745166004061 A 6.4 6.4 0 1 0 558.1254833995939 449.8745166004061 A 3.2 3.2 0 0 1 560.0 444.8 C 568.0 444.8, 568.0 448.0, 576.0 448.0 C 588.8 448.0, 588.8 444.8, 601.6 444.8 A 3.2 3.2 0 0 1 603.4745166004061 449.8745166004061 A 6.4 6.4 0 1 0 612.5254833995939 449.8745166004061 A 3.2 3.2 0 0 1 614.4 444.8 C 627.2 444.8, 627.2 448.0, 640.0 448.0 C 651.52 448.0, 651.52 443.52, 663.04 443.52 A 4.4799999999999995 4.4799999999999995 0 0 1 665.6643232405686 450.6243232405685 A 8.959999999999999 8.959999999999999 0 1 0 678.3356767594314 450.6243232405685 A 4.4799999999999995 4.4799999999999995 0 0 1 680.96 443.52 C 692.48 443.52, 692.48 448.0, 704.0 448.0 C 716.8 448.0, 716.8 451.2, 729.6 451.2 A 3.2 3.2 0 0 0 731.4745166004061 446.1254833995939 A 6.4 6.4 0 1 1 740.5254833995939 446.1254833995939 A 3.2 3.2 0 0 0 742.4 451.2 C 755.2 451.2, 755.2 448.0, 768.0 448.0 C 780.8 448.0, 780.8 444.8, 793.6 444.8 A 3.2 3.2 0 0 1 795.4745166004061 449.8745166004061 A 6.4 6.4 0 1 0 804.5254833995939 449.8745166004061 A 3.2 3.2 0 0 1 806.4 444.8 C 819.2 444.8, 819.2 448.0, 832.0 448.0 C 840.0 448.0, 840.0 451.2, 848.0 451.2 A 3.2 3.2 0 0 0 849.8745166004061 446.1254833995939 A 6.4 6.4 0 1 1 858.9254833995939 446.1254833995939 A 3.2 3.2 0 0 0 860.8 451.2 L 867.2 451.2 A 3.2 3.2 0 0 0 869.0745166004061 446.1254833995939 A 6.4 6.4 0 1 1 878.1254833995939 446.1254833995939 A 3.2 3.2 0 0 0 880.0 451.2 C 888.0 451.2, 888.0 448.0, 896.0 448.0 L 960.0 448.0 L 1024.0 448.0 C 1036.8 448.0, 1036.8 444.8, 1049.6 444.8 A 3.2 3.2 0 0 1 1051.474516600406 449.8745166004061 A 6.4 6.4 0 1 0 1060.525483399594 449.8745166004061 A 3.2 3.2 0 0 1 1062.4 444.8 C 1075.2 444.8, 1075.2 448.0, 1088.0 448.0 L 1090.56 448.0 M -2.56 512.0 L 0.0 512.0 C 7.999999999999999 512.0, 7.999999999999999 508.8, 15.999999999999998 508.8 A 3.2 3.2 0 0 1 17.874516600406096 513.8745166004061 A 6.4 6.4 0 1 0 26.9254833995939 513.8745166004061 A 3.2 3.2 0 0 1 28.799999999999997 508.8 L 35.2 508.8 A 3.2 3.2 0 0 1 37.0745166004061 513.8745166004061 A 6.4 6.4 0 1 0 46.125483399593904 513.8745166004061 A 3.2 3.2 0 0 1 48.0 508.8 C 56.0 508.8, 56.0 512.0, 64.0 512.0 C 76.8 512.0, 76.8 508.8, 89.6 508.8 A 3.2 3.2 0 0 1 91.4745166004061 513.8745166004061 A 6.4 6.4 0 1 0 100.5254833995939 513.8745166004061 A 3.2 3.2 0 0 1 102.4 508.8 C 115.2 508.8, 115.2 512.0, 128.0 512.0 L 192.0 512.0 C 204.8 512.0, 204.8 515.2, 217.6 515.2 A 3.2 3.2 0 0 0 219.4745166004061 510.1254833995939 A 6.4 6.4 0 1 1 228.5254833995939 510.1254833995939 A 3.2 3.2 0 0 0 230.4 515.2 C 243.2 515.2, 243.2 512.0, 256.0 512.0 C 264.0 512.0, 264.0 508.8, 272.0 508.8 A 3.2 3.2 0 0 1 273.8745166004061 513.8745166004061 A 6.4 6.4 0 1 0 282.9254833995939 513.8745166004061 A 3.2 3.2 0 0 1 284.8 508.8 C 302.4 508.8, 302.4 512.0, 320.0 512.0 L 384.0 512.0 L 448.0 512.0 L 512.0 512.0 L 576.0 512.0 L 640.0 512.0 L 704.0 512.0 L 768.0 512.0 L 832.0 512.0 L 896.0 512.0 L 960.0 512.0 L 1024.0 512.0 L 1088.0 512.0 L 1090.56 512.0 M -2.56 576.0 L 0.0 576.0 C 17.6 576.0, 17.6 572.8, 35.2 572.8 A 3.2 3.2 0 0 1 37.0745166004061 577.8745166004061 A 6.4 6.4 0 1 0 46.125483399593904 577.8745166004061 A 3.2 3.2 0 0 1 48.0 572.8 C 56.0 572.8, 56.0 576.0, 64.0 576.0 C 76.8 576.0, 76.8 572.8, 89.6 572.8 A 3.2 3.2 0 0 1 91.4745166004061 577.8745166004061 A 6.4 6.4 0 1 0 100.5254833995939 577.8745166004061 A 3.2 3.2 0 0 1 102.4 572.8 C 115.2 572.8, 115.2 576.0, 128.0 576.0 C 136.0 576.0, 136.0 572.8, 144.0 572.8 A 3.2 3.2 0 0 1 145.87451660040608 577.8745166004061 A 6.4 6.4 0 1 0 154.9254833995939 577.8745166004061 A 3.2 3.2 0 0 1 156.8 572.8 L 163.2 572.8 A 3.2 3.2 0 0 1 165.0745166004061 577.8745166004061 A 6.4 6.4 0 1 0 174.12548339959392 577.8745166004061 A 3.2 3.2 0 0 1 176.0 572.8 C 184.0 572.8, 184.0 576.0, 192.0 576.0 C 209.6 576.0, 209.6 579.2, 227.2 579.2 A 3.2 3.2 0 0 0 229.0745166004061 574.1254833995939 A 6.4 6.4 0 1 1 238.12548339959392 574.1254833995939 A 3.2 3.2 0 0 0 240.0 579.2 C 248.0 579.2, 248.0 576.0, 256.0 576.0 C 273.6 576.0, 273.6 579.2, 291.2 579.2 A 3.2 3.2 0 0 0 293.0745166004061 574.1254833995939 A 6.4 6.4 0 1 1 302.1254833995939 574.1254833995939 A 3.2 3.2 0 0 0 304.0 579.2 C 312.0 579.2, 312.0 576.0, 320.0 576.0 C 331.52 576.0, 331.52 571.52, 343.04 571.52 A 4.4799999999999995 4.4799999999999995 0 0 1 345.66432324056854 578.6243232405685 A 8.959999999999999 8.959999999999999 0 1 0 358.33567675943146 578.6243232405685 A 4.4799999999999995 4.4799999999999995 0 0 1 360.96 571.52 C 372.48 571.52, 372.48 576.0, 384.0 576.0 C 395.52 576.0, 395.52 571.52, 407.04 571.52 A 4.4799999999999995 4.4799999999999995 0 0 1 409.66432324056854 578.6243232405685 A 8.959999999999999 8.959999999999999 0 1 0 422.33567675943146 578.6243232405685 A 4.4799999999999995 4.4799999999999995 0 0 1 424.96 571.52 C 436.48 571.52, 436.48 576.0, 448.0 576.0 C 459.52 576.0, 459.52 580.48, 471.04 580.48 A 4.4799999999999995 4.4799999999999995 0 0 0 473.66432324056854 573.3756767594315 A 8.959999999999999 8.959999999999999 0 1 1 486.33567675943146 573.3756767594315 A 4.4799999999999995 4.4799999999999995 0 0 0 488.96 580.48 C 500.48 580.48, 500.48 576.0, 512.0 576.0 C 523.52 576.0, 523.52 580.48, 535.04 580.48 A 4.4799999999999995 4.4799999999999995 0 0 0 537.6643232405686 573.3756767594315 A 8.959999999999999 8.959999999999999 0 1 1 550.3356767594314 573.3756767594315 A 4.4799999999999995 4.4799999999999995 0 0 0 552.96 580.48 C 564.48 580.48, 564.48 576.0, 576.0 576.0 C 587.52 576.0, 587.52 571.52, 599.04 571.52 A 4.4799999999999995 4.4799999999999995 0 0 1 601.6643232405686 578.6243232405685 A 8.959999999999999 8.959999999999999 0 1 0 614.3356767594314 578.6243232405685 A 4.4799999999999995 4.4799999999999995 0 0 1 616.96 571.52 C 628.48 571.52, 628.48 576.0, 640.0 576.0 C 651.52 576.0, 651.52 571.52, 663.04 571.52 A 4.4799999999999995 4.4799999999999995 0 0 1 665.6643232405686 578.6243232405685 A 8.959999999999999 8.959999999999999 0 1 0 678.3356767594314 578.6243232405685 A 4.4799999999999995 4.4799999999999995 0 0 1 680.96 571.52 C 692.48 571.52, 692.48 576.0, 704.0 576.0 C 712.0 576.0, 712.0 579.2, 720.0 579.2 A 3.2 3.2 0 0 0 721.8745166004061 574.1254833995939 A 6.4 6.4 0 1 1 730.9254833995939 574.1254833995939 A 3.2 3.2 0 0 0 732.8 579.2 C 750.4 579.2, 750.4 576.0, 768.0 576.0 C 776.0 576.0, 776.0 572.8, 784.0 572.8 A 3.2 3.2 0 0 1 785.8745166004061 577.8745166004061 A 6.4 6.4 0 1 0 794.9254833995939 577.8745166004061 A 3.2 3.2 0 0 1 796.8 572.8 C 814.4 572.8, 814.4 576.0, 832.0 576.0 C 840.0 576.0, 840.0 572.8, 848.0 572.8 A 3.2 3.2 0 0 1 849.8745166004061 577.8745166004061 A 6.4 6.4 0 1 0 858.9254833995939 577.8745166004061 A 3.2 3.2 0 0 1 860.8 572.8 C 878.4 572.8, 878.4 576.0, 896.0 576.0 C 904.0 576.0, 904.0 579.2, 912.0 579.2 A 3.2 3.2 0 0 0 913.8745166004061 574.1254833995939 A 6.4 6.4 0 1 1 922.9254833995939 574.1254833995939 A 3.2 3.2 0 0 0 924.8 579.2 C 928.0 579.2, 928.0 572.8, 931.2 572.8 A 3.2 3.2 0 0 1 933.0745166004061 577.8745166004061 A 6.4 6.4 0 1 0 942.1254833995939 577.8745166004061 A 3.2 3.2 0 0 1 944.0 572.8 C 952.0 572.8, 952.0 576.0, 960.0 576.0 C 977.6 576.0, 977.6 572.8, 995.2 572.8 A 3.2 3.2 0 0 1 997.0745166004061 577.8745166004061 A 6.4 6.4 0 1 0 1006.1254833995939 577.8745166004061 A 3.2 3.2 0 0 1 1008.0 572.8 C 1016.0 572.8, 1016.0 576.0, 1024.0 576.0 C 1032.0 576.0, 1032.0 579.2, 1040.0 579.2 A 3.2 3.2 0 0 0 1041.8745166004062 574.1254833995939 A 6.4 6.4 0 1 1 1050.925483399594 574.1254833995939 A 3.2 3.2 0 0 0 1052.8 579.2 L 1059.2 579.2 A 3.2 3.2 0 0 0 1061.074516600406 574.1254833995939 A 6.4 6.4 0 1 1 1070.1254833995938 574.1254833995939 A 3.2 3.2 0 0 0 1072.0 579.2 C 1080.0 579.2, 1080.0 576.0, 1088.0 576.0 L 1090.56 576.0 M -2.56 640.0 L 0.0 640.0 L 64.0 640.0 L 128.0 640.0 L 192.0 640.0 L 256.0 640.0 L 320.0 640.0 C 331.52 640.0, 331.52 635.52, 343.04 635.52 A 4.4799999999999995 4.4799999999999995 0 0 1 345.66432324056854 642.6243232405685 A 8.959999999999999 8.959999999999999 0 1 0 358.33567675943146 642.6243232405685 A 4.4799999999999995 4.4799999999999995 0 0 1 360.96 635.52 C 372.48 635.52, 372.48 640.0, 384.0 640.0 C 395.52 640.0, 395.52 644.48, 407.04 644.48 A 4.4799999999999995 4.4799999999999995 0 0 0 409.66432324056854 637.3756767594315 A 8.959999999999999 8.959999999999999 0 1 1 422.33567675943146 637.3756767594315 A 4.4799999999999995 4.4799999999999995 0 0 0 424.96 644.48 C 436.48 644.48, 436.48 640.0, 448.0 640.0 C 459.52 640.0, 459.52 644.48, 471.04 644.48 A 4.4799999999999995 4.4799999999999995 0 0 0 473.66432324056854 637.3756767594315 A 8.959999999999999 8.959999999999999 0 1 1 486.33567675943146 637.3756767594315 A 4.4799999999999995 4.4799999999999995 0 0 0 488.96 644.48 C 500.48 644.48, 500.48 640.0, 512.0 640.0 C 524.8 640.0, 524.8 643.2, 537.6 643.2 A 3.2 3.2 0 0 0 539.4745166004061 638.1254833995939 A 6.4 6.4 0 1 1 548.5254833995939 638.1254833995939 A 3.2 3.2 0 0 0 550.4 643.2 C 563.2 643.2, 563.2 640.0, 576.0 640.0 C 587.52 640.0, 587.52 644.48, 599.04 644.48 A 4.4799999999999995 4.4799999999999995 0 0 0 601.6643232405686 637.3756767594315 A 8.959999999999999 8.959999999999999 0 1 1 614.3356767594314 637.3756767594315 A 4.4799999999999995 4.4799999999999995 0 0 0 616.96 644.48 C 628.48 644.48, 628.48 640.0, 640.0 640.0 C 652.8 640.0, 652.8 643.2, 665.6 643.2 A 3.2 3.2 0 0 0 667.4745166004061 638.1254833995939 A 6.4 6.4 0 1 1 676.5254833995939 638.1254833995939 A 3.2 3.2 0 0 0 678.4 643.2 C 691.2 643.2, 691.2 640.0, 704.0 640.0 C 721.6 640.0, 721.6 643.2, 739.2 643.2 A 3.2 3.2 0 0 0 741.0745166004061 638.1254833995939 A 6.4 6.4 0 1 1 750.1254833995939 638.1254833995939 A 3.2 3.2 0 0 0 752.0 643.2 C 760.0 643.2, 760.0 640.0, 768.0 640.0 C 776.0 640.0, 776.0 643.2, 784.0 643.2 A 3.2 3.2 0 0 0 785.8745166004061 638.1254833995939 A 6.4 6.4 0 1 1 794.9254833995939 638.1254833995939 A 3.2 3.2 0 0 0 796.8 643.2 C 814.4 643.2, 814.4 640.0, 832.0 640.0 C 849.6 640.0, 849.6 643.2, 867.2 643.2 A 3.2 3.2 0 0 0 869.0745166004061 638.1254833995939 A 6.4 6.4 0 1 1 878.1254833995939 638.1254833995939 A 3.2 3.2 0 0 0 880.0 643.2 C 888.0 643.2, 888.0 640.0, 896.0 640.0 C 908.8 640.0, 908.8 643.2, 921.6 643.2 A 3.2 3.2 0 0 0 923.4745166004061 638.1254833995939 A 6.4 6.4 0 1 1 932.5254833995939 638.1254833995939 A 3.2 3.2 0 0 0 934.4 643.2 C 947.2 643.2, 947.2 640.0, 960.0 640.0 C 968.0 640.0, 968.0 643.2, 976.0 643.2 A 3.2 3.2 0 0 0 977.8745166004061 638.1254833995939 A 6.4 6.4 0 1 1 986.9254833995939 638.1254833995939 A 3.2 3.2 0 0 0 988.8 643.2 C 1006.4 643.2, 1006.4 640.0, 1024.0 640.0 C 1036.8 640.0, 1036.8 636.8, 1049.6 636.8 A 3.2 3.2 0 0 1 1051.474516600406 641.8745166004061 A 6.4 6.4 0 1 0 1060.525483399594 641.8745166004061 A 3.2 3.2 0 0 1 1062.4 636.8 C 1075.2 636.8, 1075.2 640.0, 1088.0 640.0 L 1090.56 640.0 M -2.56 704.0 L 0.0 704.0 L 64.0 704.0 L 128.0 704.0 L 192.0 704.0 L 256.0 704.0 L 320.0 704.0 L 384.0 704.0 L 448.0 704.0 L 512.0 704.0 L 576.0 704.0 L 640.0 704.0 L 704.0 704.0 L 768.0 704.0 L 832.0 704.0 L 896.0 704.0 L 960.0 704.0 L 1024.0 704.0 L 1088.0 704.0 L 1090.56 704.0"/></g></svg>