<svg width="320" height="320" xmlns="http://www.w3.org/2000/svg"><g transform="translate(32.0 32.0)"><path fill="none" stroke="black" d="M 0.0 -2.56 L 0.0 0.0 L 0.0 64.0 L 0.0 128.0 L 0.0 192.0 L 0.0 256.0 L 0.0 258.56 M 64.0 -2.56 L 64.0 0.0 C 64.0 12.8, 67.2 12.8, 67.2 25.6 A 3.2 3.2 0 0 1 62.125483399593904 27.474516600406098 A 6.4 6.4 0 1 0 62.125483399593904 36.5254833995939 A 3.2 3.2 0 0 1 67.2 38.4 C 67.2 51.2, 64.0 51.2, 64.0 64.0 L 64.0 128.0 C 64.0 139.52, 59.52 139.52, 59.52 151.04 A 4.4799999999999995 4.4799999999999995 0 0 0 66.62432324056853 153.66432324056854 A 8.959999999999999 8.959999999999999 0 1 1 66.62432324056853 166.33567675943146 A 4.4799999999999995 4.4799999999999995 0 0 0 59.52 168.96 C 59.52 180.48, 64.0 180.48, 64.0 192.0 C 64.0 203.52, 59.52 203.52, 59.52 215.04 A 4.4799999999999995 4.4799999999999995 0 0 0 66.62432324056853 217.66432324056854 A 8.959999999999999 8.959999999999999 0 1 1 66.62432324056853 230.33567675943146 A 4.4799999999999995 4.4799999999999995 0 0 0 59.52 232.96 C 59.52 244.48, 64.0 244.48, 64.0 256.0 L 64.0 258.56 M 128.0 -2.56 L 128.0 0.0 C 128.0 7.999999999999999, 124.8 7.999999999999999, 124.8 15.999999999999998 A 3.2 3.2 0 0 0 129.87451660040608 17.874516600406096 A 6.4 6.4 0 1 1 129.87451660040608 26.9254833995939 A 3.2 3.2 0 0 0 124.8 28.799999999999997 C 124.8 46.400000000000006, 128.0 46.400000000000006, 128.0 64.0 C 128.0 72.0, 131.2 72.0, 131.2 80.0 A 3.2 3.2 0 0 1 126.1254833995939 81.8745166004061 A 6.4 6.4 0 1 0 126.1254833995939 90.9254833995939 A 3.2 3.2 0 0 1 131.2 92.8 C 131.2 110.4, 128.0 110.4, 128.0 128.0 L 128.0 192.0 C 128.0 203.52, 123.52 203.52, 123.52 215.04 A 4.4799999999999995 4.4799999999999995 0 0 0 130.62432324056854 217.66432324056854 A 8.959999999999999 8.959999999999999 0 1 1 130.62432324056854 230.33567675943146 A 4.4799999999999995 4.4799999999999995 0 0 0 123.52 232.96 C 123.52 244.48, 128.0 244.48, 128.0 256.0 L 128.0 258.56 M 192.0 -2.56 L 192.0 0.0 C 192.0 12.8, 195.2 12.8, 195.2 25.6 A 3.2 3.2 0 0 1 190.12548339959392 27.474516600406098 A 6.4 6.4 0 1 0 190.12548339959392 36.5254833995939 A 3.2 3.2 0 0 1 195.2 38.4 C 195.2 51.2, 192.0 51.2, 192.0 64.0 C 192.0 72.0, 195.2 72.0, 195.2 80.0 A 3.2 3.2 0 0 1 190.12548339959392 81.8745166004061 A 6.4 6.4 0 1 0 190.12548339959392 90.9254833995939 A 3.2 3.2 0 0 1 195.2 92.8 C 195.2 110.4, 192.0 110.4, 192.0 128.0 C 192.0 145.6, 195.2 145.6, 195.2 163.2 A 3.2 3.2 0 0 1 190.12548339959392 165.0745166004061 A 6.4 6.4 0 1 0 190.12548339959392 174.12548339959392 A 3.2 3.2 0 0 1 195.2 176.0 C 195.2 184.0, 192.0 184.0, 192.0 192.0 L 192.0 256.0 L 192.0 258.56 M 256.0 -2.56 L 256.0 0.0 L 256.0 64.0 L 256.0 128.0 L 256.0 192.0 L 256.0 256.0 L 256.0 258.56 M -2.56 0.0 L 0.0 0.0 L 64.0 0.0 L 128.0 0.0 L 192.0 0.0 L 256.0 0.0 L 258.56 0.0 M -2.56 64.0 L 0.0 64.0 L 64.0 64.0 C 81.6 64.0, 81.6 67.2, 99.2 67.2 A 3.2 3.2 0 0 0 101.0745166004061 62.125483399593904 A 6.4 6.4 0 1 1 110.1254833995939 62.125483399593904 A 3.2 3.2 0 0 0 112.0 67.2 C 120.0 67.2, 120.0 64.0, 128.0 64.0 C 140.8 64.0, 140.8 60.8, 153.6 60.8 A 3.2 3.2 0 0 1 155.4745166004061 65.8745166004061 A 6.4 6.4 0 1 0 164.5254833995939 65.8745166004061 A 3.2 3.2 0 0 1 166.4 60.8 C 179.2 60.8, 179.2 64.0, 192.0 64.0 C 204.8 64.0, 204.8 60.8, 217.6 60.8 A 3.2 3.2 0 0 1 219.4745166004061 65.8745166004061 A 6.4 6.4 0 1 0 228.5254833995939 65.8745166004061 A 3.2 3.2 0 0 1 230.4 60.8 C 243.2 60.8, 243.2 64.0, 256.0 64.0 L 258.56 64.0 M -2.56 128.0 L 0.0 128.0 C 11.52 128.0, 11.52 132.48, 23.04 132.48 A 4.4799999999999995 4.4799999999999995 0 0 0 25.664323240568535 125.37567675943147 A 8.959999999999999 8.959999999999999 0 1 1 38.335676759431465 125.37567675943147 A 4.4799999999999995 4.4799999999999995 0 0 0 40.96 132.48 C 52.48 132.48, 52.48 128.0, 64.0 128.0 L 128.0 128.0 C 136.0 128.0, 136.0 124.8, 144.0 124.8 A 3.2 3.2 0 0 1 145.87451660040608 129.87451660040608 A 6.4 6.4 0 1 0 154.9254833995939 129.87451660040608 A 3.2 3.2 0 0 1 156.8 124.8 C 174.4 124.8, 174.4 128.0, 192.0 128.0 C 200.0 128.0, 200.0 131.2, 208.0 131.2 A 3.2 3.2 0 0 0 209.87451660040608 126.1254833995939 A 6.4 6.4 0 1 1 218.9254833995939 126.1254833995939 A 3.2 3.2 0 0 0 220.8 131.2 C 238.4 131.2, 238.4 128.0, 256.0 128.0 L 258.56 128.0 M -2.56 192.0 L 0.0 192.0 C 11.52 192.0, 11.52 196.48, 23.04 196.48 A 4.4799999999999995 4.4799999999999995 0 0 0 25.664323240568535 189.37567675943146 A 8.959999999999999 8.959999999999999 0 1 1 38.335676759431465 189.37567675943146 A 4.4799999999999995 4.4799999999999995 0 0 0 40.96 196.48 C 52.48 196.48, 52.48 192.0, 64.0 192.0 C 75.52 192.0, 75.52 196.48, 87.03999999999999 196.48 A 4.4799999999999995 4.4799999999999995 0 0 0 89.66432324056854 189.37567675943146 A 8.959999999999999 8.959999999999999 0 1 1 102.33567675943146 189.37567675943146 A 4.4799999999999995 4.4799999999999995 0 0 0 104.96000000000001 196.48 C 116.47999999999999 196.48, 116.47999999999999 192.0, 128.0 192.0 L 192.0 192.0 C 200.0 192.0, 200.0 188.8, 208.0 188.8 A 3.2 3.2 0 0 1 209.87451660040608 193.87451660040608 A 6.4 6.4 0 1 0 218.9254833995939 193.87451660040608 A 3.2 3.2 0 0 1 220.8 188.8 C 238.4 188.8, 238.4 192.0, 256.0 192.0 L 258.56 192.0 M -2.56 256.0 L 0.0 256.0 L 64.0 256.0 L 128.0 256.0 L 192.0 256.0 L 256.0 256.0 L 258.56 256.0"/></g></svg>