<svg width="256" height="256" xmlns="http://www.w3.org/2000/svg"><g transform="translate(32.0 32.0)"><path fill="none" stroke="black" d="M 0.0 -2.56 L 0.0 0.0 L 0.0 64.0 L 0.0 128.0 L 0.0 192.0 L 0.0 194.56 M 64.0 -2.56 L 64.0 0.0 C 64.0 11.52, 59.52 11.52, 59.52 23.04 A 4.4799999999999995 4.4799999999999995 0 0 0 66.62432324056853 25.664323240568535 A 8.959999999999999 8.959999999999999 0 1 1 66.62432324056853 38.335676759431465 A 4.4799999999999995 4.4799999999999995 0 0 0 59.52 40.96 C 59.52 52.48, 64.0 52.48, 64.0 64.0 C 64.0 75.52, 68.48 75.52, 68.48 87.03999999999999 A 4.4799999999999995 4.4799999999999995 0 0 1 61.375676759431464 89.66432324056854 A 8.959999999999999 8.959999999999999 0 1 0 61.375676759431464 102.33567675943146 A 4.4799999999999995 4.4799999999999995 0 0 1 68.48 104.96000000000001 C 68.48 116.47999999999999, 64.0 116.47999999999999, 64.0 128.0 C 64.0 139.52, 68.48 139.52, 68.48 151.04 A 4.4799999999999995 4.4799999999999995 0 0 1 61.375676759431464 153.66432324056854 A 8.959999999999999 8.959999999999999 0 1 0 61.375676759431464 166.33567675943146 A 4.4799999999999995 4.4799999999999995 0 0 1 68.48 168.96 C 68.48 180.48, 64.0 180.48, 64.0 192.0 L 64.0 194.56 M 128.0 -2.56 L 128.0 0.0 C 128.0 11.52, 123.52 11.52, 123.52 23.04 A 4.4799999999999995 4.4799999999999995 0 0 0 130.62432324056854 25.664323240568535 A 8.959999999999999 8.959999999999999 0 1 1 130.62432324056854 38.335676759431465 A 4.4799999999999995 4.4799999999999995 0 0 0 123.52 40.96 C 123.52 52.48, 128.0 52.48, 128.0 64.0 C 128.0 75.52, 123.52 75.52, 123.52 87.03999999999999 A 4.4799999999999995 4.4799999999999995 0 0 0 130.62432324056854 89.66432324056854 A 8.959999999999999 8.959999999999999 0 1 1 130.62432324056854 102.33567675943146 A 4.4799999999999995 4.4799999999999995 0 0 0 123.52 104.96000000000001 C 123.52 116.47999999999999, 128.0 116.47999999999999, 128.0 128.0 C 128.0 139.52, 132.48 139.52, 132.48 151.04 A 4.4799999999999995 4.4799999999999995 0 0 1 125.37567675943147 153.66432324056854 A 8.959999999999999 8.959999999999999 0 1 0 125.37567675943147 166.33567675943146 A 4.4799999999999995 4.4799999999999995 0 0 1 132.48 168.96 C 132.48 180.48, 128.0 180.48, 128.0 192.0 L 128.0 194.56 M 192.0 -2.56 L 192.0 0.0 L 192.0 64.0 L 192.0 128.0 L 192.0 192.0 L 192.0 194.56 M -2.56 0.0 L 0.0 0.0 L 64.0 0.0 L 128.0 0.0 L 192.0 0.0 L 194.56 0.0 M -2.56 64.0 L 0.0 64.0 C 11.52 64.0, 11.52 59.52, 23.04 59.52 A 4.4799999999999995 4.4799999999999995 0 0 1 25.664323240568535 66.62432324056853 A 8.959999999999999 8.959999999999999 0 1 0 38.335676759431465 66.62432324056853 A 4.4799999999999995 4.4799999999999995 0 0 1 40.96 59.52 C 52.48 59.52, 52.48 64.0, 64.0 64.0 C 75.52 64.0, 75.52 59.52, 87.03999999999999 59.52 A 4.4799999999999995 4.4799999999999995 0 0 1 89.66432324056854 66.62432324056853 A 8.959999999999999 8.959999999999999 0 1 0 102.33567675943146 66.62432324056853 A 4.4799999999999995 4.4799999999999995 0 0 1 104.96000000000001 59.52 C 116.47999999999999 59.52, 116.47999999999999 64.0, 128.0 64.0 C 139.52 64.0, 139.52 68.48, 151.04 68.48 A 4.4799999999999995 4.4799999999999995 0 0 0 153.66432324056854 61.375676759431464 A 8.959999999999999 8.959999999999999 0 1 1 166.33567675943146 61.375676759431464 A 4.4799999999999995 4.4799999999999995 0 0 0 168.96 68.48 C 180.48 68.48, 180.48 64.0, 192.0 64.0 L 194.56 64.0 M -2.56 128.0 L 0.0 128.0 C 11.52 128.0, 11.52 123.52, 23.04 123.52 A 4.4799999999999995 4.4799999999999995 0 0 1 25.664323240568535 130.62432324056854 A 8.959999999999999 8.959999999999999 0 1 0 38.335676759431465 130.62432324056854 A 4.4799999999999995 4.4799999999999995 0 0 1 40.96 123.52 C 52.48 123.52, 52.48 128.0, 64.0 128.0 C 75.52 128.0, 75.52 132.48, 87.03999999999999 132.48 A 4.4799999999999995 4.4799999999999995 0 0 0 89.66432324056854 125.37567675943147 A 8.959999999999999 8.959999999999999 0 1 1 102.33567675943146 125.37567675943147 A 4.4799999999999995 4.4799999999999995 0 0 0 104.96000000000001 132.48 C 116.47999999999999 132.48, 116.47999999999999 128.0, 128.0 128.0 C 139.52 128.0, 139.52 132.48, 151.04 132.48 A 4.4799999999999995 4.4799999999999995 0 0 0 153.66432324056854 125.37567675943147 A 8.959999999999999 8.959999999999999 0 1 1 166.33567675943146 125.37567675943147 A 4.4799999999999995 4.4799999999999995 0 0 0 168.96 132.48 C 180.48 132.48, 180.48 128.0, 192.0 128.0 L 194.56 128.0 M -2.56 192.0 L 0.0 192.0 L 64.0 192.0 L 128.0 192.0 L 192.0 192.0 L 194.56 192.0"/></g></svg>