<svg width="320" height="320" xmlns="http://www.w3.org/2000/svg"><g transform="translate(32.0 32.0)"><path fill="none" stroke="black" d="M 0.0 -2.56 L 0.0 0.0 L 0.0 64.0 L 0.0 128.0 L 0.0 192.0 L 0.0 256.0 L 0.0 258.56 M 64.0 -2.56 L 64.0 0.0 C 64.0 17.6, 60.8 17.6, 60.8 35.2 A 3.2 3.2 0 0 0 65.8745166004061 37.0745166004061 A 6.4 6.4 0 1 1 65.8745166004061 46.125483399593904 A 3.2 3.2 0 0 0 60.8 48.0 C 60.8 56.0, 64.0 56.0, 64.0 64.0 C 64.0 76.8, 60.8 76.8, 60.8 89.6 A 3.2 3.2 0 0 0 65.8745166004061 91.4745166004061 A 6.4 6.4 0 1 1 65.8745166004061 100.5254833995939 A 3.2 3.2 0 0 0 60.8 102.4 C 60.8 115.2, 64.0 115.2, 64.0 128.0 C 64.0 140.8, 67.2 140.8, 67.2 153.6 A 3.2 3.2 0 0 1 62.125483399593904 155.4745166004061 A 6.4 6.4 0 1 0 62.125483399593904 164.5254833995939 A 3.2 3.2 0 0 1 67.2 166.4 C 67.2 179.2, 64.0 179.2, 64.0 192.0 C 64.0 209.6, 60.8 209.6, 60.8 227.2 A 3.2 3.2 0 0 0 65.8745166004061 229.0745166004061 A 6.4 6.4 0 1 1 65.8745166004061 238.12548339959392 A 3.2 3.2 0 0 0 60.8 240.0 C 60.8 248.0, 64.0 248.0, 64.0 256.0 L 64.0 258.56 M 128.0 -2.56 L 128.0 0.0 C 128.0 7.999999999999999, 124.8 7.999999999999999, 124.8 15.999999999999998 A 3.2 3.2 0 0 0 129.87451660040608 17.874516600406096 A 6.4 6.4 0 1 1 129.87451660040608 26.9254833995939 A 3.2 3.2 0 0 0 124.8 28.799999999999997 C 124.8 46.400000000000006, 128.0 46.400000000000006, 128.0 64.0 L 128.0 128.0 L 128.0 192.0 C 128.0 200.0, 131.2 200.0, 131.2 208.0 A 3.2 3.2 0 0 1 126.1254833995939 209.87451660040608 A 6.4 6.4 0 1 0 126.1254833995939 218.9254833995939 A 3.2 3.2 0 0 1 131.2 220.8 C 131.2 238.4, 128.0 238.4, 128.0 256.0 L 128.0 258.56 M 192.0 -2.56 L 192.0 0.0 C 192.0 17.6, 195.2 17.6, 195.2 35.2 A 3.2 3.2 0 0 1 190.12548339959392 37.0745166004061 A 6.4 6.4 0 1 0 190.12548339959392 46.125483399593904 A 3.2 3.2 0 0 1 195.2 48.0 C 195.2 56.0, 192.0 56.0, 192.0 64.0 C 192.0 76.8, 188.8 76.8, 188.8 89.6 A 3.2 3.2 0 0 0 193.87451660040608 91.4745166004061 A 6.4 6.4 0 1 1 193.87451660040608 100.5254833995939 A 3.2 3.2 0 0 0 188.8 102.4 C 188.8 115.2, 192.0 115.2, 192.0 128.0 C 192.0 140.8, 188.8 140.8, 188.8 153.6 A 3.2 3.2 0 0 0 193.87451660040608 155.4745166004061 A 6.4 6.4 0 1 1 193.87451660040608 164.5254833995939 A 3.2 3.2 0 0 0 188.8 166.4 C 188.8 179.2, 192.0 179.2, 192.0 192.0 C 192.0 200.0, 188.8 200.0, 188.8 208.0 A 3.2 3.2 0 0 0 193.87451660040608 209.87451660040608 A 6.4 6.4 0 1 1 193.87451660040608 218.9254833995939 A 3.2 3.2 0 0 0 188.8 220.8 L 188.8 227.2 A 3.2 3.2 0 0 0 193.87451660040608 229.0745166004061 A 6.4 6.4 0 1 1 193.87451660040608 238.12548339959392 A 3.2 3.2 0 0 0 188.8 240.0 C 188.8 248.0, 192.0 248.0, 192.0 256.0 L 192.0 258.56 M 256.0 -2.56 L 256.0 0.0 L 256.0 64.0 L 256.0 128.0 L 256.0 192.0 L 256.0 256.0 L 256.0 258.56 M -2.56 0.0 L 0.0 0.0 L 64.0 0.0 L 128.0 0.0 L 192.0 0.0 L 256.0 0.0 L 258.56 0.0 M -2.56 64.0 L 0.0 64.0 C 7.999999999999999 64.0, 7.999999999999999 60.8, 15.999999999999998 60.8 A 3.2 3.2 0 0 1 17.874516600406096 65.8745166004061 A 6.4 6.4 0 1 0 26.9254833995939 65.8745166004061 A 3.2 3.2 0 0 1 28.799999999999997 60.8 L 35.2 60.8 A 3.2 3.2 0 0 1 37.0745166004061 65.8745166004061 A 6.4 6.4 0 1 0 46.125483399593904 65.8745166004061 A 3.2 3.2 0 0 1 48.0 60.8 C 56.0 60.8, 56.0 64.0, 64.0 64.0 C 76.8 64.0, 76.8 60.8, 89.6 60.8 A 3.2 3.2 0 0 1 91.4745166004061 65.8745166004061 A 6.4 6.4 0 1 0 100.5254833995939 65.8745166004061 A 3.2 3.2 0 0 1 102.4 60.8 C 115.2 60.8, 115.2 64.0, 128.0 64.0 C 140.8 64.0, 140.8 67.2, 153.6 67.2 A 3.2 3.2 0 0 0 155.4745166004061 62.125483399593904 A 6.4 6.4 0 1 1 164.5254833995939 62.125483399593904 A 3.2 3.2 0 0 0 166.4 67.2 C 179.2 67.2, 179.2 64.0, 192.0 64.0 C 209.6 64.0, 209.6 67.2, 227.2 67.2 A 3.2 3.2 0 0 0 229.0745166004061 62.125483399593904 A 6.4 6.4 0 1 1 238.12548339959392 62.125483399593904 A 3.2 3.2 0 0 0 240.0 67.2 C 248.0 67.2, 248.0 64.0, 256.0 64.0 L 258.56 64.0 M -2.56 128.0 L 0.0 128.0 C 7.999999999999999 128.0, 7.999999999999999 131.2, 15.999999999999998 131.2 A 3.2 3.2 0 0 0 17.874516600406096 126.1254833995939 A 6.4 6.4 0 1 1 26.9254833995939 126.1254833995939 A 3.2 3.2 0 0 0 28.799999999999997 131.2 L 35.2 131.2 A 3.2 3.2 0 0 0 37.0745166004061 126.1254833995939 A 6.4 6.4 0 1 1 46.125483399593904 126.1254833995939 A 3.2 3.2 0 0 0 48.0 131.2 C 56.0 131.2, 56.0 128.0, 64.0 128.0 L 128.0 128.0 L 192.0 128.0 C 209.6 128.0, 209.6 124.8, 227.2 124.8 A 3.2 3.2 0 0 1 229.0745166004061 129.87451660040608 A 6.4 6.4 0 1 0 238.12548339959392 129.87451660040608 A 3.2 3.2 0 0 1 240.0 124.8 C 248.0 124.8, 248.0 128.0, 256.0 128.0 L 258.56 128.0 M -2.56 192.0 L 0.0 192.0 C 17.6 192.0, 17.6 188.8, 35.2 188.8 A 3.2 3.2 0 0 1 37.0745166004061 193.87451660040608 A 6.4 6.4 0 1 0 46.125483399593904 193.87451660040608 A 3.2 3.2 0 0 1 48.0 188.8 C 56.0 188.8, 56.0 192.0, 64.0 192.0 C 76.8 192.0, 76.8 188.8, 89.6 188.8 A 3.2 3.2 0 0 1 91.4745166004061 193.87451660040608 A 6.4 6.4 0 1 0 100.5254833995939 193.87451660040608 A 3.2 3.2 0 0 1 102.4 188.8 C 115.2 188.8, 115.2 192.0, 128.0 192.0 C 140.8 192.0, 140.8 188.8, 153.6 188.8 A 3.2 3.2 0 0 1 155.4745166004061 193.87451660040608 A 6.4 6.4 0 1 0 164.5254833995939 193.87451660040608 A 3.2 3.2 0 0 1 166.4 188.8 C 179.2 188.8, 179.2 192.0, 192.0 192.0 C 200.0 192.0, 200.0 195.2, 208.0 195.2 A 3.2 3.2 0 0 0 209.87451660040608 190.12548339959392 A 6.4 6.4 0 1 1 218.9254833995939 190.12548339959392 A 3.2 3.2 0 0 0 220.8 195.2 C 238.4 195.2, 238.4 192.0, 256.0 192.0 L 258.56 192.0 M -2.56 256.0 L 0.0 256.0 L 64.0 256.0 L 128.0 256.0 L 192.0 256.0 L 256.0 256.0 L 258.56 256.0"/></g></svg>