<svg width="256" height="256" xmlns="http://www.w3.org/2000/svg"><g transform="translate(32.0 32.0)"><path fill="none" stroke="black" d="M 0.0 -2.56 L 0.0 0.0 L 0.0 64.0 L 0.0 128.0 L 0.0 192.0 L 0.0 194.56 M 64.0 -2.56 L 64.0 0.0 C 64.0 7.999999999999999, 67.2 7.999999999999999, 67.2 15.999999999999998 A 3.2 3.2 0 0 1 62.125483399593904 17.874516600406096 A 6.4 6.4 0 1 0 62.125483399593904 26.9254833995939 A 3.2 3.2 0 0 1 67.2 28.799999999999997 C 67.2 46.400000000000006, 64.0 46.400000000000006, 64.0 64.0 C 64.0 81.6, 60.8 81.6, 60.8 99.2 A 3.2 3.2 0 0 0 65.8745166004061 101.0745166004061 A 6.4 6.4 0 1 1 65.8745166004061 110.1254833995939 A 3.2 3.2 0 0 0 60.8 112.0 C 60.8 120.0, 64.0 120.0, 64.0 128.0 C 64.0 145.6, 60.8 145.6, 60.8 163.2 A 3.2 3.2 0 0 0 65.8745166004061 165.0745166004061 A 6.4 6.4 0 1 1 65.8745166004061 174.12548339959392 A 3.2 3.2 0 0 0 60.8 176.0 C 60.8 184.0, 64.0 184.0, 64.0 192.0 L 64.0 194.56 M 128.0 -2.56 L 128.0 0.0 C 128.0 17.6, 124.8 17.6, 124.8 35.2 A 3.2 3.2 0 0 0 129.87451660040608 37.0745166004061 A 6.4 6.4 0 1 1 129.87451660040608 46.125483399593904 A 3.2 3.2 0 0 0 124.8 48.0 C 124.8 56.0, 128.0 56.0, 128.0 64.0 C 128.0 72.0, 131.2 72.0, 131.2 80.0 A 3.2 3.2 0 0 1 126.1254833995939 81.8745166004061 A 6.4 6.4 0 1 0 126.1254833995939 90.9254833995939 A 3.2 3.2 0 0 1 131.2 92.8 C 131.2 110.4, 128.0 110.4, 128.0 128.0 C 128.0 145.6, 131.2 145.6, 131.2 163.2 A 3.2 3.2 0 0 1 126.1254833995939 165.0745166004061 A 6.4 6.4 0 1 0 126.1254833995939 174.12548339959392 A 3.2 3.2 0 0 1 131.2 176.0 C 131.2 184.0, 128.0 184.0, 128.0 192.0 L 128.0 194.56 M 192.0 -2.56 L 192.0 0.0 L 192.0 64.0 L 192.0 128.0 L 192.0 192.0 L 192.0 194.56 M -2.56 0.0 L 0.0 0.0 L 64.0 0.0 L 128.0 0.0 L 192.0 0.0 L 194.56 0.0 M -2.56 64.0 L 0.0 64.0 C 7.999999999999999 64.0, 7.999999999999999 67.2, 15.999999999999998 67.2 A 3.2 3.2 0 0 0 17.874516600406096 62.125483399593904 A 6.4 6.4 0 1 1 26.9254833995939 62.125483399593904 A 3.2 3.2 0 0 0 28.799999999999997 67.2 C 46.400000000000006 67.2, 46.400000000000006 64.0, 64.0 64.0 C 72.0 64.0, 72.0 60.8, 80.0 60.8 A 3.2 3.2 0 0 1 81.8745166004061 65.8745166004061 A 6.4 6.4 0 1 0 90.9254833995939 65.8745166004061 A 3.2 3.2 0 0 1 92.8 60.8 C 110.4 60.8, 110.4 64.0, 128.0 64.0 C 136.0 64.0, 136.0 60.8, 144.0 60.8 A 3.2 3.2 0 0 1 145.87451660040608 65.8745166004061 A 6.4 6.4 0 1 0 154.9254833995939 65.8745166004061 A 3.2 3.2 0 0 1 156.8 60.8 C 174.4 60.8, 174.4 64.0, 192.0 64.0 L 194.56 64.0 M -2.56 128.0 L 0.0 128.0 C 17.6 128.0, 17.6 131.2, 35.2 131.2 A 3.2 3.2 0 0 0 37.0745166004061 126.1254833995939 A 6.4 6.4 0 1 1 46.125483399593904 126.1254833995939 A 3.2 3.2 0 0 0 48.0 131.2 C 56.0 131.2, 56.0 128.0, 64.0 128.0 C 72.0 128.0, 72.0 131.2, 80.0 131.2 A 3.2 3.2 0 0 0 81.8745166004061 126.1254833995939 A 6.4 6.4 0 1 1 90.9254833995939 126.1254833995939 A 3.2 3.2 0 0 0 92.8 131.2 C 110.4 131.2, 110.4 128.0, 128.0 128.0 C 145.6 128.0, 145.6 131.2, 163.2 131.2 A 3.2 3.2 0 0 0 165.0745166004061 126.1254833995939 A 6.4 6.4 0 1 1 174.12548339959392 126.1254833995939 A 3.2 3.2 0 0 0 176.0 131.2 C 184.0 131.2, 184.0 128.0, 192.0 128.0 L 194.56 128.0 M -2.56 192.0 L 0.0 192.0 L 64.0 192.0 L 128.0 192.0 L 192.0 192.0 L 194.56 192.0"/></g></svg>