<svg width="256" height="256" xmlns="http://www.w3.org/2000/svg"><g transform="translate(32.0 32.0)"><path fill="none" stroke="black" d="M 0.0 -2.56 L 0.0 0.0 L 0.0 64.0 L 0.0 128.0 L 0.0 192.0 L 0.0 194.56 M 64.0 -2.56 L 64.0 0.0 C 64.0 11.52, 68.48 11.52, 68.48 23.04 A 4.4799999999999995 4.4799999999999995 0 0 1 61.375676759431464 25.664323240568535 A 8.959999999999999 8.959999999999999 0 1 0 61.375676759431464 38.335676759431465 A 4.4799999999999995 4.4799999999999995 0 0 1 68.48 40.96 C 68.48 52.48, 64.0 52.48, 64.0 64.0 C 64.0 76.8, 60.8 76.8, 60.8 89.6 A 3.2 3.2 0 0 0 65.8745166004061 91.4745166004061 A 6.4 6.4 0 1 1 65.8745166004061 100.5254833995939 A 3.2 3.2 0 0 0 60.8 102.4 C 60.8 115.2, 64.0 115.2, 64.0 128.0 C 64.0 140.8, 60.8 140.8, 60.8 153.6 A 3.2 3.2 0 0 0 65.8745166004061 155.4745166004061 A 6.4 6.4 0 1 1 65.8745166004061 164.5254833995939 A 3.2 3.2 0 0 0 60.8 166.4 C 60.8 179.2, 64.0 179.2, 64.0 192.0 L 64.0 194.56 M 128.0 -2.56 L 128.0 0.0 C 128.0 12.8, 124.8 12.8, 124.8 25.6 A 3.2 3.2 0 0 0 129.87451660040608 27.474516600406098 A 6.4 6.4 0 1 1 129.87451660040608 36.5254833995939 A 3.2 3.2 0 0 0 124.8 38.4 C 124.8 51.2, 128.0 51.2, 128.0 64.0 C 128.0 75.52, 132.48 75.52, 132.48 87.03999999999999 A 4.4799999999999995 4.4799999999999995 0 0 1 125.37567675943147 89.66432324056854 A 8.959999999999999 8.959999999999999 0 1 0 125.37567675943147 102.33567675943146 A 4.4799999999999995 4.4799999999999995 0 0 1 132.48 104.96000000000001 C 132.48 116.47999999999999, 128.0 116.47999999999999, 128.0 128.0 C 128.0 140.8, 131.2 140.8, 131.2 153.6 A 3.2 3.2 0 0 1 126.1254833995939 155.4745166004061 A 6.4 6.4 0 1 0 126.1254833995939 164.5254833995939 A 3.2 3.2 0 0 1 131.2 166.4 C 131.2 179.2, 128.0 179.2, 128.0 192.0 L 128.0 194.56 M 192.0 -2.56 L 192.0 0.0 L 192.0 64.0 L 192.0 128.0 L 192.0 192.0 L 192.0 194.56 M -2.56 0.0 L 0.0 0.0 L 64.0 0.0 L 128.0 0.0 L 192.0 0.0 L 194.56 0.0 M -2.56 64.0 L 0.0 64.0 C 11.52 64.0, 11.52 68.48, 23.04 68.48 A 4.4799999999999995 4.4799999999999995 0 0 0 25.664323240568535 61.375676759431464 A 8.959999999999999 8.959999999999999 0 1 1 38.335676759431465 61.375676759431464 A 4.4799999999999995 4.4799999999999995 0 0 0 40.96 68.48 C 52.48 68.48, 52.48 64.0, 64.0 64.0 C 75.52 64.0, 75.52 59.52, 87.03999999999999 59.52 A 4.4799999999999995 4.4799999999999995 0 0 1 89.66432324056854 66.62432324056853 A 8.959999999999999 8.959999999999999 0 1 0 102.33567675943146 66.62432324056853 A 4.4799999999999995 4.4799999999999995 0 0 1 104.96000000000001 59.52 C 116.47999999999999 59.52, 116.47999999999999 64.0, 128.0 64.0 C 139.52 64.0, 139.52 59.52, 151.04 59.52 A 4.4799999999999995 4.4799999999999995 0 0 1 153.66432324056854 66.62432324056853 A 8.959999999999999 8.959999999999999 0 1 0 166.33567675943146 66.62432324056853 A 4.4799999999999995 4.4799999999999995 0 0 1 168.96 59.52 C 180.48 59.52, 180.48 64.0, 192.0 64.0 L 194.56 64.0 M -2.56 128.0 L 0.0 128.0 C 12.8 128.0, 12.8 131.2, 25.6 131.2 A 3.2 3.2 0 0 0 27.474516600406098 126.1254833995939 A 6.4 6.4 0 1 1 36.5254833995939 126.1254833995939 A 3.2 3.2 0 0 0 38.4 131.2 C 51.2 131.2, 51.2 128.0, 64.0 128.0 C 75.52 128.0, 75.52 132.48, 87.03999999999999 132.48 A 4.4799999999999995 4.4799999999999995 0 0 0 89.66432324056854 125.37567675943147 A 8.959999999999999 8.959999999999999 0 1 1 102.33567675943146 125.37567675943147 A 4.4799999999999995 4.4799999999999995 0 0 0 104.96000000000001 132.48 C 116.47999999999999 132.48, 116.47999999999999 128.0, 128.0 128.0 C 140.8 128.0, 140.8 131.2, 153.6 131.2 A 3.2 3.2 0 0 0 155.4745166004061 126.1254833995939 A 6.4 6.4 0 1 1 164.5254833995939 126.1254833995939 A 3.2 3.2 0 0 0 166.4 131.2 C 179.2 131.2, 179.2 128.0, 192.0 128.0 L 194.56 128.0 M -2.56 192.0 L 0.0 192.0 L 64.0 192.0 L 128.0 192.0 L 192.0 192.0 L 194.56 192.0"/></g></svg>