<svg width="256" height="256" xmlns="http://www.w3.org/2000/svg"><g transform="translate(32.0 32.0)"><path fill="none" stroke="black" d="M 0.0 -2.56 L 0.0 0.0 L 0.0 64.0 L 0.0 128.0 L 0.0 192.0 L 0.0 194.56 M 64.0 -2.56 L 64.0 0.0 C 64.0 7.999999999999999, 67.2 7.999999999999999, 67.2 15.999999999999998 A 3.2 3.2 0 0 1 62.125483399593904 17.874516600406096 A 6.4 6.4 0 1 0 62.125483399593904 26.9254833995939 A 3.2 3.2 0 0 1 67.2 28.799999999999997 C 67.2 32.0, 60.8 32.0, 60.8 35.2 A 3.2 3.2 0 0 0 65.8745166004061 37.0745166004061 A 6.4 6.4 0 1 1 65.8745166004061 46.125483399593904 A 3.2 3.2 0 0 0 60.8 48.0 C 60.8 56.0, 64.0 56.0, 64.0 64.0 C 64.0 72.0, 60.8 72.0, 60.8 80.0 A 3.2 3.2 0 0 0 65.8745166004061 81.8745166004061 A 6.4 6.4 0 1 1 65.8745166004061 90.9254833995939 A 3.2 3.2 0 0 0 60.8 92.8 C 60.8 110.4, 64.0 110.4, 64.0 128.0 C 64.0 140.8, 67.2 140.8, 67.2 153.6 A 3.2 3.2 0 0 1 62.125483399593904 155.4745166004061 A 6.4 6.4 0 1 0 62.125483399593904 164.5254833995939 A 3.2 3.2 0 0 1 67.2 166.4 C 67.2 179.2, 64.0 179.2, 64.0 192.0 L 64.0 194.56 M 128.0 -2.56 L 128.0 0.0 C 128.0 12.8, 131.2 12.8, 131.2 25.6 A 3.2 3.2 0 0 1 126.1254833995939 27.474516600406098 A 6.4 6.4 0 1 0 126.1254833995939 36.5254833995939 A 3.2 3.2 0 0 1 131.2 38.4 C 131.2 51.2, 128.0 51.2, 128.0 64.0 C 128.0 81.6, 131.2 81.6, 131.2 99.2 A 3.2 3.2 0 0 1 126.1254833995939 101.0745166004061 A 6.4 6.4 0 1 0 126.1254833995939 110.1254833995939 A 3.2 3.2 0 0 1 131.2 112.0 C 131.2 120.0, 128.0 120.0, 128.0 128.0 C 128.0 140.8, 131.2 140.8, 131.2 153.6 A 3.2 3.2 0 0 1 126.1254833995939 155.4745166004061 A 6.4 6.4 0 1 0 126.1254833995939 164.5254833995939 A 3.2 3.2 0 0 1 131.2 166.4 C 131.2 179.2, 128.0 179.2, 128.0 192.0 L 128.0 194.56 M 192.0 -2.56 L 192.0 0.0 L 192.0 64.0 L 192.0 128.0 L 192.0 192.0 L 192.0 194.56 M -2.56 0.0 L 0.0 0.0 L 64.0 0.0 L 128.0 0.0 L 192.0 0.0 L 194.56 0.0 M -2.56 64.0 L 0.0 64.0 C 7.999999999999999 64.0, 7.999999999999999 67.2, 15.999999999999998 67.2 A 3.2 3.2 0 0 0 17.874516600406096 62.125483399593904 A 6.4 6.4 0 1 1 26.9254833995939 62.125483399593904 A 3.2 3.2 0 0 0 28.799999999999997 67.2 C 32.0 67.2, 32.0 60.8, 35.2 60.8 A 3.2 3.2 0 0 1 37.0745166004061 65.8745166004061 A 6.4 6.4 0 1 0 46.125483399593904 65.8745166004061 A 3.2 3.2 0 0 1 48.0 60.8 C 56.0 60.8, 56.0 64.0, 64.0 64.0 C 81.6 64.0, 81.6 60.8, 99.2 60.8 A 3.2 3.2 0 0 1 101.0745166004061 65.8745166004061 A 6.4 6.4 0 1 0 110.1254833995939 65.8745166004061 A 3.2 3.2 0 0 1 112.0 60.8 C 120.0 60.8, 120.0 64.0, 128.0 64.0 C 136.0 64.0, 136.0 67.2, 144.0 67.2 A 3.2 3.2 0 0 0 145.87451660040608 62.125483399593904 A 6.4 6.4 0 1 1 154.9254833995939 62.125483399593904 A 3.2 3.2 0 0 0 156.8 67.2 L 163.2 67.2 A 3.2 3.2 0 0 0 165.0745166004061 62.125483399593904 A 6.4 6.4 0 1 1 174.12548339959392 62.125483399593904 A 3.2 3.2 0 0 0 176.0 67.2 C 184.0 67.2, 184.0 64.0, 192.0 64.0 L 194.56 64.0 M -2.56 128.0 L 0.0 128.0 C 12.8 128.0, 12.8 131.2, 25.6 131.2 A 3.2 3.2 0 0 0 27.474516600406098 126.1254833995939 A 6.4 6.4 0 1 1 36.5254833995939 126.1254833995939 A 3.2 3.2 0 0 0 38.4 131.2 C 51.2 131.2, 51.2 128.0, 64.0 128.0 C 72.0 128.0, 72.0 131.2, 80.0 131.2 A 3.2 3.2 0 0 0 81.8745166004061 126.1254833995939 A 6.4 6.4 0 1 1 90.9254833995939 126.1254833995939 A 3.2 3.2 0 0 0 92.8 131.2 C 110.4 131.2, 110.4 128.0, 128.0 128.0 C 140.8 128.0, 140.8 124.8, 153.6 124.8 A 3.2 3.2 0 0 1 155.4745166004061 129.87451660040608 A 6.4 6.4 0 1 0 164.5254833995939 129.87451660040608 A 3.2 3.2 0 0 1 166.4 124.8 C 179.2 124.8, 179.2 128.0, 192.0 128.0 L 194.56 128.0 M -2.56 192.0 L 0.0 192.0 L 64.0 192.0 L 128.0 192.0 L 192.0 192.0 L 194.56 192.0"/></g></svg>