<svg width="320" height="320" xmlns="http://www.w3.org/2000/svg"><g transform="translate(32.0 32.0)"><path fill="none" stroke="black" d="M 0.0 -2.56 L 0.0 0.0 L 0.0 64.0 L 0.0 128.0 L 0.0 192.0 L 0.0 256.0 L 0.0 258.56 M 64.0 -2.56 L 64.0 0.0 C 64.0 17.6, 60.8 17.6, 60.8 35.2 A 3.2 3.2 0 0 0 65.8745166004061 37.0745166004061 A 6.4 6.4 0 1 1 65.8745166004061 46.125483399593904 A 3.2 3.2 0 0 0 60.8 48.0 C 60.8 56.0, 64.0 56.0, 64.0 64.0 C 64.0 81.6, 60.8 81.6, 60.8 99.2 A 3.2 3.2 0 0 0 65.8745166004061 101.0745166004061 A 6.4 6.4 0 1 1 65.8745166004061 110.1254833995939 A 3.2 3.2 0 0 0 60.8 112.0 C 60.8 120.0, 64.0 120.0, 64.0 128.0 C 64.0 136.0, 60.8 136.0, 60.8 144.0 A 3.2 3.2 0 0 0 65.8745166004061 145.87451660040608 A 6.4 6.4 0 1 1 65.8745166004061 154.9254833995939 A 3.2 3.2 0 0 0 60.8 156.8 C 60.8 174.4, 64.0 174.4, 64.0 192.0 C 64.0 209.6, 60.8 209.6, 60.8 227.2 A 3.2 3.2 0 0 0 65.8745166004061 229.0745166004061 A 6.4 6.4 0 1 1 65.8745166004061 238.12548339959392 A 3.2 3.2 0 0 0 60.8 240.0 C 60.8 248.0, 64.0 248.0, 64.0 256.0 L 64.0 258.56 M 128.0 -2.56 L 128.0 0.0 C 128.0 7.999999999999999, 131.2 7.999999999999999, 131.2 15.999999999999998 A 3.2 3.2 0 0 1 126.1254833995939 17.874516600406096 A 6.4 6.4 0 1 0 126.1254833995939 26.9254833995939 A 3.2 3.2 0 0 1 131.2 28.799999999999997 L 131.2 35.2 A 3.2 3.2 0 0 1 126.1254833995939 37.0745166004061 A 6.4 6.4 0 1 0 126.1254833995939 46.125483399593904 A 3.2 3.2 0 0 1 131.2 48.0 C 131.2 56.0, 128.0 56.0, 128.0 64.0 C 128.0 72.0, 131.2 72.0, 131.2 80.0 A 3.2 3.2 0 0 1 126.1254833995939 81.8745166004061 A 6.4 6.4 0 1 0 126.1254833995939 90.9254833995939 A 3.2 3.2 0 0 1 131.2 92.8 C 131.2 96.0, 124.8 96.0, 124.8 99.2 A 3.2 3.2 0 0 0 129.87451660040608 101.0745166004061 A 6.4 6.4 0 1 1 129.87451660040608 110.1254833995939 A 3.2 3.2 0 0 0 124.8 112.0 C 124.8 120.0, 128.0 120.0, 128.0 128.0 C 128.0 145.6, 131.2 145.6, 131.2 163.2 A 3.2 3.2 0 0 1 126.1254833995939 165.0745166004061 A 6.4 6.4 0 1 0 126.1254833995939 174.12548339959392 A 3.2 3.2 0 0 1 131.2 176.0 C 131.2 184.0, 128.0 184.0, 128.0 192.0 C 128.0 209.6, 124.8 209.6, 124.8 227.2 A 3.2 3.2 0 0 0 129.87451660040608 229.0745166004061 A 6.4 6.4 0 1 1 129.87451660040608 238.12548339959392 A 3.2 3.2 0 0 0 124.8 240.0 C 124.8 248.0, 128.0 248.0, 128.0 256.0 L 128.0 258.56 M 192.0 -2.56 L 192.0 0.0 C 192.0 17.6, 188.8 17.6, 188.8 35.2 A 3.2 3.2 0 0 0 193.87451660040608 37.0745166004061 A 6.4 6.4 0 1 1 193.87451660040608 46.125483399593904 A 3.2 3.2 0 0 0 188.8 48.0 C 188.8 56.0, 192.0 56.0, 192.0 64.0 C 192.0 72.0, 195.2 72.0, 195.2 80.0 A 3.2 3.2 0 0 1 190.12548339959392 81.8745166004061 A 6.4 6.4 0 1 0 190.12548339959392 90.9254833995939 A 3.2 3.2 0 0 1 195.2 92.8 C 195.2 96.0, 188.8 96.0, 188.8 99.2 A 3.2 3.2 0 0 0 193.87451660040608 101.0745166004061 A 6.4 6.4 0 1 1 193.87451660040608 110.1254833995939 A 3.2 3.2 0 0 0 188.8 112.0 C 188.8 120.0, 192.0 120.0, 192.0 128.0 C 192.0 145.6, 195.2 145.6, 195.2 163.2 A 3.2 3.2 0 0 1 190.12548339959392 165.0745166004061 A 6.4 6.4 0 1 0 190.12548339959392 174.12548339959392 A 3.2 3.2 0 0 1 195.2 176.0 C 195.2 184.0, 192.0 184.0, 192.0 192.0 C 192.0 200.0, 195.2 200.0, 195.2 208.0 A 3.2 3.2 0 0 1 190.12548339959392 209.87451660040608 A 6.4 6.4 0 1 0 190.12548339959392 218.9254833995939 A 3.2 3.2 0 0 1 195.2 220.8 L 195.2 227.2 A 3.2 3.2 0 0 1 190.12548339959392 229.0745166004061 A 6.4 6.4 0 1 0 190.12548339959392 238.12548339959392 A 3.2 3.2 0 0 1 195.2 240.0 C 195.2 248.0, 192.0 248.0, 192.0 256.0 L 192.0 258.56 M 256.0 -2.56 L 256.0 0.0 L 256.0 64.0 L 256.0 128.0 L 256.0 192.0 L 256.0 256.0 L 256.0 258.56 M -2.56 0.0 L 0.0 0.0 L 64.0 0.0 L 128.0 0.0 L 192.0 0.0 L 256.0 0.0 L 258.56 0.0 M -2.56 64.0 L 0.0 64.0 C 7.999999999999999 64.0, 7.999999999999999 60.8, 15.999999999999998 60.8 A 3.2 3.2 0 0 1 17.874516600406096 65.8745166004061 A 6.4 6.4 0 1 0 26.9254833995939 65.8745166004061 A 3.2 3.2 0 0 1 28.799999999999997 60.8 C 46.400000000000006 60.8, 46.400000000000006 64.0, 64.0 64.0 C 72.0 64.0, 72.0 60.8, 80.0 60.8 A 3.2 3.2 0 0 1 81.8745166004061 65.8745166004061 A 6.4 6.4 0 1 0 90.9254833995939 65.8745166004061 A 3.2 3.2 0 0 1 92.8 60.8 C 110.4 60.8, 110.4 64.0, 128.0 64.0 C 145.6 64.0, 145.6 67.2, 163.2 67.2 A 3.2 3.2 0 0 0 165.0745166004061 62.125483399593904 A 6.4 6.4 0 1 1 174.12548339959392 62.125483399593904 A 3.2 3.2 0 0 0 176.0 67.2 C 184.0 67.2, 184.0 64.0, 192.0 64.0 C 209.6 64.0, 209.6 60.8, 227.2 60.8 A 3.2 3.2 0 0 1 229.0745166004061 65.8745166004061 A 6.4 6.4 0 1 0 238.12548339959392 65.8745166004061 A 3.2 3.2 0 0 1 240.0 60.8 C 248.0 60.8, 248.0 64.0, 256.0 64.0 L 258.56 64.0 M -2.56 128.0 L 0.0 128.0 C 7.999999999999999 128.0, 7.999999999999999 131.2, 15.999999999999998 131.2 A 3.2 3.2 0 0 0 17.874516600406096 126.1254833995939 A 6.4 6.4 0 1 1 26.9254833995939 126.1254833995939 A 3.2 3.2 0 0 0 28.799999999999997 131.2 C 32.0 131.2, 32.0 124.8, 35.2 124.8 A 3.2 3.2 0 0 1 37.0745166004061 129.87451660040608 A 6.4 6.4 0 1 0 46.125483399593904 129.87451660040608 A 3.2 3.2 0 0 1 48.0 124.8 C 56.0 124.8, 56.0 128.0, 64.0 128.0 C 72.0 128.0, 72.0 124.8, 80.0 124.8 A 3.2 3.2 0 0 1 81.8745166004061 129.87451660040608 A 6.4 6.4 0 1 0 90.9254833995939 129.87451660040608 A 3.2 3.2 0 0 1 92.8 124.8 C 110.4 124.8, 110.4 128.0, 128.0 128.0 C 136.0 128.0, 136.0 131.2, 144.0 131.2 A 3.2 3.2 0 0 0 145.87451660040608 126.1254833995939 A 6.4 6.4 0 1 1 154.9254833995939 126.1254833995939 A 3.2 3.2 0 0 0 156.8 131.2 C 160.0 131.2, 160.0 124.8, 163.2 124.8 A 3.2 3.2 0 0 1 165.0745166004061 129.87451660040608 A 6.4 6.4 0 1 0 174.12548339959392 129.87451660040608 A 3.2 3.2 0 0 1 176.0 124.8 C 184.0 124.8, 184.0 128.0, 192.0 128.0 C 200.0 128.0, 200.0 131.2, 208.0 131.2 A 3.2 3.2 0 0 0 209.87451660040608 126.1254833995939 A 6.4 6.4 0 1 1 218.9254833995939 126.1254833995939 A 3.2 3.2 0 0 0 220.8 131.2 L 227.2 131.2 A 3.2 3.2 0 0 0 229.0745166004061 126.1254833995939 A 6.4 6.4 0 1 1 238.12548339959392 126.1254833995939 A 3.2 3.2 0 0 0 240.0 131.2 C 248.0 131.2, 248.0 128.0, 256.0 128.0 L 258.56 128.0 M -2.56 192.0 L 0.0 192.0 C 7.999999999999999 192.0, 7.999999999999999 188.8, 15.999999999999998 188.8 A 3.2 3.2 0 0 1 17.874516600406096 193.87451660040608 A 6.4 6.4 0 1 0 26.9254833995939 193.87451660040608 A 3.2 3.2 0 0 1 28.799999999999997 188.8 C 46.400000000000006 188.8, 46.400000000000006 192.0, 64.0 192.0 C 72.0 192.0, 72.0 188.8, 80.0 188.8 A 3.2 3.2 0 0 1 81.8745166004061 193.87451660040608 A 6.4 6.4 0 1 0 90.9254833995939 193.87451660040608 A 3.2 3.2 0 0 1 92.8 188.8 C 110.4 188.8, 110.4 192.0, 128.0 192.0 C 136.0 192.0, 136.0 188.8, 144.0 188.8 A 3.2 3.2 0 0 1 145.87451660040608 193.87451660040608 A 6.4 6.4 0 1 0 154.9254833995939 193.87451660040608 A 3.2 3.2 0 0 1 156.8 188.8 C 174.4 188.8, 174.4 192.0, 192.0 192.0 C 200.0 192.0, 200.0 195.2, 208.0 195.2 A 3.2 3.2 0 0 0 209.87451660040608 190.12548339959392 A 6.4 6.4 0 1 1 218.9254833995939 190.12548339959392 A 3.2 3.2 0 0 0 220.8 195.2 C 224.0 195.2, 224.0 188.8, 227.2 188.8 A 3.2 3.2 0 0 1 229.0745166004061 193.87451660040608 A 6.4 6.4 0 1 0 238.12548339959392 193.87451660040608 A 3.2 3.2 0 0 1 240.0 188.8 C 248.0 188.8, 248.0 192.0, 256.0 192.0 L 258.56 192.0 M -2.56 256.0 L 0.0 256.0 L 64.0 256.0 L 128.0 256.0 L 192.0 256.0 L 256.0 256.0 L 258.56 256.0"/></g></svg>