<svg width="384" height="384" xmlns="http://www.w3.org/2000/svg"><g transform="translate(32.0 32.0)"><path fill="none" stroke="black" d="M 0.0 -2.56 L 0.0 0.0 L 0.0 64.0 L 0.0 128.0 L 0.0 192.0 L 0.0 256.0 L 0.0 320.0 L 0.0 322.56 M 64.0 -2.56 L 64.0 0.0 C 64.0 7.999999999999999, 60.8 7.999999999999999, 60.8 15.999999999999998 A 3.2 3.2 0 0 0 65.8745166004061 17.874516600406096 A 6.4 6.4 0 1 1 65.8745166004061 26.9254833995939 A 3.2 3.2 0 0 0 60.8 28.799999999999997 C 60.8 46.400000000000006, 64.0 46.400000000000006, 64.0 64.0 C 64.0 75.52, 59.52 75.52, 59.52 87.03999999999999 A 4.4799999999999995 4.4799999999999995 0 0 0 66.62432324056853 89.66432324056854 A 8.959999999999999 8.959999999999999 0 1 1 66.62432324056853 102.33567675943146 A 4.4799999999999995 4.4799999999999995 0 0 0 59.52 104.96000000000001 C 59.52 116.47999999999999, 64.0 116.47999999999999, 64.0 128.0 C 64.0 145.6, 67.2 145.6, 67.2 163.2 A 3.2 3.2 0 0 1 62.125483399593904 165.0745166004061 A 6.4 6.4 0 1 0 62.125483399593904 174.12548339959392 A 3.2 3.2 0 0 1 67.2 176.0 C 67.2 184.0, 64.0 184.0, 64.0 192.0 C 64.0 204.8, 67.2 204.8, 67.2 217.6 A 3.2 3.2 0 0 1 62.125483399593904 219.4745166004061 A 6.4 6.4 0 1 0 62.125483399593904 228.5254833995939 A 3.2 3.2 0 0 1 67.2 230.4 C 67.2 243.2, 64.0 243.2, 64.0 256.0 C 64.0 264.0, 67.2 264.0, 67.2 272.0 A 3.2 3.2 0 0 1 62.125483399593904 273.8745166004061 A 6.4 6.4 0 1 0 62.125483399593904 282.9254833995939 A 3.2 3.2 0 0 1 67.2 284.8 C 67.2 302.4, 64.0 302.4, 64.0 320.0 L 64.0 322.56 M 128.0 -2.56 L 128.0 0.0 C 128.0 7.999999999999999, 124.8 7.999999999999999, 124.8 15.999999999999998 A 3.2 3.2 0 0 0 129.87451660040608 17.874516600406096 A 6.4 6.4 0 1 1 129.87451660040608 26.9254833995939 A 3.2 3.2 0 0 0 124.8 28.799999999999997 L 124.8 35.2 A 3.2 3.2 0 0 0 129.87451660040608 37.0745166004061 A 6.4 6.4 0 1 1 129.87451660040608 46.125483399593904 A 3.2 3.2 0 0 0 124.8 48.0 C 124.8 56.0, 128.0 56.0, 128.0 64.0 C 128.0 75.52, 132.48 75.52, 132.48 87.03999999999999 A 4.4799999999999995 4.4799999999999995 0 0 1 125.37567675943147 89.66432324056854 A 8.959999999999999 8.959999999999999 0 1 0 125.37567675943147 102.33567675943146 A 4.4799999999999995 4.4799999999999995 0 0 1 132.48 104.96000000000001 C 132.48 116.47999999999999, 128.0 116.47999999999999, 128.0 128.0 L 128.0 192.0 C 128.0 203.52, 123.52 203.52, 123.52 215.04 A 4.4799999999999995 4.4799999999999995 0 0 0 130.62432324056854 217.66432324056854 A 8.959999999999999 8.959999999999999 0 1 1 130.62432324056854 230.33567675943146 A 4.4799999999999995 4.4799999999999995 0 0 0 123.52 232.96 C 123.52 244.48, 128.0 244.48, 128.0 256.0 C 128.0 264.0, 124.8 264.0, 124.8 272.0 A 3.2 3.2 0 0 0 129.87451660040608 273.8745166004061 A 6.4 6.4 0 1 1 129.87451660040608 282.9254833995939 A 3.2 3.2 0 0 0 124.8 284.8 C 124.8 302.4, 128.0 302.4, 128.0 320.0 L 128.0 322.56 M 192.0 -2.56 L 192.0 0.0 C 192.0 7.999999999999999, 188.8 7.999999999999999, 188.8 15.999999999999998 A 3.2 3.2 0 0 0 193.87451660040608 17.874516600406096 A 6.4 6.4 0 1 1 193.87451660040608 26.9254833995939 A 3.2 3.2 0 0 0 188.8 28.799999999999997 L 188.8 35.2 A 3.2 3.2 0 0 0 193.87451660040608 37.0745166004061 A 6.4 6.4 0 1 1 193.87451660040608 46.125483399593904 A 3.2 3.2 0 0 0 188.8 48.0 C 188.8 56.0, 192.0 56.0, 192.0 64.0 C 192.0 75.52, 187.52 75.52, 187.52 87.03999999999999 A 4.4799999999999995 4.4799999999999995 0 0 0 194.62432324056854 89.66432324056854 A 8.959999999999999 8.959999999999999 0 1 1 194.62432324056854 102.33567675943146 A 4.4799999999999995 4.4799999999999995 0 0 0 187.52 104.96000000000001 C 187.52 116.47999999999999, 192.0 116.47999999999999, 192.0 128.0 L 192.0 192.0 C 192.0 204.8, 195.2 204.8, 195.2 217.6 A 3.2 3.2 0 0 1 190.12548339959392 219.4745166004061 A 6.4 6.4 0 1 0 190.12548339959392 228.5254833995939 A 3.2 3.2 0 0 1 195.2 230.4 C 195.2 243.2, 192.0 243.2, 192.0 256.0 C 192.0 273.6, 195.2 273.6, 195.2 291.2 A 3.2 3.2 0 0 1 190.12548339959392 293.0745166004061 A 6.4 6.4 0 1 0 190.12548339959392 302.1254833995939 A 3.2 3.2 0 0 1 195.2 304.0 C 195.2 312.0, 192.0 312.0, 192.0 320.0 L 192.0 322.56 M 256.0 -2.56 L 256.0 0.0 C 256.0 7.999999999999999, 252.8 7.999999999999999, 252.8 15.999999999999998 A 3.2 3.2 0 0 0 257.8745166004061 17.874516600406096 A 6.4 6.4 0 1 1 257.8745166004061 26.9254833995939 A 3.2 3.2 0 0 0 252.8 28.799999999999997 C 252.8 46.400000000000006, 256.0 46.400000000000006, 256.0 64.0 C 256.0 75.52, 260.48 75.52, 260.48 87.03999999999999 A 4.4799999999999995 4.4799999999999995 0 0 1 253.37567675943146 89.66432324056854 A 8.959999999999999 8.959999999999999 0 1 0 253.37567675943146 102.33567675943146 A 4.4799999999999995 4.4799999999999995 0 0 1 260.48 104.96000000000001 C 260.48 116.47999999999999, 256.0 116.47999999999999, 256.0 128.0 C 256.0 145.6, 259.2 145.6, 259.2 163.2 A 3.2 3.2 0 0 1 254.12548339959392 165.0745166004061 A 6.4 6.4 0 1 0 254.12548339959392 174.12548339959392 A 3.2 3.2 0 0 1 259.2 176.0 C 259.2 184.0, 256.0 184.0, 256.0 192.0 C 256.0 204.8, 259.2 204.8, 259.2 217.6 A 3.2 3.2 0 0 1 254.12548339959392 219.4745166004061 A 6.4 6.4 0 1 0 254.12548339959392 228.5254833995939 A 3.2 3.2 0 0 1 259.2 230.4 C 259.2 243.2, 256.0 243.2, 256.0 256.0 C 256.0 264.0, 252.8 264.0, 252.8 272.0 A 3.2 3.2 0 0 0 257.8745166004061 273.8745166004061 A 6.4 6.4 0 1 1 257.8745166004061 282.9254833995939 A 3.2 3.2 0 0 0 252.8 284.8 C 252.8 302.4, 256.0 302.4, 256.0 320.0 L 256.0 322.56 M 320.0 -2.56 L 320.0 0.0 L 320.0 64.0 L 320.0 128.0 L 320.0 192.0 L 320.0 256.0 L 320.0 320.0 L 320.0 322.56 M -2.56 0.0 L 0.0 0.0 L 64.0 0.0 L 128.0 0.0 L 192.0 0.0 L 256.0 0.0 L 320.0 0.0 L 322.56 0.0 M -2.56 64.0 L 0.0 64.0 C 17.6 64.0, 17.6 67.2, 35.2 67.2 A 3.2 3.2 0 0 0 37.0745166004061 62.125483399593904 A 6.4 6.4 0 1 1 46.125483399593904 62.125483399593904 A 3.2 3.2 0 0 0 48.0 67.2 C 56.0 67.2, 56.0 64.0, 64.0 64.0 C 75.52 64.0, 75.52 59.52, 87.03999999999999 59.52 A 4.4799999999999995 4.4799999999999995 0 0 1 89.66432324056854 66.62432324056853 A 8.959999999999999 8.959999999999999 0 1 0 102.33567675943146 66.62432324056853 A 4.4799999999999995 4.4799999999999995 0 0 1 104.96000000000001 59.52 C 116.47999999999999 59.52, 116.47999999999999 64.0, 128.0 64.0 C 136.0 64.0, 136.0 67.2, 144.0 67.2 A 3.2 3.2 0 0 0 145.87451660040608 62.125483399593904 A 6.4 6.4 0 1 1 154.9254833995939 62.125483399593904 A 3.2 3.2 0 0 0 156.8 67.2 L 163.2 67.2 A 3.2 3.2 0 0 0 165.0745166004061 62.125483399593904 A 6.4 6.4 0 1 1 174.12548339959392 62.125483399593904 A 3.2 3.2 0 0 0 176.0 67.2 C 184.0 67.2, 184.0 64.0, 192.0 64.0 C 204.8 64.0, 204.8 60.8, 217.6 60.8 A 3.2 3.2 0 0 1 219.4745166004061 65.8745166004061 A 6.4 6.4 0 1 0 228.5254833995939 65.8745166004061 A 3.2 3.2 0 0 1 230.4 60.8 C 243.2 60.8, 243.2 64.0, 256.0 64.0 C 273.6 64.0, 273.6 60.8, 291.2 60.8 A 3.2 3.2 0 0 1 293.0745166004061 65.8745166004061 A 6.4 6.4 0 1 0 302.1254833995939 65.8745166004061 A 3.2 3.2 0 0 1 304.0 60.8 C 312.0 60.8, 312.0 64.0, 320.0 64.0 L 322.56 64.0 M -2.56 128.0 L 0.0 128.0 C 17.6 128.0, 17.6 131.2, 35.2 131.2 A 3.2 3.2 0 0 0 37.0745166004061 126.1254833995939 A 6.4 6.4 0 1 1 46.125483399593904 126.1254833995939 A 3.2 3.2 0 0 0 48.0 131.2 C 56.0 131.2, 56.0 128.0, 64.0 128.0 C 75.52 128.0, 75.52 123.52, 87.03999999999999 123.52 A 4.4799999999999995 4.4799999999999995 0 0 1 89.66432324056854 130.62432324056854 A 8.959999999999999 8.959999999999999 0 1 0 102.33567675943146 130.62432324056854 A 4.4799999999999995 4.4799999999999995 0 0 1 104.96000000000001 123.52 C 116.47999999999999 123.52, 116.47999999999999 128.0, 128.0 128.0 L 192.0 128.0 C 203.52 128.0, 203.52 123.52, 215.04 123.52 A 4.4799999999999995 4.4799999999999995 0 0 1 217.66432324056854 130.62432324056854 A 8.959999999999999 8.959999999999999 0 1 0 230.33567675943146 130.62432324056854 A 4.4799999999999995 4.4799999999999995 0 0 1 232.96 123.52 C 244.48 123.52, 244.48 128.0, 256.0 128.0 C 273.6 128.0, 273.6 124.8, 291.2 124.8 A 3.2 3.2 0 0 1 293.0745166004061 129.87451660040608 A 6.4 6.4 0 1 0 302.1254833995939 129.87451660040608 A 3.2 3.2 0 0 1 304.0 124.8 C 312.0 124.8, 312.0 128.0, 320.0 128.0 L 322.56 128.0 M -2.56 192.0 L 0.0 192.0 C 7.999999999999999 192.0, 7.999999999999999 195.2, 15.999999999999998 195.2 A 3.2 3.2 0 0 0 17.874516600406096 190.12548339959392 A 6.4 6.4 0 1 1 26.9254833995939 190.12548339959392 A 3.2 3.2 0 0 0 28.799999999999997 195.2 L 35.2 195.2 A 3.2 3.2 0 0 0 37.0745166004061 190.12548339959392 A 6.4 6.4 0 1 1 46.125483399593904 190.12548339959392 A 3.2 3.2 0 0 0 48.0 195.2 C 56.0 195.2, 56.0 192.0, 64.0 192.0 C 76.8 192.0, 76.8 188.8, 89.6 188.8 A 3.2 3.2 0 0 1 91.4745166004061 193.87451660040608 A 6.4 6.4 0 1 0 100.5254833995939 193.87451660040608 A 3.2 3.2 0 0 1 102.4 188.8 C 115.2 188.8, 115.2 192.0, 128.0 192.0 L 192.0 192.0 C 204.8 192.0, 204.8 195.2, 217.6 195.2 A 3.2 3.2 0 0 0 219.4745166004061 190.12548339959392 A 6.4 6.4 0 1 1 228.5254833995939 190.12548339959392 A 3.2 3.2 0 0 0 230.4 195.2 C 243.2 195.2, 243.2 192.0, 256.0 192.0 C 264.0 192.0, 264.0 195.2, 272.0 195.2 A 3.2 3.2 0 0 0 273.8745166004061 190.12548339959392 A 6.4 6.4 0 1 1 282.9254833995939 190.12548339959392 A 3.2 3.2 0 0 0 284.8 195.2 L 291.2 195.2 A 3.2 3.2 0 0 0 293.0745166004061 190.12548339959392 A 6.4 6.4 0 1 1 302.1254833995939 190.12548339959392 A 3.2 3.2 0 0 0 304.0 195.2 C 312.0 195.2, 312.0 192.0, 320.0 192.0 L 322.56 192.0 M -2.56 256.0 L 0.0 256.0 C 7.999999999999999 256.0, 7.999999999999999 252.8, 15.999999999999998 252.8 A 3.2 3.2 0 0 1 17.874516600406096 257.8745166004061 A 6.4 6.4 0 1 0 26.9254833995939 257.8745166004061 A 3.2 3.2 0 0 1 28.799999999999997 252.8 C 46.400000000000006 252.8, 46.400000000000006 256.0, 64.0 256.0 C 76.8 256.0, 76.8 252.8, 89.6 252.8 A 3.2 3.2 0 0 1 91.4745166004061 257.8745166004061 A 6.4 6.4 0 1 0 100.5254833995939 257.8745166004061 A 3.2 3.2 0 0 1 102.4 252.8 C 115.2 252.8, 115.2 256.0, 128.0 256.0 C 145.6 256.0, 145.6 252.8, 163.2 252.8 A 3.2 3.2 0 0 1 165.0745166004061 257.8745166004061 A 6.4 6.4 0 1 0 174.12548339959392 257.8745166004061 A 3.2 3.2 0 0 1 176.0 252.8 C 184.0 252.8, 184.0 256.0, 192.0 256.0 C 203.52 256.0, 203.52 251.52, 215.04 251.52 A 4.4799999999999995 4.4799999999999995 0 0 1 217.66432324056854 258.6243232405685 A 8.959999999999999 8.959999999999999 0 1 0 230.33567675943146 258.6243232405685 A 4.4799999999999995 4.4799999999999995 0 0 1 232.96 251.52 C 244.48 251.52, 244.48 256.0, 256.0 256.0 C 264.0 256.0, 264.0 252.8, 272.0 252.8 A 3.2 3.2 0 0 1 273.8745166004061 257.8745166004061 A 6.4 6.4 0 1 0 282.9254833995939 257.8745166004061 A 3.2 3.2 0 0 1 284.8 252.8 C 302.4 252.8, 302.4 256.0, 320.0 256.0 L 322.56 256.0 M -2.56 320.0 L 0.0 320.0 L 64.0 320.0 L 128.0 320.0 L 192.0 320.0 L 256.0 320.0 L 320.0 320.0 L 322.56 320.0"/></g></svg>