<svg width="384" height="384" xmlns="http://www.w3.org/2000/svg"><g transform="translate(32.0 32.0)"><path fill="none" stroke="black" d="M 0.0 -2.56 L 0.0 0.0 L 0.0 64.0 L 0.0 128.0 L 0.0 192.0 L 0.0 256.0 L 0.0 320.0 L 0.0 322.56 M 64.0 -2.56 L 64.0 0.0 C 64.0 7.999999999999999, 67.2 7.999999999999999, 67.2 15.999999999999998 A 3.2 3.2 0 0 1 62.125483399593904 17.874516600406096 A 6.4 6.4 0 1 0 62.125483399593904 26.9254833995939 A 3.2 3.2 0 0 1 67.2 28.799999999999997 C 67.2 46.400000000000006, 64.0 46.400000000000006, 64.0 64.0 C 64.0 72.0, 67.2 72.0, 67.2 80.0 A 3.2 3.2 0 0 1 62.125483399593904 81.8745166004061 A 6.4 6.4 0 1 0 62.125483399593904 90.9254833995939 A 3.2 3.2 0 0 1 67.2 92.8 C 67.2 110.4, 64.0 110.4, 64.0 128.0 C 64.0 140.8, 60.8 140.8, 60.8 153.6 A 3.2 3.2 0 0 0 65.8745166004061 155.4745166004061 A 6.4 6.4 0 1 1 65.8745166004061 164.5254833995939 A 3.2 3.2 0 0 0 60.8 166.4 C 60.8 179.2, 64.0 179.2, 64.0 192.0 C 64.0 200.0, 60.8 200.0, 60.8 208.0 A 3.2 3.2 0 0 0 65.8745166004061 209.87451660040608 A 6.4 6.4 0 1 1 65.8745166004061 218.9254833995939 A 3.2 3.2 0 0 0 60.8 220.8 C 60.8 224.0, 67.2 224.0, 67.2 227.2 A 3.2 3.2 0 0 1 62.125483399593904 229.0745166004061 A 6.4 6.4 0 1 0 62.125483399593904 238.12548339959392 A 3.2 3.2 0 0 1 67.2 240.0 C 67.2 248.0, 64.0 248.0, 64.0 256.0 C 64.0 264.0, 60.8 264.0, 60.8 272.0 A 3.2 3.2 0 0 0 65.8745166004061 273.8745166004061 A 6.4 6.4 0 1 1 65.8745166004061 282.9254833995939 A 3.2 3.2 0 0 0 60.8 284.8 C 60.8 302.4, 64.0 302.4, 64.0 320.0 L 64.0 322.56 M 128.0 -2.56 L 128.0 0.0 C 128.0 17.6, 131.2 17.6, 131.2 35.2 A 3.2 3.2 0 0 1 126.1254833995939 37.0745166004061 A 6.4 6.4 0 1 0 126.1254833995939 46.125483399593904 A 3.2 3.2 0 0 1 131.2 48.0 C 131.2 56.0, 128.0 56.0, 128.0 64.0 C 128.0 72.0, 124.8 72.0, 124.8 80.0 A 3.2 3.2 0 0 0 129.87451660040608 81.8745166004061 A 6.4 6.4 0 1 1 129.87451660040608 90.9254833995939 A 3.2 3.2 0 0 0 124.8 92.8 C 124.8 96.0, 131.2 96.0, 131.2 99.2 A 3.2 3.2 0 0 1 126.1254833995939 101.0745166004061 A 6.4 6.4 0 1 0 126.1254833995939 110.1254833995939 A 3.2 3.2 0 0 1 131.2 112.0 C 131.2 120.0, 128.0 120.0, 128.0 128.0 C 128.0 140.8, 124.8 140.8, 124.8 153.6 A 3.2 3.2 0 0 0 129.87451660040608 155.4745166004061 A 6.4 6.4 0 1 1 129.87451660040608 164.5254833995939 A 3.2 3.2 0 0 0 124.8 166.4 C 124.8 179.2, 128.0 179.2, 128.0 192.0 C 128.0 204.8, 124.8 204.8, 124.8 217.6 A 3.2 3.2 0 0 0 129.87451660040608 219.4745166004061 A 6.4 6.4 0 1 1 129.87451660040608 228.5254833995939 A 3.2 3.2 0 0 0 124.8 230.4 C 124.8 243.2, 128.0 243.2, 128.0 256.0 C 128.0 264.0, 131.2 264.0, 131.2 272.0 A 3.2 3.2 0 0 1 126.1254833995939 273.8745166004061 A 6.4 6.4 0 1 0 126.1254833995939 282.9254833995939 A 3.2 3.2 0 0 1 131.2 284.8 C 131.2 288.0, 124.8 288.0, 124.8 291.2 A 3.2 3.2 0 0 0 129.87451660040608 293.0745166004061 A 6.4 6.4 0 1 1 129.87451660040608 302.1254833995939 A 3.2 3.2 0 0 0 124.8 304.0 C 124.8 312.0, 128.0 312.0, 128.0 320.0 L 128.0 322.56 M 192.0 -2.56 L 192.0 0.0 C 192.0 7.999999999999999, 195.2 7.999999999999999, 195.2 15.999999999999998 A 3.2 3.2 0 0 1 190.12548339959392 17.874516600406096 A 6.4 6.4 0 1 0 190.12548339959392 26.9254833995939 A 3.2 3.2 0 0 1 195.2 28.799999999999997 L 195.2 35.2 A 3.2 3.2 0 0 1 190.12548339959392 37.0745166004061 A 6.4 6.4 0 1 0 190.12548339959392 46.125483399593904 A 3.2 3.2 0 0 1 195.2 48.0 C 195.2 56.0, 192.0 56.0, 192.0 64.0 C 192.0 81.6, 195.2 81.6, 195.2 99.2 A 3.2 3.2 0 0 1 190.12548339959392 101.0745166004061 A 6.4 6.4 0 1 0 190.12548339959392 110.1254833995939 A 3.2 3.2 0 0 1 195.2 112.0 C 195.2 120.0, 192.0 120.0, 192.0 128.0 L 192.0 192.0 C 192.0 204.8, 195.2 204.8, 195.2 217.6 A 3.2 3.2 0 0 1 190.12548339959392 219.4745166004061 A 6.4 6.4 0 1 0 190.12548339959392 228.5254833995939 A 3.2 3.2 0 0 1 195.2 230.4 C 195.2 243.2, 192.0 243.2, 192.0 256.0 C 192.0 273.6, 188.8 273.6, 188.8 291.2 A 3.2 3.2 0 0 0 193.87451660040608 293.0745166004061 A 6.4 6.4 0 1 1 193.87451660040608 302.1254833995939 A 3.2 3.2 0 0 0 188.8 304.0 C 188.8 312.0, 192.0 312.0, 192.0 320.0 L 192.0 322.56 M 256.0 -2.56 L 256.0 0.0 C 256.0 7.999999999999999, 252.8 7.999999999999999, 252.8 15.999999999999998 A 3.2 3.2 0 0 0 257.8745166004061 17.874516600406096 A 6.4 6.4 0 1 1 257.8745166004061 26.9254833995939 A 3.2 3.2 0 0 0 252.8 28.799999999999997 C 252.8 46.400000000000006, 256.0 46.400000000000006, 256.0 64.0 C 256.0 72.0, 259.2 72.0, 259.2 80.0 A 3.2 3.2 0 0 1 254.12548339959392 81.8745166004061 A 6.4 6.4 0 1 0 254.12548339959392 90.9254833995939 A 3.2 3.2 0 0 1 259.2 92.8 C 259.2 110.4, 256.0 110.4, 256.0 128.0 C 256.0 136.0, 259.2 136.0, 259.2 144.0 A 3.2 3.2 0 0 1 254.12548339959392 145.87451660040608 A 6.4 6.4 0 1 0 254.12548339959392 154.9254833995939 A 3.2 3.2 0 0 1 259.2 156.8 L 259.2 163.2 A 3.2 3.2 0 0 1 254.12548339959392 165.0745166004061 A 6.4 6.4 0 1 0 254.12548339959392 174.12548339959392 A 3.2 3.2 0 0 1 259.2 176.0 C 259.2 184.0, 256.0 184.0, 256.0 192.0 C 256.0 200.0, 259.2 200.0, 259.2 208.0 A 3.2 3.2 0 0 1 254.12548339959392 209.87451660040608 A 6.4 6.4 0 1 0 254.12548339959392 218.9254833995939 A 3.2 3.2 0 0 1 259.2 220.8 C 259.2 238.4, 256.0 238.4, 256.0 256.0 C 256.0 264.0, 252.8 264.0, 252.8 272.0 A 3.2 3.2 0 0 0 257.8745166004061 273.8745166004061 A 6.4 6.4 0 1 1 257.8745166004061 282.9254833995939 A 3.2 3.2 0 0 0 252.8 284.8 L 252.8 291.2 A 3.2 3.2 0 0 0 257.8745166004061 293.0745166004061 A 6.4 6.4 0 1 1 257.8745166004061 302.1254833995939 A 3.2 3.2 0 0 0 252.8 304.0 C 252.8 312.0, 256.0 312.0, 256.0 320.0 L 256.0 322.56 M 320.0 -2.56 L 320.0 0.0 L 320.0 64.0 L 320.0 128.0 L 320.0 192.0 L 320.0 256.0 L 320.0 320.0 L 320.0 322.56 M -2.56 0.0 L 0.0 0.0 L 64.0 0.0 L 128.0 0.0 L 192.0 0.0 L 256.0 0.0 L 320.0 0.0 L 322.56 0.0 M -2.56 64.0 L 0.0 64.0 C 7.999999999999999 64.0, 7.999999999999999 60.8, 15.999999999999998 60.8 A 3.2 3.2 0 0 1 17.874516600406096 65.8745166004061 A 6.4 6.4 0 1 0 26.9254833995939 65.8745166004061 A 3.2 3.2 0 0 1 28.799999999999997 60.8 C 32.0 60.8, 32.0 67.2, 35.2 67.2 A 3.2 3.2 0 0 0 37.0745166004061 62.125483399593904 A 6.4 6.4 0 1 1 46.125483399593904 62.125483399593904 A 3.2 3.2 0 0 0 48.0 67.2 C 56.0 67.2, 56.0 64.0, 64.0 64.0 C 76.8 64.0, 76.8 67.2, 89.6 67.2 A 3.2 3.2 0 0 0 91.4745166004061 62.125483399593904 A 6.4 6.4 0 1 1 100.5254833995939 62.125483399593904 A 3.2 3.2 0 0 0 102.4 67.2 C 115.2 67.2, 115.2 64.0, 128.0 64.0 C 140.8 64.0, 140.8 67.2, 153.6 67.2 A 3.2 3.2 0 0 0 155.4745166004061 62.125483399593904 A 6.4 6.4 0 1 1 164.5254833995939 62.125483399593904 A 3.2 3.2 0 0 0 166.4 67.2 C 179.2 67.2, 179.2 64.0, 192.0 64.0 C 204.8 64.0, 204.8 60.8, 217.6 60.8 A 3.2 3.2 0 0 1 219.4745166004061 65.8745166004061 A 6.4 6.4 0 1 0 228.5254833995939 65.8745166004061 A 3.2 3.2 0 0 1 230.4 60.8 C 243.2 60.8, 243.2 64.0, 256.0 64.0 C 273.6 64.0, 273.6 60.8, 291.2 60.8 A 3.2 3.2 0 0 1 293.0745166004061 65.8745166004061 A 6.4 6.4 0 1 0 302.1254833995939 65.8745166004061 A 3.2 3.2 0 0 1 304.0 60.8 C 312.0 60.8, 312.0 64.0, 320.0 64.0 L 322.56 64.0 M -2.56 128.0 L 0.0 128.0 C 12.8 128.0, 12.8 124.8, 25.6 124.8 A 3.2 3.2 0 0 1 27.474516600406098 129.87451660040608 A 6.4 6.4 0 1 0 36.5254833995939 129.87451660040608 A 3.2 3.2 0 0 1 38.4 124.8 C 51.2 124.8, 51.2 128.0, 64.0 128.0 C 76.8 128.0, 76.8 131.2, 89.6 131.2 A 3.2 3.2 0 0 0 91.4745166004061 126.1254833995939 A 6.4 6.4 0 1 1 100.5254833995939 126.1254833995939 A 3.2 3.2 0 0 0 102.4 131.2 C 115.2 131.2, 115.2 128.0, 128.0 128.0 C 140.8 128.0, 140.8 124.8, 153.6 124.8 A 3.2 3.2 0 0 1 155.4745166004061 129.87451660040608 A 6.4 6.4 0 1 0 164.5254833995939 129.87451660040608 A 3.2 3.2 0 0 1 166.4 124.8 C 179.2 124.8, 179.2 128.0, 192.0 128.0 C 204.8 128.0, 204.8 124.8, 217.6 124.8 A 3.2 3.2 0 0 1 219.4745166004061 129.87451660040608 A 6.4 6.4 0 1 0 228.5254833995939 129.87451660040608 A 3.2 3.2 0 0 1 230.4 124.8 C 243.2 124.8, 243.2 128.0, 256.0 128.0 C 268.8 128.0, 268.8 124.8, 281.6 124.8 A 3.2 3.2 0 0 1 283.4745166004061 129.87451660040608 A 6.4 6.4 0 1 0 292.5254833995939 129.87451660040608 A 3.2 3.2 0 0 1 294.4 124.8 C 307.2 124.8, 307.2 128.0, 320.0 128.0 L 322.56 128.0 M -2.56 192.0 L 0.0 192.0 C 7.999999999999999 192.0, 7.999999999999999 188.8, 15.999999999999998 188.8 A 3.2 3.2 0 0 1 17.874516600406096 193.87451660040608 A 6.4 6.4 0 1 0 26.9254833995939 193.87451660040608 A 3.2 3.2 0 0 1 28.799999999999997 188.8 L 35.2 188.8 A 3.2 3.2 0 0 1 37.0745166004061 193.87451660040608 A 6.4 6.4 0 1 0 46.125483399593904 193.87451660040608 A 3.2 3.2 0 0 1 48.0 188.8 C 56.0 188.8, 56.0 192.0, 64.0 192.0 C 76.8 192.0, 76.8 188.8, 89.6 188.8 A 3.2 3.2 0 0 1 91.4745166004061 193.87451660040608 A 6.4 6.4 0 1 0 100.5254833995939 193.87451660040608 A 3.2 3.2 0 0 1 102.4 188.8 C 115.2 188.8, 115.2 192.0, 128.0 192.0 L 192.0 192.0 C 204.8 192.0, 204.8 195.2, 217.6 195.2 A 3.2 3.2 0 0 0 219.4745166004061 190.12548339959392 A 6.4 6.4 0 1 1 228.5254833995939 190.12548339959392 A 3.2 3.2 0 0 0 230.4 195.2 C 243.2 195.2, 243.2 192.0, 256.0 192.0 C 264.0 192.0, 264.0 188.8, 272.0 188.8 A 3.2 3.2 0 0 1 273.8745166004061 193.87451660040608 A 6.4 6.4 0 1 0 282.9254833995939 193.87451660040608 A 3.2 3.2 0 0 1 284.8 188.8 C 302.4 188.8, 302.4 192.0, 320.0 192.0 L 322.56 192.0 M -2.56 256.0 L 0.0 256.0 C 17.6 256.0, 17.6 252.8, 35.2 252.8 A 3.2 3.2 0 0 1 37.0745166004061 257.8745166004061 A 6.4 6.4 0 1 0 46.125483399593904 257.8745166004061 A 3.2 3.2 0 0 1 48.0 252.8 C 56.0 252.8, 56.0 256.0, 64.0 256.0 C 76.8 256.0, 76.8 252.8, 89.6 252.8 A 3.2 3.2 0 0 1 91.4745166004061 257.8745166004061 A 6.4 6.4 0 1 0 100.5254833995939 257.8745166004061 A 3.2 3.2 0 0 1 102.4 252.8 C 115.2 252.8, 115.2 256.0, 128.0 256.0 C 136.0 256.0, 136.0 252.8, 144.0 252.8 A 3.2 3.2 0 0 1 145.87451660040608 257.8745166004061 A 6.4 6.4 0 1 0 154.9254833995939 257.8745166004061 A 3.2 3.2 0 0 1 156.8 252.8 L 163.2 252.8 A 3.2 3.2 0 0 1 165.0745166004061 257.8745166004061 A 6.4 6.4 0 1 0 174.12548339959392 257.8745166004061 A 3.2 3.2 0 0 1 176.0 252.8 C 184.0 252.8, 184.0 256.0, 192.0 256.0 C 209.6 256.0, 209.6 259.2, 227.2 259.2 A 3.2 3.2 0 0 0 229.0745166004061 254.12548339959392 A 6.4 6.4 0 1 1 238.12548339959392 254.12548339959392 A 3.2 3.2 0 0 0 240.0 259.2 C 248.0 259.2, 248.0 256.0, 256.0 256.0 C 273.6 256.0, 273.6 259.2, 291.2 259.2 A 3.2 3.2 0 0 0 293.0745166004061 254.12548339959392 A 6.4 6.4 0 1 1 302.1254833995939 254.12548339959392 A 3.2 3.2 0 0 0 304.0 259.2 C 312.0 259.2, 312.0 256.0, 320.0 256.0 L 322.56 256.0 M -2.56 320.0 L 0.0 320.0 L 64.0 320.0 L 128.0 320.0 L 192.0 320.0 L 256.0 320.0 L 320.0 320.0 L 322.56 320.0"/></g></svg>