<svg width="576" height="576" xmlns="http://www.w3.org/2000/svg"><g transform="translate(32.0 32.0)"><path fill="none" stroke="black" d="M 0.0 -2.56 L 0.0 0.0 L 0.0 64.0 L 0.0 128.0 L 0.0 192.0 L 0.0 256.0 L 0.0 320.0 L 0.0 384.0 L 0.0 448.0 L 0.0 512.0 L 0.0 514.56 M 64.0 -2.56 L 64.0 0.0 C 64.0 17.6, 67.2 17.6, 67.2 35.2 A 3.2 3.2 0 0 1 62.125483399593904 37.0745166004061 A 6.4 6.4 0 1 0 62.125483399593904 46.125483399593904 A 3.2 3.2 0 0 1 67.2 48.0 C 67.2 56.0, 64.0 56.0, 64.0 64.0 L 64.0 128.0 L 64.0 192.0 C 64.0 209.6, 60.8 209.6, 60.8 227.2 A 3.2 3.2 0 0 0 65.8745166004061 229.0745166004061 A 6.4 6.4 0 1 1 65.8745166004061 238.12548339959392 A 3.2 3.2 0 0 0 60.8 240.0 C 60.8 248.0, 64.0 248.0, 64.0 256.0 C 64.0 273.6, 67.2 273.6, 67.2 291.2 A 3.2 3.2 0 0 1 62.125483399593904 293.0745166004061 A 6.4 6.4 0 1 0 62.125483399593904 302.1254833995939 A 3.2 3.2 0 0 1 67.2 304.0 C 67.2 312.0, 64.0 312.0, 64.0 320.0 C 64.0 332.8, 60.8 332.8, 60.8 345.6 A 3.2 3.2 0 0 0 65.8745166004061 347.4745166004061 A 6.4 6.4 0 1 1 65.8745166004061 356.5254833995939 A 3.2 3.2 0 0 0 60.8 358.4 C 60.8 371.2, 64.0 371.2, 64.0 384.0 C 64.0 401.6, 60.8 401.6, 60.8 419.2 A 3.2 3.2 0 0 0 65.8745166004061 421.0745166004061 A 6.4 6.4 0 1 1 65.8745166004061 430.1254833995939 A 3.2 3.2 0 0 0 60.8 432.0 C 60.8 440.0, 64.0 440.0, 64.0 448.0 C 64.0 456.0, 67.2 456.0, 67.2 464.0 A 3.2 3.2 0 0 1 62.125483399593904 465.8745166004061 A 6.4 6.4 0 1 0 62.125483399593904 474.9254833995939 A 3.2 3.2 0 0 1 67.2 476.8 L 67.2 483.2 A 3.2 3.2 0 0 1 62.125483399593904 485.0745166004061 A 6.4 6.4 0 1 0 62.125483399593904 494.1254833995939 A 3.2 3.2 0 0 1 67.2 496.0 C 67.2 504.0, 64.0 504.0, 64.0 512.0 L 64.0 514.56 M 128.0 -2.56 L 128.0 0.0 C 128.0 12.8, 124.8 12.8, 124.8 25.6 A 3.2 3.2 0 0 0 129.87451660040608 27.474516600406098 A 6.4 6.4 0 1 1 129.87451660040608 36.5254833995939 A 3.2 3.2 0 0 0 124.8 38.4 C 124.8 51.2, 128.0 51.2, 128.0 64.0 C 128.0 81.6, 124.8 81.6, 124.8 99.2 A 3.2 3.2 0 0 0 129.87451660040608 101.0745166004061 A 6.4 6.4 0 1 1 129.87451660040608 110.1254833995939 A 3.2 3.2 0 0 0 124.8 112.0 C 124.8 120.0, 128.0 120.0, 128.0 128.0 C 128.0 136.0, 124.8 136.0, 124.8 144.0 A 3.2 3.2 0 0 0 129.87451660040608 145.87451660040608 A 6.4 6.4 0 1 1 129.87451660040608 154.9254833995939 A 3.2 3.2 0 0 0 124.8 156.8 C 124.8 160.0, 131.2 160.0, 131.2 163.2 A 3.2 3.2 0 0 1 126.1254833995939 165.0745166004061 A 6.4 6.4 0 1 0 126.1254833995939 174.12548339959392 A 3.2 3.2 0 0 1 131.2 176.0 C 131.2 184.0, 128.0 184.0, 128.0 192.0 C 128.0 204.8, 131.2 204.8, 131.2 217.6 A 3.2 3.2 0 0 1 126.1254833995939 219.4745166004061 A 6.4 6.4 0 1 0 126.1254833995939 228.5254833995939 A 3.2 3.2 0 0 1 131.2 230.4 C 131.2 243.2, 128.0 243.2, 128.0 256.0 L 128.0 320.0 C 128.0 332.8, 131.2 332.8, 131.2 345.6 A 3.2 3.2 0 0 1 126.1254833995939 347.4745166004061 A 6.4 6.4 0 1 0 126.1254833995939 356.5254833995939 A 3.2 3.2 0 0 1 131.2 358.4 C 131.2 371.2, 128.0 371.2, 128.0 384.0 C 128.0 392.0, 131.2 392.0, 131.2 400.0 A 3.2 3.2 0 0 1 126.1254833995939 401.8745166004061 A 6.4 6.4 0 1 0 126.1254833995939 410.9254833995939 A 3.2 3.2 0 0 1 131.2 412.8 C 131.2 430.4, 128.0 430.4, 128.0 448.0 C 128.0 460.8, 131.2 460.8, 131.2 473.6 A 3.2 3.2 0 0 1 126.1254833995939 475.4745166004061 A 6.4 6.4 0 1 0 126.1254833995939 484.5254833995939 A 3.2 3.2 0 0 1 131.2 486.4 C 131.2 499.2, 128.0 499.2, 128.0 512.0 L 128.0 514.56 M 192.0 -2.56 L 192.0 0.0 C 192.0 12.8, 195.2 12.8, 195.2 25.6 A 3.2 3.2 0 0 1 190.12548339959392 27.474516600406098 A 6.4 6.4 0 1 0 190.12548339959392 36.5254833995939 A 3.2 3.2 0 0 1 195.2 38.4 C 195.2 51.2, 192.0 51.2, 192.0 64.0 C 192.0 81.6, 195.2 81.6, 195.2 99.2 A 3.2 3.2 0 0 1 190.12548339959392 101.0745166004061 A 6.4 6.4 0 1 0 190.12548339959392 110.1254833995939 A 3.2 3.2 0 0 1 195.2 112.0 C 195.2 120.0, 192.0 120.0, 192.0 128.0 C 192.0 136.0, 188.8 136.0, 188.8 144.0 A 3.2 3.2 0 0 0 193.87451660040608 145.87451660040608 A 6.4 6.4 0 1 1 193.87451660040608 154.9254833995939 A 3.2 3.2 0 0 0 188.8 156.8 L 188.8 163.2 A 3.2 3.2 0 0 0 193.87451660040608 165.0745166004061 A 6.4 6.4 0 1 1 193.87451660040608 174.12548339959392 A 3.2 3.2 0 0 0 188.8 176.0 C 188.8 184.0, 192.0 184.0, 192.0 192.0 C 192.0 200.0, 195.2 200.0, 195.2 208.0 A 3.2 3.2 0 0 1 190.12548339959392 209.87451660040608 A 6.4 6.4 0 1 0 190.12548339959392 218.9254833995939 A 3.2 3.2 0 0 1 195.2 220.8 L 195.2 227.2 A 3.2 3.2 0 0 1 190.12548339959392 229.0745166004061 A 6.4 6.4 0 1 0 190.12548339959392 238.12548339959392 A 3.2 3.2 0 0 1 195.2 240.0 C 195.2 248.0, 192.0 248.0, 192.0 256.0 C 192.0 264.0, 195.2 264.0, 195.2 272.0 A 3.2 3.2 0 0 1 190.12548339959392 273.8745166004061 A 6.4 6.4 0 1 0 190.12548339959392 282.9254833995939 A 3.2 3.2 0 0 1 195.2 284.8 C 195.2 302.4, 192.0 302.4, 192.0 320.0 C 192.0 332.8, 195.2 332.8, 195.2 345.6 A 3.2 3.2 0 0 1 190.12548339959392 347.4745166004061 A 6.4 6.4 0 1 0 190.12548339959392 356.5254833995939 A 3.2 3.2 0 0 1 195.2 358.4 C 195.2 371.2, 192.0 371.2, 192.0 384.0 C 192.0 401.6, 188.8 401.6, 188.8 419.2 A 3.2 3.2 0 0 0 193.87451660040608 421.0745166004061 A 6.4 6.4 0 1 1 193.87451660040608 430.1254833995939 A 3.2 3.2 0 0 0 188.8 432.0 C 188.8 440.0, 192.0 440.0, 192.0 448.0 C 192.0 456.0, 188.8 456.0, 188.8 464.0 A 3.2 3.2 0 0 0 193.87451660040608 465.8745166004061 A 6.4 6.4 0 1 1 193.87451660040608 474.9254833995939 A 3.2 3.2 0 0 0 188.8 476.8 C 188.8 494.4, 192.0 494.4, 192.0 512.0 L 192.0 514.56 M 256.0 -2.56 L 256.0 0.0 L 256.0 64.0 L 256.0 128.0 L 256.0 192.0 L 256.0 256.0 L 256.0 320.0 L 256.0 384.0 L 256.0 448.0 L 256.0 512.0 L 256.0 514.56 M 320.0 -2.56 L 320.0 0.0 C 320.0 7.999999999999999, 316.8 7.999999999999999, 316.8 15.999999999999998 A 3.2 3.2 0 0 0 321.8745166004061 17.874516600406096 A 6.4 6.4 0 1 1 321.8745166004061 26.9254833995939 A 3.2 3.2 0 0 0 316.8 28.799999999999997 C 316.8 46.400000000000006, 320.0 46.400000000000006, 320.0 64.0 C 320.0 76.8, 316.8 76.8, 316.8 89.6 A 3.2 3.2 0 0 0 321.8745166004061 91.4745166004061 A 6.4 6.4 0 1 1 321.8745166004061 100.5254833995939 A 3.2 3.2 0 0 0 316.8 102.4 C 316.8 115.2, 320.0 115.2, 320.0 128.0 C 320.0 140.8, 316.8 140.8, 316.8 153.6 A 3.2 3.2 0 0 0 321.8745166004061 155.4745166004061 A 6.4 6.4 0 1 1 321.8745166004061 164.5254833995939 A 3.2 3.2 0 0 0 316.8 166.4 C 316.8 179.2, 320.0 179.2, 320.0 192.0 C 320.0 200.0, 323.2 200.0, 323.2 208.0 A 3.2 3.2 0 0 1 318.1254833995939 209.87451660040608 A 6.4 6.4 0 1 0 318.1254833995939 218.9254833995939 A 3.2 3.2 0 0 1 323.2 220.8 C 323.2 238.4, 320.0 238.4, 320.0 256.0 L 320.0 320.0 C 320.0 332.8, 323.2 332.8, 323.2 345.6 A 3.2 3.2 0 0 1 318.1254833995939 347.4745166004061 A 6.4 6.4 0 1 0 318.1254833995939 356.5254833995939 A 3.2 3.2 0 0 1 323.2 358.4 C 323.2 371.2, 320.0 371.2, 320.0 384.0 C 320.0 396.8, 323.2 396.8, 323.2 409.6 A 3.2 3.2 0 0 1 318.1254833995939 411.4745166004061 A 6.4 6.4 0 1 0 318.1254833995939 420.5254833995939 A 3.2 3.2 0 0 1 323.2 422.4 C 323.2 435.2, 320.0 435.2, 320.0 448.0 C 320.0 460.8, 316.8 460.8, 316.8 473.6 A 3.2 3.2 0 0 0 321.8745166004061 475.4745166004061 A 6.4 6.4 0 1 1 321.8745166004061 484.5254833995939 A 3.2 3.2 0 0 0 316.8 486.4 C 316.8 499.2, 320.0 499.2, 320.0 512.0 L 320.0 514.56 M 384.0 -2.56 L 384.0 0.0 C 384.0 17.6, 387.2 17.6, 387.2 35.2 A 3.2 3.2 0 0 1 382.1254833995939 37.0745166004061 A 6.4 6.4 0 1 0 382.1254833995939 46.125483399593904 A 3.2 3.2 0 0 1 387.2 48.0 C 387.2 56.0, 384.0 56.0, 384.0 64.0 C 384.0 72.0, 387.2 72.0, 387.2 80.0 A 3.2 3.2 0 0 1 382.1254833995939 81.8745166004061 A 6.4 6.4 0 1 0 382.1254833995939 90.9254833995939 A 3.2 3.2 0 0 1 387.2 92.8 L 387.2 99.2 A 3.2 3.2 0 0 1 382.1254833995939 101.0745166004061 A 6.4 6.4 0 1 0 382.1254833995939 110.1254833995939 A 3.2 3.2 0 0 1 387.2 112.0 C 387.2 120.0, 384.0 120.0, 384.0 128.0 C 384.0 136.0, 387.2 136.0, 387.2 144.0 A 3.2 3.2 0 0 1 382.1254833995939 145.87451660040608 A 6.4 6.4 0 1 0 382.1254833995939 154.9254833995939 A 3.2 3.2 0 0 1 387.2 156.8 L 387.2 163.2 A 3.2 3.2 0 0 1 382.1254833995939 165.0745166004061 A 6.4 6.4 0 1 0 382.1254833995939 174.12548339959392 A 3.2 3.2 0 0 1 387.2 176.0 C 387.2 184.0, 384.0 184.0, 384.0 192.0 C 384.0 209.6, 380.8 209.6, 380.8 227.2 A 3.2 3.2 0 0 0 385.8745166004061 229.0745166004061 A 6.4 6.4 0 1 1 385.8745166004061 238.12548339959392 A 3.2 3.2 0 0 0 380.8 240.0 C 380.8 248.0, 384.0 248.0, 384.0 256.0 C 384.0 268.8, 387.2 268.8, 387.2 281.6 A 3.2 3.2 0 0 1 382.1254833995939 283.4745166004061 A 6.4 6.4 0 1 0 382.1254833995939 292.5254833995939 A 3.2 3.2 0 0 1 387.2 294.4 C 387.2 307.2, 384.0 307.2, 384.0 320.0 C 384.0 332.8, 380.8 332.8, 380.8 345.6 A 3.2 3.2 0 0 0 385.8745166004061 347.4745166004061 A 6.4 6.4 0 1 1 385.8745166004061 356.5254833995939 A 3.2 3.2 0 0 0 380.8 358.4 C 380.8 371.2, 384.0 371.2, 384.0 384.0 C 384.0 396.8, 387.2 396.8, 387.2 409.6 A 3.2 3.2 0 0 1 382.1254833995939 411.4745166004061 A 6.4 6.4 0 1 0 382.1254833995939 420.5254833995939 A 3.2 3.2 0 0 1 387.2 422.4 C 387.2 435.2, 384.0 435.2, 384.0 448.0 C 384.0 459.52, 388.48 459.52, 388.48 471.04 A 4.4799999999999995 4.4799999999999995 0 0 1 381.3756767594315 473.66432324056854 A 8.959999999999999 8.959999999999999 0 1 0 381.3756767594315 486.33567675943146 A 4.4799999999999995 4.4799999999999995 0 0 1 388.48 488.96 C 388.48 500.48, 384.0 500.48, 384.0 512.0 L 384.0 514.56 M 448.0 -2.56 L 448.0 0.0 C 448.0 17.6, 444.8 17.6, 444.8 35.2 A 3.2 3.2 0 0 0 449.8745166004061 37.0745166004061 A 6.4 6.4 0 1 1 449.8745166004061 46.125483399593904 A 3.2 3.2 0 0 0 444.8 48.0 C 444.8 56.0, 448.0 56.0, 448.0 64.0 C 448.0 72.0, 444.8 72.0, 444.8 80.0 A 3.2 3.2 0 0 0 449.8745166004061 81.8745166004061 A 6.4 6.4 0 1 1 449.8745166004061 90.9254833995939 A 3.2 3.2 0 0 0 444.8 92.8 C 444.8 110.4, 448.0 110.4, 448.0 128.0 C 448.0 145.6, 444.8 145.6, 444.8 163.2 A 3.2 3.2 0 0 0 449.8745166004061 165.0745166004061 A 6.4 6.4 0 1 1 449.8745166004061 174.12548339959392 A 3.2 3.2 0 0 0 444.8 176.0 C 444.8 184.0, 448.0 184.0, 448.0 192.0 C 448.0 209.6, 444.8 209.6, 444.8 227.2 A 3.2 3.2 0 0 0 449.8745166004061 229.0745166004061 A 6.4 6.4 0 1 1 449.8745166004061 238.12548339959392 A 3.2 3.2 0 0 0 444.8 240.0 C 444.8 248.0, 448.0 248.0, 448.0 256.0 C 448.0 268.8, 451.2 268.8, 451.2 281.6 A 3.2 3.2 0 0 1 446.1254833995939 283.4745166004061 A 6.4 6.4 0 1 0 446.1254833995939 292.5254833995939 A 3.2 3.2 0 0 1 451.2 294.4 C 451.2 307.2, 448.0 307.2, 448.0 320.0 C 448.0 332.8, 444.8 332.8, 444.8 345.6 A 3.2 3.2 0 0 0 449.8745166004061 347.4745166004061 A 6.4 6.4 0 1 1 449.8745166004061 356.5254833995939 A 3.2 3.2 0 0 0 444.8 358.4 C 444.8 371.2, 448.0 371.2, 448.0 384.0 C 448.0 395.52, 443.52 395.52, 443.52 407.04 A 4.4799999999999995 4.4799999999999995 0 0 0 450.6243232405685 409.66432324056854 A 8.959999999999999 8.959999999999999 0 1 1 450.6243232405685 422.33567675943146 A 4.4799999999999995 4.4799999999999995 0 0 0 443.52 424.96 C 443.52 436.48, 448.0 436.48, 448.0 448.0 C 448.0 459.52, 452.48 459.52, 452.48 471.04 A 4.4799999999999995 4.4799999999999995 0 0 1 445.3756767594315 473.66432324056854 A 8.959999999999999 8.959999999999999 0 1 0 445.3756767594315 486.33567675943146 A 4.4799999999999995 4.4799999999999995 0 0 1 452.48 488.96 C 452.48 500.48, 448.0 500.48, 448.0 512.0 L 448.0 514.56 M 512.0 -2.56 L 512.0 0.0 L 512.0 64.0 L 512.0 128.0 L 512.0 192.0 L 512.0 256.0 L 512.0 320.0 L 512.0 384.0 L 512.0 448.0 L 512.0 512.0 L 512.0 514.56 M -2.56 0.0 L 0.0 0.0 L 64.0 0.0 L 128.0 0.0 L 192.0 0.0 L 256.0 0.0 L 320.0 0.0 L 384.0 0.0 L 448.0 0.0 L 512.0 0.0 L 514.56 0.0 M -2.56 64.0 L 0.0 64.0 C 17.6 64.0, 17.6 67.2, 35.2 67.2 A 3.2 3.2 0 0 0 37.0745166004061 62.125483399593904 A 6.4 6.4 0 1 1 46.125483399593904 62.125483399593904 A 3.2 3.2 0 0 0 48.0 67.2 C 56.0 67.2, 56.0 64.0, 64.0 64.0 L 128.0 64.0 L 192.0 64.0 C 204.8 64.0, 204.8 67.2, 217.6 67.2 A 3.2 3.2 0 0 0 219.4745166004061 62.125483399593904 A 6.4 6.4 0 1 1 228.5254833995939 62.125483399593904 A 3.2 3.2 0 0 0 230.4 67.2 C 243.2 67.2, 243.2 64.0, 256.0 64.0 C 273.6 64.0, 273.6 60.8, 291.2 60.8 A 3.2 3.2 0 0 1 293.0745166004061 65.8745166004061 A 6.4 6.4 0 1 0 302.1254833995939 65.8745166004061 A 3.2 3.2 0 0 1 304.0 60.8 C 312.0 60.8, 312.0 64.0, 320.0 64.0 C 337.6 64.0, 337.6 67.2, 355.2 67.2 A 3.2 3.2 0 0 0 357.0745166004061 62.125483399593904 A 6.4 6.4 0 1 1 366.1254833995939 62.125483399593904 A 3.2 3.2 0 0 0 368.0 67.2 C 376.0 67.2, 376.0 64.0, 384.0 64.0 C 392.0 64.0, 392.0 67.2, 400.0 67.2 A 3.2 3.2 0 0 0 401.8745166004061 62.125483399593904 A 6.4 6.4 0 1 1 410.9254833995939 62.125483399593904 A 3.2 3.2 0 0 0 412.8 67.2 C 430.4 67.2, 430.4 64.0, 448.0 64.0 C 465.6 64.0, 465.6 60.8, 483.2 60.8 A 3.2 3.2 0 0 1 485.0745166004061 65.8745166004061 A 6.4 6.4 0 1 0 494.1254833995939 65.8745166004061 A 3.2 3.2 0 0 1 496.0 60.8 C 504.0 60.8, 504.0 64.0, 512.0 64.0 L 514.56 64.0 M -2.56 128.0 L 0.0 128.0 C 17.6 128.0, 17.6 124.8, 35.2 124.8 A 3.2 3.2 0 0 1 37.0745166004061 129.87451660040608 A 6.4 6.4 0 1 0 46.125483399593904 129.87451660040608 A 3.2 3.2 0 0 1 48.0 124.8 C 56.0 124.8, 56.0 128.0, 64.0 128.0 C 72.0 128.0, 72.0 124.8, 80.0 124.8 A 3.2 3.2 0 0 1 81.8745166004061 129.87451660040608 A 6.4 6.4 0 1 0 90.9254833995939 129.87451660040608 A 3.2 3.2 0 0 1 92.8 124.8 C 96.0 124.8, 96.0 131.2, 99.2 131.2 A 3.2 3.2 0 0 0 101.0745166004061 126.1254833995939 A 6.4 6.4 0 1 1 110.1254833995939 126.1254833995939 A 3.2 3.2 0 0 0 112.0 131.2 C 120.0 131.2, 120.0 128.0, 128.0 128.0 L 192.0 128.0 L 256.0 128.0 C 268.8 128.0, 268.8 131.2, 281.6 131.2 A 3.2 3.2 0 0 0 283.4745166004061 126.1254833995939 A 6.4 6.4 0 1 1 292.5254833995939 126.1254833995939 A 3.2 3.2 0 0 0 294.4 131.2 C 307.2 131.2, 307.2 128.0, 320.0 128.0 L 384.0 128.0 L 448.0 128.0 C 465.6 128.0, 465.6 131.2, 483.2 131.2 A 3.2 3.2 0 0 0 485.0745166004061 126.1254833995939 A 6.4 6.4 0 1 1 494.1254833995939 126.1254833995939 A 3.2 3.2 0 0 0 496.0 131.2 C 504.0 131.2, 504.0 128.0, 512.0 128.0 L 514.56 128.0 M -2.56 192.0 L 0.0 192.0 C 7.999999999999999 192.0, 7.999999999999999 195.2, 15.999999999999998 195.2 A 3.2 3.2 0 0 0 17.874516600406096 190.12548339959392 A 6.4 6.4 0 1 1 26.9254833995939 190.12548339959392 A 3.2 3.2 0 0 0 28.799999999999997 195.2 C 46.400000000000006 195.2, 46.400000000000006 192.0, 64.0 192.0 L 128.0 192.0 L 192.0 192.0 C 200.0 192.0, 200.0 195.2, 208.0 195.2 A 3.2 3.2 0 0 0 209.87451660040608 190.12548339959392 A 6.4 6.4 0 1 1 218.9254833995939 190.12548339959392 A 3.2 3.2 0 0 0 220.8 195.2 C 224.0 195.2, 224.0 188.8, 227.2 188.8 A 3.2 3.2 0 0 1 229.0745166004061 193.87451660040608 A 6.4 6.4 0 1 0 238.12548339959392 193.87451660040608 A 3.2 3.2 0 0 1 240.0 188.8 C 248.0 188.8, 248.0 192.0, 256.0 192.0 C 268.8 192.0, 268.8 188.8, 281.6 188.8 A 3.2 3.2 0 0 1 283.4745166004061 193.87451660040608 A 6.4 6.4 0 1 0 292.5254833995939 193.87451660040608 A 3.2 3.2 0 0 1 294.4 188.8 C 307.2 188.8, 307.2 192.0, 320.0 192.0 C 332.8 192.0, 332.8 188.8, 345.6 188.8 A 3.2 3.2 0 0 1 347.4745166004061 193.87451660040608 A 6.4 6.4 0 1 0 356.5254833995939 193.87451660040608 A 3.2 3.2 0 0 1 358.4 188.8 C 371.2 188.8, 371.2 192.0, 384.0 192.0 C 396.8 192.0, 396.8 188.8, 409.6 188.8 A 3.2 3.2 0 0 1 411.4745166004061 193.87451660040608 A 6.4 6.4 0 1 0 420.5254833995939 193.87451660040608 A 3.2 3.2 0 0 1 422.4 188.8 C 435.2 188.8, 435.2 192.0, 448.0 192.0 C 456.0 192.0, 456.0 188.8, 464.0 188.8 A 3.2 3.2 0 0 1 465.8745166004061 193.87451660040608 A 6.4 6.4 0 1 0 474.9254833995939 193.87451660040608 A 3.2 3.2 0 0 1 476.8 188.8 C 494.4 188.8, 494.4 192.0, 512.0 192.0 L 514.56 192.0 M -2.56 256.0 L 0.0 256.0 L 64.0 256.0 L 128.0 256.0 L 192.0 256.0 L 256.0 256.0 L 320.0 256.0 L 384.0 256.0 L 448.0 256.0 L 512.0 256.0 L 514.56 256.0 M -2.56 320.0 L 0.0 320.0 C 7.999999999999999 320.0, 7.999999999999999 323.2, 15.999999999999998 323.2 A 3.2 3.2 0 0 0 17.874516600406096 318.1254833995939 A 6.4 6.4 0 1 1 26.9254833995939 318.1254833995939 A 3.2 3.2 0 0 0 28.799999999999997 323.2 C 46.400000000000006 323.2, 46.400000000000006 320.0, 64.0 320.0 C 72.0 320.0, 72.0 316.8, 80.0 316.8 A 3.2 3.2 0 0 1 81.8745166004061 321.8745166004061 A 6.4 6.4 0 1 0 90.9254833995939 321.8745166004061 A 3.2 3.2 0 0 1 92.8 316.8 L 99.2 316.8 A 3.2 3.2 0 0 1 101.0745166004061 321.8745166004061 A 6.4 6.4 0 1 0 110.1254833995939 321.8745166004061 A 3.2 3.2 0 0 1 112.0 316.8 C 120.0 316.8, 120.0 320.0, 128.0 320.0 C 140.8 320.0, 140.8 316.8, 153.6 316.8 A 3.2 3.2 0 0 1 155.4745166004061 321.8745166004061 A 6.4 6.4 0 1 0 164.5254833995939 321.8745166004061 A 3.2 3.2 0 0 1 166.4 316.8 C 179.2 316.8, 179.2 320.0, 192.0 320.0 C 200.0 320.0, 200.0 316.8, 208.0 316.8 A 3.2 3.2 0 0 1 209.87451660040608 321.8745166004061 A 6.4 6.4 0 1 0 218.9254833995939 321.8745166004061 A 3.2 3.2 0 0 1 220.8 316.8 C 238.4 316.8, 238.4 320.0, 256.0 320.0 L 320.0 320.0 C 332.8 320.0, 332.8 323.2, 345.6 323.2 A 3.2 3.2 0 0 0 347.4745166004061 318.1254833995939 A 6.4 6.4 0 1 1 356.5254833995939 318.1254833995939 A 3.2 3.2 0 0 0 358.4 323.2 C 371.2 323.2, 371.2 320.0, 384.0 320.0 C 395.52 320.0, 395.52 324.48, 407.04 324.48 A 4.4799999999999995 4.4799999999999995 0 0 0 409.66432324056854 317.3756767594315 A 8.959999999999999 8.959999999999999 0 1 1 422.33567675943146 317.3756767594315 A 4.4799999999999995 4.4799999999999995 0 0 0 424.96 324.48 C 436.48 324.48, 436.48 320.0, 448.0 320.0 C 459.52 320.0, 459.52 315.52, 471.04 315.52 A 4.4799999999999995 4.4799999999999995 0 0 1 473.66432324056854 322.6243232405685 A 8.959999999999999 8.959999999999999 0 1 0 486.33567675943146 322.6243232405685 A 4.4799999999999995 4.4799999999999995 0 0 1 488.96 315.52 C 500.48 315.52, 500.48 320.0, 512.0 320.0 L 514.56 320.0 M -2.56 384.0 L 0.0 384.0 C 17.6 384.0, 17.6 387.2, 35.2 387.2 A 3.2 3.2 0 0 0 37.0745166004061 382.1254833995939 A 6.4 6.4 0 1 1 46.125483399593904 382.1254833995939 A 3.2 3.2 0 0 0 48.0 387.2 C 56.0 387.2, 56.0 384.0, 64.0 384.0 C 72.0 384.0, 72.0 380.8, 80.0 380.8 A 3.2 3.2 0 0 1 81.8745166004061 385.8745166004061 A 6.4 6.4 0 1 0 90.9254833995939 385.8745166004061 A 3.2 3.2 0 0 1 92.8 380.8 C 110.4 380.8, 110.4 384.0, 128.0 384.0 C 145.6 384.0, 145.6 380.8, 163.2 380.8 A 3.2 3.2 0 0 1 165.0745166004061 385.8745166004061 A 6.4 6.4 0 1 0 174.12548339959392 385.8745166004061 A 3.2 3.2 0 0 1 176.0 380.8 C 184.0 380.8, 184.0 384.0, 192.0 384.0 C 204.8 384.0, 204.8 380.8, 217.6 380.8 A 3.2 3.2 0 0 1 219.4745166004061 385.8745166004061 A 6.4 6.4 0 1 0 228.5254833995939 385.8745166004061 A 3.2 3.2 0 0 1 230.4 380.8 C 243.2 380.8, 243.2 384.0, 256.0 384.0 C 268.8 384.0, 268.8 380.8, 281.6 380.8 A 3.2 3.2 0 0 1 283.4745166004061 385.8745166004061 A 6.4 6.4 0 1 0 292.5254833995939 385.8745166004061 A 3.2 3.2 0 0 1 294.4 380.8 C 307.2 380.8, 307.2 384.0, 320.0 384.0 C 332.8 384.0, 332.8 380.8, 345.6 380.8 A 3.2 3.2 0 0 1 347.4745166004061 385.8745166004061 A 6.4 6.4 0 1 0 356.5254833995939 385.8745166004061 A 3.2 3.2 0 0 1 358.4 380.8 C 371.2 380.8, 371.2 384.0, 384.0 384.0 C 395.52 384.0, 395.52 379.52, 407.04 379.52 A 4.4799999999999995 4.4799999999999995 0 0 1 409.66432324056854 386.6243232405685 A 8.959999999999999 8.959999999999999 0 1 0 422.33567675943146 386.6243232405685 A 4.4799999999999995 4.4799999999999995 0 0 1 424.96 379.52 C 436.48 379.52, 436.48 384.0, 448.0 384.0 C 459.52 384.0, 459.52 388.48, 471.04 388.48 A 4.4799999999999995 4.4799999999999995 0 0 0 473.66432324056854 381.3756767594315 A 8.959999999999999 8.959999999999999 0 1 1 486.33567675943146 381.3756767594315 A 4.4799999999999995 4.4799999999999995 0 0 0 488.96 388.48 C 500.48 388.48, 500.48 384.0, 512.0 384.0 L 514.56 384.0 M -2.56 448.0 L 0.0 448.0 C 12.8 448.0, 12.8 451.2, 25.6 451.2 A 3.2 3.2 0 0 0 27.474516600406098 446.1254833995939 A 6.4 6.4 0 1 1 36.5254833995939 446.1254833995939 A 3.2 3.2 0 0 0 38.4 451.2 C 51.2 451.2, 51.2 448.0, 64.0 448.0 C 72.0 448.0, 72.0 451.2, 80.0 451.2 A 3.2 3.2 0 0 0 81.8745166004061 446.1254833995939 A 6.4 6.4 0 1 1 90.9254833995939 446.1254833995939 A 3.2 3.2 0 0 0 92.8 451.2 C 110.4 451.2, 110.4 448.0, 128.0 448.0 C 136.0 448.0, 136.0 444.8, 144.0 444.8 A 3.2 3.2 0 0 1 145.87451660040608 449.8745166004061 A 6.4 6.4 0 1 0 154.9254833995939 449.8745166004061 A 3.2 3.2 0 0 1 156.8 444.8 L 163.2 444.8 A 3.2 3.2 0 0 1 165.0745166004061 449.8745166004061 A 6.4 6.4 0 1 0 174.12548339959392 449.8745166004061 A 3.2 3.2 0 0 1 176.0 444.8 C 184.0 444.8, 184.0 448.0, 192.0 448.0 C 204.8 448.0, 204.8 444.8, 217.6 444.8 A 3.2 3.2 0 0 1 219.4745166004061 449.8745166004061 A 6.4 6.4 0 1 0 228.5254833995939 449.8745166004061 A 3.2 3.2 0 0 1 230.4 444.8 C 243.2 444.8, 243.2 448.0, 256.0 448.0 C 268.8 448.0, 268.8 451.2, 281.6 451.2 A 3.2 3.2 0 0 0 283.4745166004061 446.1254833995939 A 6.4 6.4 0 1 1 292.5254833995939 446.1254833995939 A 3.2 3.2 0 0 0 294.4 451.2 C 307.2 451.2, 307.2 448.0, 320.0 448.0 C 331.52 448.0, 331.52 443.52, 343.04 443.52 A 4.4799999999999995 4.4799999999999995 0 0 1 345.66432324056854 450.6243232405685 A 8.959999999999999 8.959999999999999 0 1 0 358.33567675943146 450.6243232405685 A 4.4799999999999995 4.4799999999999995 0 0 1 360.96 443.52 C 372.48 443.52, 372.48 448.0, 384.0 448.0 C 396.8 448.0, 396.8 444.8, 409.6 444.8 A 3.2 3.2 0 0 1 411.4745166004061 449.8745166004061 A 6.4 6.4 0 1 0 420.5254833995939 449.8745166004061 A 3.2 3.2 0 0 1 422.4 444.8 C 435.2 444.8, 435.2 448.0, 448.0 448.0 C 459.52 448.0, 459.52 452.48, 471.04 452.48 A 4.4799999999999995 4.4799999999999995 0 0 0 473.66432324056854 445.3756767594315 A 8.959999999999999 8.959999999999999 0 1 1 486.33567675943146 445.3756767594315 A 4.4799999999999995 4.4799999999999995 0 0 0 488.96 452.48 C 500.48 452.48, 500.48 448.0, 512.0 448.0 L 514.56 448.0 M -2.56 512.0 L 0.0 512.0 L 64.0 512.0 L 128.0 512.0 L 192.0 512.0 L 256.0 512.0 L 320.0 512.0 L 384.0 512.0 L 448.0 512.0 L 512.0 512.0 L 514.56 512.0"/></g></svg>