<svg width="320" height="320" xmlns="http://www.w3.org/2000/svg"><g transform="translate(32.0 32.0)"><path fill="none" stroke="black" d="M 0.0 -2.56 L 0.0 0.0 L 0.0 64.0 L 0.0 128.0 L 0.0 192.0 L 0.0 256.0 L 0.0 258.56 M 64.0 -2.56 L 64.0 0.0 C 64.0 17.6, 67.2 17.6, 67.2 35.2 A 3.2 3.2 0 0 1 62.125483399593904 37.0745166004061 A 6.4 6.4 0 1 0 62.125483399593904 46.125483399593904 A 3.2 3.2 0 0 1 67.2 48.0 C 67.2 56.0, 64.0 56.0, 64.0 64.0 C 64.0 81.6, 60.8 81.6, 60.8 99.2 A 3.2 3.2 0 0 0 65.8745166004061 101.0745166004061 A 6.4 6.4 0 1 1 65.8745166004061 110.1254833995939 A 3.2 3.2 0 0 0 60.8 112.0 C 60.8 120.0, 64.0 120.0, 64.0 128.0 C 64.0 140.8, 67.2 140.8, 67.2 153.6 A 3.2 3.2 0 0 1 62.125483399593904 155.4745166004061 A 6.4 6.4 0 1 0 62.125483399593904 164.5254833995939 A 3.2 3.2 0 0 1 67.2 166.4 C 67.2 179.2, 64.0 179.2, 64.0 192.0 C 64.0 204.8, 67.2 204.8, 67.2 217.6 A 3.2 3.2 0 0 1 62.125483399593904 219.4745166004061 A 6.4 6.4 0 1 0 62.125483399593904 228.5254833995939 A 3.2 3.2 0 0 1 67.2 230.4 C 67.2 243.2, 64.0 243.2, 64.0 256.0 L 64.0 258.56 M 128.0 -2.56 L 128.0 0.0 C 128.0 7.999999999999999, 131.2 7.999999999999999, 131.2 15.999999999999998 A 3.2 3.2 0 0 1 126.1254833995939 17.874516600406096 A 6.4 6.4 0 1 0 126.1254833995939 26.9254833995939 A 3.2 3.2 0 0 1 131.2 28.799999999999997 C 131.2 46.400000000000006, 128.0 46.400000000000006, 128.0 64.0 L 128.0 128.0 L 128.0 192.0 C 128.0 204.8, 124.8 204.8, 124.8 217.6 A 3.2 3.2 0 0 0 129.87451660040608 219.4745166004061 A 6.4 6.4 0 1 1 129.87451660040608 228.5254833995939 A 3.2 3.2 0 0 0 124.8 230.4 C 124.8 243.2, 128.0 243.2, 128.0 256.0 L 128.0 258.56 M 192.0 -2.56 L 192.0 0.0 C 192.0 17.6, 188.8 17.6, 188.8 35.2 A 3.2 3.2 0 0 0 193.87451660040608 37.0745166004061 A 6.4 6.4 0 1 1 193.87451660040608 46.125483399593904 A 3.2 3.2 0 0 0 188.8 48.0 C 188.8 56.0, 192.0 56.0, 192.0 64.0 C 192.0 76.8, 188.8 76.8, 188.8 89.6 A 3.2 3.2 0 0 0 193.87451660040608 91.4745166004061 A 6.4 6.4 0 1 1 193.87451660040608 100.5254833995939 A 3.2 3.2 0 0 0 188.8 102.4 C 188.8 115.2, 192.0 115.2, 192.0 128.0 C 192.0 136.0, 188.8 136.0, 188.8 144.0 A 3.2 3.2 0 0 0 193.87451660040608 145.87451660040608 A 6.4 6.4 0 1 1 193.87451660040608 154.9254833995939 A 3.2 3.2 0 0 0 188.8 156.8 C 188.8 174.4, 192.0 174.4, 192.0 192.0 C 192.0 209.6, 195.2 209.6, 195.2 227.2 A 3.2 3.2 0 0 1 190.12548339959392 229.0745166004061 A 6.4 6.4 0 1 0 190.12548339959392 238.12548339959392 A 3.2 3.2 0 0 1 195.2 240.0 C 195.2 248.0, 192.0 248.0, 192.0 256.0 L 192.0 258.56 M 256.0 -2.56 L 256.0 0.0 L 256.0 64.0 L 256.0 128.0 L 256.0 192.0 L 256.0 256.0 L 256.0 258.56 M -2.56 0.0 L 0.0 0.0 L 64.0 0.0 L 128.0 0.0 L 192.0 0.0 L 256.0 0.0 L 258.56 0.0 M -2.56 64.0 L 0.0 64.0 C 7.999999999999999 64.0, 7.999999999999999 67.2, 15.999999999999998 67.2 A 3.2 3.2 0 0 0 17.874516600406096 62.125483399593904 A 6.4 6.4 0 1 1 26.9254833995939 62.125483399593904 A 3.2 3.2 0 0 0 28.799999999999997 67.2 C 46.400000000000006 67.2, 46.400000000000006 64.0, 64.0 64.0 C 72.0 64.0, 72.0 67.2, 80.0 67.2 A 3.2 3.2 0 0 0 81.8745166004061 62.125483399593904 A 6.4 6.4 0 1 1 90.9254833995939 62.125483399593904 A 3.2 3.2 0 0 0 92.8 67.2 C 110.4 67.2, 110.4 64.0, 128.0 64.0 C 145.6 64.0, 145.6 60.8, 163.2 60.8 A 3.2 3.2 0 0 1 165.0745166004061 65.8745166004061 A 6.4 6.4 0 1 0 174.12548339959392 65.8745166004061 A 3.2 3.2 0 0 1 176.0 60.8 C 184.0 60.8, 184.0 64.0, 192.0 64.0 C 204.8 64.0, 204.8 60.8, 217.6 60.8 A 3.2 3.2 0 0 1 219.4745166004061 65.8745166004061 A 6.4 6.4 0 1 0 228.5254833995939 65.8745166004061 A 3.2 3.2 0 0 1 230.4 60.8 C 243.2 60.8, 243.2 64.0, 256.0 64.0 L 258.56 64.0 M -2.56 128.0 L 0.0 128.0 C 7.999999999999999 128.0, 7.999999999999999 124.8, 15.999999999999998 124.8 A 3.2 3.2 0 0 1 17.874516600406096 129.87451660040608 A 6.4 6.4 0 1 0 26.9254833995939 129.87451660040608 A 3.2 3.2 0 0 1 28.799999999999997 124.8 C 46.400000000000006 124.8, 46.400000000000006 128.0, 64.0 128.0 L 128.0 128.0 L 192.0 128.0 C 200.0 128.0, 200.0 131.2, 208.0 131.2 A 3.2 3.2 0 0 0 209.87451660040608 126.1254833995939 A 6.4 6.4 0 1 1 218.9254833995939 126.1254833995939 A 3.2 3.2 0 0 0 220.8 131.2 C 238.4 131.2, 238.4 128.0, 256.0 128.0 L 258.56 128.0 M -2.56 192.0 L 0.0 192.0 C 12.8 192.0, 12.8 195.2, 25.6 195.2 A 3.2 3.2 0 0 0 27.474516600406098 190.12548339959392 A 6.4 6.4 0 1 1 36.5254833995939 190.12548339959392 A 3.2 3.2 0 0 0 38.4 195.2 C 51.2 195.2, 51.2 192.0, 64.0 192.0 C 81.6 192.0, 81.6 195.2, 99.2 195.2 A 3.2 3.2 0 0 0 101.0745166004061 190.12548339959392 A 6.4 6.4 0 1 1 110.1254833995939 190.12548339959392 A 3.2 3.2 0 0 0 112.0 195.2 C 120.0 195.2, 120.0 192.0, 128.0 192.0 C 140.8 192.0, 140.8 188.8, 153.6 188.8 A 3.2 3.2 0 0 1 155.4745166004061 193.87451660040608 A 6.4 6.4 0 1 0 164.5254833995939 193.87451660040608 A 3.2 3.2 0 0 1 166.4 188.8 C 179.2 188.8, 179.2 192.0, 192.0 192.0 C 209.6 192.0, 209.6 188.8, 227.2 188.8 A 3.2 3.2 0 0 1 229.0745166004061 193.87451660040608 A 6.4 6.4 0 1 0 238.12548339959392 193.87451660040608 A 3.2 3.2 0 0 1 240.0 188.8 C 248.0 188.8, 248.0 192.0, 256.0 192.0 L 258.56 192.0 M -2.56 256.0 L 0.0 256.0 L 64.0 256.0 L 128.0 256.0 L 192.0 256.0 L 256.0 256.0 L 258.56 256.0"/></g></svg>