<svg width="320" height="320" xmlns="http://www.w3.org/2000/svg"><g transform="translate(32.0 32.0)"><path fill="none" stroke="black" d="M 0.0 -2.56 L 0.0 0.0 L 0.0 64.0 L 0.0 128.0 L 0.0 192.0 L 0.0 256.0 L 0.0 258.56 M 64.0 -2.56 L 64.0 0.0 C 64.0 7.999999999999999, 60.8 7.999999999999999, 60.8 15.999999999999998 A 3.2 3.2 0 0 0 65.8745166004061 17.874516600406096 A 6.4 6.4 0 1 1 65.8745166004061 26.9254833995939 A 3.2 3.2 0 0 0 60.8 28.799999999999997 C 60.8 46.400000000000006, 64.0 46.400000000000006, 64.0 64.0 C 64.0 76.8, 60.8 76.8, 60.8 89.6 A 3.2 3.2 0 0 0 65.8745166004061 91.4745166004061 A 6.4 6.4 0 1 1 65.8745166004061 100.5254833995939 A 3.2 3.2 0 0 0 60.8 102.4 C 60.8 115.2, 64.0 115.2, 64.0 128.0 C 64.0 140.8, 60.8 140.8, 60.8 153.6 A 3.2 3.2 0 0 0 65.8745166004061 155.4745166004061 A 6.4 6.4 0 1 1 65.8745166004061 164.5254833995939 A 3.2 3.2 0 0 0 60.8 166.4 C 60.8 179.2, 64.0 179.2, 64.0 192.0 C 64.0 200.0, 67.2 200.0, 67.2 208.0 A 3.2 3.2 0 0 1 62.125483399593904 209.87451660040608 A 6.4 6.4 0 1 0 62.125483399593904 218.9254833995939 A 3.2 3.2 0 0 1 67.2 220.8 C 67.2 238.4, 64.0 238.4, 64.0 256.0 L 64.0 258.56 M 128.0 -2.56 L 128.0 0.0 C 128.0 17.6, 131.2 17.6, 131.2 35.2 A 3.2 3.2 0 0 1 126.1254833995939 37.0745166004061 A 6.4 6.4 0 1 0 126.1254833995939 46.125483399593904 A 3.2 3.2 0 0 1 131.2 48.0 C 131.2 56.0, 128.0 56.0, 128.0 64.0 C 128.0 72.0, 131.2 72.0, 131.2 80.0 A 3.2 3.2 0 0 1 126.1254833995939 81.8745166004061 A 6.4 6.4 0 1 0 126.1254833995939 90.9254833995939 A 3.2 3.2 0 0 1 131.2 92.8 L 131.2 99.2 A 3.2 3.2 0 0 1 126.1254833995939 101.0745166004061 A 6.4 6.4 0 1 0 126.1254833995939 110.1254833995939 A 3.2 3.2 0 0 1 131.2 112.0 C 131.2 120.0, 128.0 120.0, 128.0 128.0 C 128.0 136.0, 131.2 136.0, 131.2 144.0 A 3.2 3.2 0 0 1 126.1254833995939 145.87451660040608 A 6.4 6.4 0 1 0 126.1254833995939 154.9254833995939 A 3.2 3.2 0 0 1 131.2 156.8 L 131.2 163.2 A 3.2 3.2 0 0 1 126.1254833995939 165.0745166004061 A 6.4 6.4 0 1 0 126.1254833995939 174.12548339959392 A 3.2 3.2 0 0 1 131.2 176.0 C 131.2 184.0, 128.0 184.0, 128.0 192.0 C 128.0 209.6, 124.8 209.6, 124.8 227.2 A 3.2 3.2 0 0 0 129.87451660040608 229.0745166004061 A 6.4 6.4 0 1 1 129.87451660040608 238.12548339959392 A 3.2 3.2 0 0 0 124.8 240.0 C 124.8 248.0, 128.0 248.0, 128.0 256.0 L 128.0 258.56 M 192.0 -2.56 L 192.0 0.0 C 192.0 17.6, 188.8 17.6, 188.8 35.2 A 3.2 3.2 0 0 0 193.87451660040608 37.0745166004061 A 6.4 6.4 0 1 1 193.87451660040608 46.125483399593904 A 3.2 3.2 0 0 0 188.8 48.0 C 188.8 56.0, 192.0 56.0, 192.0 64.0 C 192.0 72.0, 188.8 72.0, 188.8 80.0 A 3.2 3.2 0 0 0 193.87451660040608 81.8745166004061 A 6.4 6.4 0 1 1 193.87451660040608 90.9254833995939 A 3.2 3.2 0 0 0 188.8 92.8 C 188.8 110.4, 192.0 110.4, 192.0 128.0 C 192.0 145.6, 188.8 145.6, 188.8 163.2 A 3.2 3.2 0 0 0 193.87451660040608 165.0745166004061 A 6.4 6.4 0 1 1 193.87451660040608 174.12548339959392 A 3.2 3.2 0 0 0 188.8 176.0 C 188.8 184.0, 192.0 184.0, 192.0 192.0 C 192.0 209.6, 188.8 209.6, 188.8 227.2 A 3.2 3.2 0 0 0 193.87451660040608 229.0745166004061 A 6.4 6.4 0 1 1 193.87451660040608 238.12548339959392 A 3.2 3.2 0 0 0 188.8 240.0 C 188.8 248.0, 192.0 248.0, 192.0 256.0 L 192.0 258.56 M 256.0 -2.56 L 256.0 0.0 L 256.0 64.0 L 256.0 128.0 L 256.0 192.0 L 256.0 256.0 L 256.0 258.56 M -2.56 0.0 L 0.0 0.0 L 64.0 0.0 L 128.0 0.0 L 192.0 0.0 L 256.0 0.0 L 258.56 0.0 M -2.56 64.0 L 0.0 64.0 C 17.6 64.0, 17.6 60.8, 35.2 60.8 A 3.2 3.2 0 0 1 37.0745166004061 65.8745166004061 A 6.4 6.4 0 1 0 46.125483399593904 65.8745166004061 A 3.2 3.2 0 0 1 48.0 60.8 C 56.0 60.8, 56.0 64.0, 64.0 64.0 C 81.6 64.0, 81.6 67.2, 99.2 67.2 A 3.2 3.2 0 0 0 101.0745166004061 62.125483399593904 A 6.4 6.4 0 1 1 110.1254833995939 62.125483399593904 A 3.2 3.2 0 0 0 112.0 67.2 C 120.0 67.2, 120.0 64.0, 128.0 64.0 C 136.0 64.0, 136.0 67.2, 144.0 67.2 A 3.2 3.2 0 0 0 145.87451660040608 62.125483399593904 A 6.4 6.4 0 1 1 154.9254833995939 62.125483399593904 A 3.2 3.2 0 0 0 156.8 67.2 C 174.4 67.2, 174.4 64.0, 192.0 64.0 C 209.6 64.0, 209.6 60.8, 227.2 60.8 A 3.2 3.2 0 0 1 229.0745166004061 65.8745166004061 A 6.4 6.4 0 1 0 238.12548339959392 65.8745166004061 A 3.2 3.2 0 0 1 240.0 60.8 C 248.0 60.8, 248.0 64.0, 256.0 64.0 L 258.56 64.0 M -2.56 128.0 L 0.0 128.0 C 12.8 128.0, 12.8 131.2, 25.6 131.2 A 3.2 3.2 0 0 0 27.474516600406098 126.1254833995939 A 6.4 6.4 0 1 1 36.5254833995939 126.1254833995939 A 3.2 3.2 0 0 0 38.4 131.2 C 51.2 131.2, 51.2 128.0, 64.0 128.0 L 128.0 128.0 L 192.0 128.0 C 209.6 128.0, 209.6 131.2, 227.2 131.2 A 3.2 3.2 0 0 0 229.0745166004061 126.1254833995939 A 6.4 6.4 0 1 1 238.12548339959392 126.1254833995939 A 3.2 3.2 0 0 0 240.0 131.2 C 248.0 131.2, 248.0 128.0, 256.0 128.0 L 258.56 128.0 M -2.56 192.0 L 0.0 192.0 C 12.8 192.0, 12.8 188.8, 25.6 188.8 A 3.2 3.2 0 0 1 27.474516600406098 193.87451660040608 A 6.4 6.4 0 1 0 36.5254833995939 193.87451660040608 A 3.2 3.2 0 0 1 38.4 188.8 C 51.2 188.8, 51.2 192.0, 64.0 192.0 C 76.8 192.0, 76.8 188.8, 89.6 188.8 A 3.2 3.2 0 0 1 91.4745166004061 193.87451660040608 A 6.4 6.4 0 1 0 100.5254833995939 193.87451660040608 A 3.2 3.2 0 0 1 102.4 188.8 C 115.2 188.8, 115.2 192.0, 128.0 192.0 C 140.8 192.0, 140.8 188.8, 153.6 188.8 A 3.2 3.2 0 0 1 155.4745166004061 193.87451660040608 A 6.4 6.4 0 1 0 164.5254833995939 193.87451660040608 A 3.2 3.2 0 0 1 166.4 188.8 C 179.2 188.8, 179.2 192.0, 192.0 192.0 C 200.0 192.0, 200.0 188.8, 208.0 188.8 A 3.2 3.2 0 0 1 209.87451660040608 193.87451660040608 A 6.4 6.4 0 1 0 218.9254833995939 193.87451660040608 A 3.2 3.2 0 0 1 220.8 188.8 C 238.4 188.8, 238.4 192.0, 256.0 192.0 L 258.56 192.0 M -2.56 256.0 L 0.0 256.0 L 64.0 256.0 L 128.0 256.0 L 192.0 256.0 L 256.0 256.0 L 258.56 256.0"/></g></svg>