<svg width="384" height="384" xmlns="http://www.w3.org/2000/svg"><g transform="translate(32.0 32.0)"><path fill="none" stroke="black" d="M 0.0 -2.56 L 0.0 0.0 L 0.0 64.0 L 0.0 128.0 L 0.0 192.0 L 0.0 256.0 L 0.0 320.0 L 0.0 322.56 M 64.0 -2.56 L 64.0 0.0 C 64.0 7.999999999999999, 67.2 7.999999999999999, 67.2 15.999999999999998 A 3.2 3.2 0 0 1 62.125483399593904 17.874516600406096 A 6.4 6.4 0 1 0 62.125483399593904 26.9254833995939 A 3.2 3.2 0 0 1 67.2 28.799999999999997 C 67.2 46.400000000000006, 64.0 46.400000000000006, 64.0 64.0 L 64.0 128.0 C 64.0 140.8, 60.8 140.8, 60.8 153.6 A 3.2 3.2 0 0 0 65.8745166004061 155.4745166004061 A 6.4 6.4 0 1 1 65.8745166004061 164.5254833995939 A 3.2 3.2 0 0 0 60.8 166.4 C 60.8 179.2, 64.0 179.2, 64.0 192.0 L 64.0 256.0 C 64.0 264.0, 67.2 264.0, 67.2 272.0 A 3.2 3.2 0 0 1 62.125483399593904 273.8745166004061 A 6.4 6.4 0 1 0 62.125483399593904 282.9254833995939 A 3.2 3.2 0 0 1 67.2 284.8 L 67.2 291.2 A 3.2 3.2 0 0 1 62.125483399593904 293.0745166004061 A 6.4 6.4 0 1 0 62.125483399593904 302.1254833995939 A 3.2 3.2 0 0 1 67.2 304.0 C 67.2 312.0, 64.0 312.0, 64.0 320.0 L 64.0 322.56 M 128.0 -2.56 L 128.0 0.0 C 128.0 7.999999999999999, 124.8 7.999999999999999, 124.8 15.999999999999998 A 3.2 3.2 0 0 0 129.87451660040608 17.874516600406096 A 6.4 6.4 0 1 1 129.87451660040608 26.9254833995939 A 3.2 3.2 0 0 0 124.8 28.799999999999997 C 124.8 46.400000000000006, 128.0 46.400000000000006, 128.0 64.0 C 128.0 76.8, 131.2 76.8, 131.2 89.6 A 3.2 3.2 0 0 1 126.1254833995939 91.4745166004061 A 6.4 6.4 0 1 0 126.1254833995939 100.5254833995939 A 3.2 3.2 0 0 1 131.2 102.4 C 131.2 115.2, 128.0 115.2, 128.0 128.0 C 128.0 136.0, 131.2 136.0, 131.2 144.0 A 3.2 3.2 0 0 1 126.1254833995939 145.87451660040608 A 6.4 6.4 0 1 0 126.1254833995939 154.9254833995939 A 3.2 3.2 0 0 1 131.2 156.8 C 131.2 174.4, 128.0 174.4, 128.0 192.0 C 128.0 204.8, 131.2 204.8, 131.2 217.6 A 3.2 3.2 0 0 1 126.1254833995939 219.4745166004061 A 6.4 6.4 0 1 0 126.1254833995939 228.5254833995939 A 3.2 3.2 0 0 1 131.2 230.4 C 131.2 243.2, 128.0 243.2, 128.0 256.0 C 128.0 264.0, 124.8 264.0, 124.8 272.0 A 3.2 3.2 0 0 0 129.87451660040608 273.8745166004061 A 6.4 6.4 0 1 1 129.87451660040608 282.9254833995939 A 3.2 3.2 0 0 0 124.8 284.8 L 124.8 291.2 A 3.2 3.2 0 0 0 129.87451660040608 293.0745166004061 A 6.4 6.4 0 1 1 129.87451660040608 302.1254833995939 A 3.2 3.2 0 0 0 124.8 304.0 C 124.8 312.0, 128.0 312.0, 128.0 320.0 L 128.0 322.56 M 192.0 -2.56 L 192.0 0.0 C 192.0 17.6, 195.2 17.6, 195.2 35.2 A 3.2 3.2 0 0 1 190.12548339959392 37.0745166004061 A 6.4 6.4 0 1 0 190.12548339959392 46.125483399593904 A 3.2 3.2 0 0 1 195.2 48.0 C 195.2 56.0, 192.0 56.0, 192.0 64.0 C 192.0 81.6, 188.8 81.6, 188.8 99.2 A 3.2 3.2 0 0 0 193.87451660040608 101.0745166004061 A 6.4 6.4 0 1 1 193.87451660040608 110.1254833995939 A 3.2 3.2 0 0 0 188.8 112.0 C 188.8 120.0, 192.0 120.0, 192.0 128.0 C 192.0 145.6, 195.2 145.6, 195.2 163.2 A 3.2 3.2 0 0 1 190.12548339959392 165.0745166004061 A 6.4 6.4 0 1 0 190.12548339959392 174.12548339959392 A 3.2 3.2 0 0 1 195.2 176.0 C 195.2 184.0, 192.0 184.0, 192.0 192.0 C 192.0 204.8, 195.2 204.8, 195.2 217.6 A 3.2 3.2 0 0 1 190.12548339959392 219.4745166004061 A 6.4 6.4 0 1 0 190.12548339959392 228.5254833995939 A 3.2 3.2 0 0 1 195.2 230.4 C 195.2 243.2, 192.0 243.2, 192.0 256.0 C 192.0 264.0, 195.2 264.0, 195.2 272.0 A 3.2 3.2 0 0 1 190.12548339959392 273.8745166004061 A 6.4 6.4 0 1 0 190.12548339959392 282.9254833995939 A 3.2 3.2 0 0 1 195.2 284.8 C 195.2 288.0, 188.8 288.0, 188.8 291.2 A 3.2 3.2 0 0 0 193.87451660040608 293.0745166004061 A 6.4 6.4 0 1 1 193.87451660040608 302.1254833995939 A 3.2 3.2 0 0 0 188.8 304.0 C 188.8 312.0, 192.0 312.0, 192.0 320.0 L 192.0 322.56 M 256.0 -2.56 L 256.0 0.0 C 256.0 17.6, 252.8 17.6, 252.8 35.2 A 3.2 3.2 0 0 0 257.8745166004061 37.0745166004061 A 6.4 6.4 0 1 1 257.8745166004061 46.125483399593904 A 3.2 3.2 0 0 0 252.8 48.0 C 252.8 56.0, 256.0 56.0, 256.0 64.0 L 256.0 128.0 C 256.0 140.8, 259.2 140.8, 259.2 153.6 A 3.2 3.2 0 0 1 254.12548339959392 155.4745166004061 A 6.4 6.4 0 1 0 254.12548339959392 164.5254833995939 A 3.2 3.2 0 0 1 259.2 166.4 C 259.2 179.2, 256.0 179.2, 256.0 192.0 L 256.0 256.0 C 256.0 273.6, 259.2 273.6, 259.2 291.2 A 3.2 3.2 0 0 1 254.12548339959392 293.0745166004061 A 6.4 6.4 0 1 0 254.12548339959392 302.1254833995939 A 3.2 3.2 0 0 1 259.2 304.0 C 259.2 312.0, 256.0 312.0, 256.0 320.0 L 256.0 322.56 M 320.0 -2.56 L 320.0 0.0 L 320.0 64.0 L 320.0 128.0 L 320.0 192.0 L 320.0 256.0 L 320.0 320.0 L 320.0 322.56 M -2.56 0.0 L 0.0 0.0 L 64.0 0.0 L 128.0 0.0 L 192.0 0.0 L 256.0 0.0 L 320.0 0.0 L 322.56 0.0 M -2.56 64.0 L 0.0 64.0 C 17.6 64.0, 17.6 60.8, 35.2 60.8 A 3.2 3.2 0 0 1 37.0745166004061 65.8745166004061 A 6.4 6.4 0 1 0 46.125483399593904 65.8745166004061 A 3.2 3.2 0 0 1 48.0 60.8 C 56.0 60.8, 56.0 64.0, 64.0 64.0 L 128.0 64.0 C 140.8 64.0, 140.8 67.2, 153.6 67.2 A 3.2 3.2 0 0 0 155.4745166004061 62.125483399593904 A 6.4 6.4 0 1 1 164.5254833995939 62.125483399593904 A 3.2 3.2 0 0 0 166.4 67.2 C 179.2 67.2, 179.2 64.0, 192.0 64.0 L 256.0 64.0 C 264.0 64.0, 264.0 60.8, 272.0 60.8 A 3.2 3.2 0 0 1 273.8745166004061 65.8745166004061 A 6.4 6.4 0 1 0 282.9254833995939 65.8745166004061 A 3.2 3.2 0 0 1 284.8 60.8 C 288.0 60.8, 288.0 67.2, 291.2 67.2 A 3.2 3.2 0 0 0 293.0745166004061 62.125483399593904 A 6.4 6.4 0 1 1 302.1254833995939 62.125483399593904 A 3.2 3.2 0 0 0 304.0 67.2 C 312.0 67.2, 312.0 64.0, 320.0 64.0 L 322.56 64.0 M -2.56 128.0 L 0.0 128.0 C 7.999999999999999 128.0, 7.999999999999999 131.2, 15.999999999999998 131.2 A 3.2 3.2 0 0 0 17.874516600406096 126.1254833995939 A 6.4 6.4 0 1 1 26.9254833995939 126.1254833995939 A 3.2 3.2 0 0 0 28.799999999999997 131.2 C 46.400000000000006 131.2, 46.400000000000006 128.0, 64.0 128.0 C 81.6 128.0, 81.6 124.8, 99.2 124.8 A 3.2 3.2 0 0 1 101.0745166004061 129.87451660040608 A 6.4 6.4 0 1 0 110.1254833995939 129.87451660040608 A 3.2 3.2 0 0 1 112.0 124.8 C 120.0 124.8, 120.0 128.0, 128.0 128.0 C 140.8 128.0, 140.8 131.2, 153.6 131.2 A 3.2 3.2 0 0 0 155.4745166004061 126.1254833995939 A 6.4 6.4 0 1 1 164.5254833995939 126.1254833995939 A 3.2 3.2 0 0 0 166.4 131.2 C 179.2 131.2, 179.2 128.0, 192.0 128.0 C 204.8 128.0, 204.8 131.2, 217.6 131.2 A 3.2 3.2 0 0 0 219.4745166004061 126.1254833995939 A 6.4 6.4 0 1 1 228.5254833995939 126.1254833995939 A 3.2 3.2 0 0 0 230.4 131.2 C 243.2 131.2, 243.2 128.0, 256.0 128.0 C 264.0 128.0, 264.0 131.2, 272.0 131.2 A 3.2 3.2 0 0 0 273.8745166004061 126.1254833995939 A 6.4 6.4 0 1 1 282.9254833995939 126.1254833995939 A 3.2 3.2 0 0 0 284.8 131.2 L 291.2 131.2 A 3.2 3.2 0 0 0 293.0745166004061 126.1254833995939 A 6.4 6.4 0 1 1 302.1254833995939 126.1254833995939 A 3.2 3.2 0 0 0 304.0 131.2 C 312.0 131.2, 312.0 128.0, 320.0 128.0 L 322.56 128.0 M -2.56 192.0 L 0.0 192.0 C 7.999999999999999 192.0, 7.999999999999999 188.8, 15.999999999999998 188.8 A 3.2 3.2 0 0 1 17.874516600406096 193.87451660040608 A 6.4 6.4 0 1 0 26.9254833995939 193.87451660040608 A 3.2 3.2 0 0 1 28.799999999999997 188.8 C 46.400000000000006 188.8, 46.400000000000006 192.0, 64.0 192.0 C 76.8 192.0, 76.8 195.2, 89.6 195.2 A 3.2 3.2 0 0 0 91.4745166004061 190.12548339959392 A 6.4 6.4 0 1 1 100.5254833995939 190.12548339959392 A 3.2 3.2 0 0 0 102.4 195.2 C 115.2 195.2, 115.2 192.0, 128.0 192.0 C 136.0 192.0, 136.0 188.8, 144.0 188.8 A 3.2 3.2 0 0 1 145.87451660040608 193.87451660040608 A 6.4 6.4 0 1 0 154.9254833995939 193.87451660040608 A 3.2 3.2 0 0 1 156.8 188.8 C 174.4 188.8, 174.4 192.0, 192.0 192.0 C 200.0 192.0, 200.0 195.2, 208.0 195.2 A 3.2 3.2 0 0 0 209.87451660040608 190.12548339959392 A 6.4 6.4 0 1 1 218.9254833995939 190.12548339959392 A 3.2 3.2 0 0 0 220.8 195.2 C 238.4 195.2, 238.4 192.0, 256.0 192.0 C 264.0 192.0, 264.0 188.8, 272.0 188.8 A 3.2 3.2 0 0 1 273.8745166004061 193.87451660040608 A 6.4 6.4 0 1 0 282.9254833995939 193.87451660040608 A 3.2 3.2 0 0 1 284.8 188.8 L 291.2 188.8 A 3.2 3.2 0 0 1 293.0745166004061 193.87451660040608 A 6.4 6.4 0 1 0 302.1254833995939 193.87451660040608 A 3.2 3.2 0 0 1 304.0 188.8 C 312.0 188.8, 312.0 192.0, 320.0 192.0 L 322.56 192.0 M -2.56 256.0 L 0.0 256.0 C 7.999999999999999 256.0, 7.999999999999999 252.8, 15.999999999999998 252.8 A 3.2 3.2 0 0 1 17.874516600406096 257.8745166004061 A 6.4 6.4 0 1 0 26.9254833995939 257.8745166004061 A 3.2 3.2 0 0 1 28.799999999999997 252.8 C 46.400000000000006 252.8, 46.400000000000006 256.0, 64.0 256.0 L 128.0 256.0 C 145.6 256.0, 145.6 252.8, 163.2 252.8 A 3.2 3.2 0 0 1 165.0745166004061 257.8745166004061 A 6.4 6.4 0 1 0 174.12548339959392 257.8745166004061 A 3.2 3.2 0 0 1 176.0 252.8 C 184.0 252.8, 184.0 256.0, 192.0 256.0 L 256.0 256.0 C 264.0 256.0, 264.0 252.8, 272.0 252.8 A 3.2 3.2 0 0 1 273.8745166004061 257.8745166004061 A 6.4 6.4 0 1 0 282.9254833995939 257.8745166004061 A 3.2 3.2 0 0 1 284.8 252.8 C 302.4 252.8, 302.4 256.0, 320.0 256.0 L 322.56 256.0 M -2.56 320.0 L 0.0 320.0 L 64.0 320.0 L 128.0 320.0 L 192.0 320.0 L 256.0 320.0 L 320.0 320.0 L 322.56 320.0"/></g></svg>