<svg width="320" height="320" xmlns="http://www.w3.org/2000/svg"><g transform="translate(32.0 32.0)"><path fill="none" stroke="black" d="M 0.0 -2.56 L 0.0 0.0 L 0.0 64.0 L 0.0 128.0 L 0.0 192.0 L 0.0 256.0 L 0.0 258.56 M 64.0 -2.56 L 64.0 0.0 L 64.0 64.0 C 64.0 76.8, 67.2 76.8, 67.2 89.6 A 3.2 3.2 0 0 1 62.125483399593904 91.4745166004061 A 6.4 6.4 0 1 0 62.125483399593904 100.5254833995939 A 3.2 3.2 0 0 1 67.2 102.4 C 67.2 115.2, 64.0 115.2, 64.0 128.0 C 64.0 140.8, 67.2 140.8, 67.2 153.6 A 3.2 3.2 0 0 1 62.125483399593904 155.4745166004061 A 6.4 6.4 0 1 0 62.125483399593904 164.5254833995939 A 3.2 3.2 0 0 1 67.2 166.4 C 67.2 179.2, 64.0 179.2, 64.0 192.0 C 64.0 204.8, 60.8 204.8, 60.8 217.6 A 3.2 3.2 0 0 0 65.8745166004061 219.4745166004061 A 6.4 6.4 0 1 1 65.8745166004061 228.5254833995939 A 3.2 3.2 0 0 0 60.8 230.4 C 60.8 243.2, 64.0 243.2, 64.0 256.0 L 64.0 258.56 M 128.0 -2.56 L 128.0 0.0 C 128.0 12.8, 131.2 12.8, 131.2 25.6 A 3.2 3.2 0 0 1 126.1254833995939 27.474516600406098 A 6.4 6.4 0 1 0 126.1254833995939 36.5254833995939 A 3.2 3.2 0 0 1 131.2 38.4 C 131.2 51.2, 128.0 51.2, 128.0 64.0 C 128.0 76.8, 124.8 76.8, 124.8 89.6 A 3.2 3.2 0 0 0 129.87451660040608 91.4745166004061 A 6.4 6.4 0 1 1 129.87451660040608 100.5254833995939 A 3.2 3.2 0 0 0 124.8 102.4 C 124.8 115.2, 128.0 115.2, 128.0 128.0 C 128.0 140.8, 131.2 140.8, 131.2 153.6 A 3.2 3.2 0 0 1 126.1254833995939 155.4745166004061 A 6.4 6.4 0 1 0 126.1254833995939 164.5254833995939 A 3.2 3.2 0 0 1 131.2 166.4 C 131.2 179.2, 128.0 179.2, 128.0 192.0 C 128.0 203.52, 132.48 203.52, 132.48 215.04 A 4.4799999999999995 4.4799999999999995 0 0 1 125.37567675943147 217.66432324056854 A 8.959999999999999 8.959999999999999 0 1 0 125.37567675943147 230.33567675943146 A 4.4799999999999995 4.4799999999999995 0 0 1 132.48 232.96 C 132.48 244.48, 128.0 244.48, 128.0 256.0 L 128.0 258.56 M 192.0 -2.56 L 192.0 0.0 C 192.0 12.8, 195.2 12.8, 195.2 25.6 A 3.2 3.2 0 0 1 190.12548339959392 27.474516600406098 A 6.4 6.4 0 1 0 190.12548339959392 36.5254833995939 A 3.2 3.2 0 0 1 195.2 38.4 C 195.2 51.2, 192.0 51.2, 192.0 64.0 C 192.0 76.8, 188.8 76.8, 188.8 89.6 A 3.2 3.2 0 0 0 193.87451660040608 91.4745166004061 A 6.4 6.4 0 1 1 193.87451660040608 100.5254833995939 A 3.2 3.2 0 0 0 188.8 102.4 C 188.8 115.2, 192.0 115.2, 192.0 128.0 C 192.0 139.52, 187.52 139.52, 187.52 151.04 A 4.4799999999999995 4.4799999999999995 0 0 0 194.62432324056854 153.66432324056854 A 8.959999999999999 8.959999999999999 0 1 1 194.62432324056854 166.33567675943146 A 4.4799999999999995 4.4799999999999995 0 0 0 187.52 168.96 C 187.52 180.48, 192.0 180.48, 192.0 192.0 C 192.0 203.52, 196.48 203.52, 196.48 215.04 A 4.4799999999999995 4.4799999999999995 0 0 1 189.37567675943146 217.66432324056854 A 8.959999999999999 8.959999999999999 0 1 0 189.37567675943146 230.33567675943146 A 4.4799999999999995 4.4799999999999995 0 0 1 196.48 232.96 C 196.48 244.48, 192.0 244.48, 192.0 256.0 L 192.0 258.56 M 256.0 -2.56 L 256.0 0.0 L 256.0 64.0 L 256.0 128.0 L 256.0 192.0 L 256.0 256.0 L 256.0 258.56 M -2.56 0.0 L 0.0 0.0 L 64.0 0.0 L 128.0 0.0 L 192.0 0.0 L 256.0 0.0 L 258.56 0.0 M -2.56 64.0 L 0.0 64.0 L 64.0 64.0 C 76.8 64.0, 76.8 67.2, 89.6 67.2 A 3.2 3.2 0 0 0 91.4745166004061 62.125483399593904 A 6.4 6.4 0 1 1 100.5254833995939 62.125483399593904 A 3.2 3.2 0 0 0 102.4 67.2 C 115.2 67.2, 115.2 64.0, 128.0 64.0 C 139.52 64.0, 139.52 68.48, 151.04 68.48 A 4.4799999999999995 4.4799999999999995 0 0 0 153.66432324056854 61.375676759431464 A 8.959999999999999 8.959999999999999 0 1 1 166.33567675943146 61.375676759431464 A 4.4799999999999995 4.4799999999999995 0 0 0 168.96 68.48 C 180.48 68.48, 180.48 64.0, 192.0 64.0 C 203.52 64.0, 203.52 59.52, 215.04 59.52 A 4.4799999999999995 4.4799999999999995 0 0 1 217.66432324056854 66.62432324056853 A 8.959999999999999 8.959999999999999 0 1 0 230.33567675943146 66.62432324056853 A 4.4799999999999995 4.4799999999999995 0 0 1 232.96 59.52 C 244.48 59.52, 244.48 64.0, 256.0 64.0 L 258.56 64.0 M -2.56 128.0 L 0.0 128.0 C 12.8 128.0, 12.8 124.8, 25.6 124.8 A 3.2 3.2 0 0 1 27.474516600406098 129.87451660040608 A 6.4 6.4 0 1 0 36.5254833995939 129.87451660040608 A 3.2 3.2 0 0 1 38.4 124.8 C 51.2 124.8, 51.2 128.0, 64.0 128.0 C 76.8 128.0, 76.8 124.8, 89.6 124.8 A 3.2 3.2 0 0 1 91.4745166004061 129.87451660040608 A 6.4 6.4 0 1 0 100.5254833995939 129.87451660040608 A 3.2 3.2 0 0 1 102.4 124.8 C 115.2 124.8, 115.2 128.0, 128.0 128.0 C 139.52 128.0, 139.52 123.52, 151.04 123.52 A 4.4799999999999995 4.4799999999999995 0 0 1 153.66432324056854 130.62432324056854 A 8.959999999999999 8.959999999999999 0 1 0 166.33567675943146 130.62432324056854 A 4.4799999999999995 4.4799999999999995 0 0 1 168.96 123.52 C 180.48 123.52, 180.48 128.0, 192.0 128.0 C 203.52 128.0, 203.52 132.48, 215.04 132.48 A 4.4799999999999995 4.4799999999999995 0 0 0 217.66432324056854 125.37567675943147 A 8.959999999999999 8.959999999999999 0 1 1 230.33567675943146 125.37567675943147 A 4.4799999999999995 4.4799999999999995 0 0 0 232.96 132.48 C 244.48 132.48, 244.48 128.0, 256.0 128.0 L 258.56 128.0 M -2.56 192.0 L 0.0 192.0 C 12.8 192.0, 12.8 195.2, 25.6 195.2 A 3.2 3.2 0 0 0 27.474516600406098 190.12548339959392 A 6.4 6.4 0 1 1 36.5254833995939 190.12548339959392 A 3.2 3.2 0 0 0 38.4 195.2 C 51.2 195.2, 51.2 192.0, 64.0 192.0 C 75.52 192.0, 75.52 187.52, 87.03999999999999 187.52 A 4.4799999999999995 4.4799999999999995 0 0 1 89.66432324056854 194.62432324056854 A 8.959999999999999 8.959999999999999 0 1 0 102.33567675943146 194.62432324056854 A 4.4799999999999995 4.4799999999999995 0 0 1 104.96000000000001 187.52 C 116.47999999999999 187.52, 116.47999999999999 192.0, 128.0 192.0 C 140.8 192.0, 140.8 188.8, 153.6 188.8 A 3.2 3.2 0 0 1 155.4745166004061 193.87451660040608 A 6.4 6.4 0 1 0 164.5254833995939 193.87451660040608 A 3.2 3.2 0 0 1 166.4 188.8 C 179.2 188.8, 179.2 192.0, 192.0 192.0 C 203.52 192.0, 203.52 196.48, 215.04 196.48 A 4.4799999999999995 4.4799999999999995 0 0 0 217.66432324056854 189.37567675943146 A 8.959999999999999 8.959999999999999 0 1 1 230.33567675943146 189.37567675943146 A 4.4799999999999995 4.4799999999999995 0 0 0 232.96 196.48 C 244.48 196.48, 244.48 192.0, 256.0 192.0 L 258.56 192.0 M -2.56 256.0 L 0.0 256.0 L 64.0 256.0 L 128.0 256.0 L 192.0 256.0 L 256.0 256.0 L 258.56 256.0"/></g></svg>