<svg width="320" height="320" xmlns="http://www.w3.org/2000/svg"><g transform="translate(32.0 32.0)"><path fill="none" stroke="black" d="M 0.0 -2.56 L 0.0 0.0 L 0.0 64.0 L 0.0 128.0 L 0.0 192.0 L 0.0 256.0 L 0.0 258.56 M 64.0 -2.56 L 64.0 0.0 C 64.0 7.999999999999999, 60.8 7.999999999999999, 60.8 15.999999999999998 A 3.2 3.2 0 0 0 65.8745166004061 17.874516600406096 A 6.4 6.4 0 1 1 65.8745166004061 26.9254833995939 A 3.2 3.2 0 0 0 60.8 28.799999999999997 C 60.8 32.0, 67.2 32.0, 67.2 35.2 A 3.2 3.2 0 0 1 62.125483399593904 37.0745166004061 A 6.4 6.4 0 1 0 62.125483399593904 46.125483399593904 A 3.2 3.2 0 0 1 67.2 48.0 C 67.2 56.0, 64.0 56.0, 64.0 64.0 C 64.0 81.6, 60.8 81.6, 60.8 99.2 A 3.2 3.2 0 0 0 65.8745166004061 101.0745166004061 A 6.4 6.4 0 1 1 65.8745166004061 110.1254833995939 A 3.2 3.2 0 0 0 60.8 112.0 C 60.8 120.0, 64.0 120.0, 64.0 128.0 C 64.0 139.52, 68.48 139.52, 68.48 151.04 A 4.4799999999999995 4.4799999999999995 0 0 1 61.375676759431464 153.66432324056854 A 8.959999999999999 8.959999999999999 0 1 0 61.375676759431464 166.33567675943146 A 4.4799999999999995 4.4799999999999995 0 0 1 68.48 168.96 C 68.48 180.48, 64.0 180.48, 64.0 192.0 C 64.0 209.6, 67.2 209.6, 67.2 227.2 A 3.2 3.2 0 0 1 62.125483399593904 229.0745166004061 A 6.4 6.4 0 1 0 62.125483399593904 238.12548339959392 A 3.2 3.2 0 0 1 67.2 240.0 C 67.2 248.0, 64.0 248.0, 64.0 256.0 L 64.0 258.56 M 128.0 -2.56 L 128.0 0.0 L 128.0 64.0 L 128.0 128.0 L 128.0 192.0 L 128.0 256.0 L 128.0 258.56 M 192.0 -2.56 L 192.0 0.0 C 192.0 7.999999999999999, 195.2 7.999999999999999, 195.2 15.999999999999998 A 3.2 3.2 0 0 1 190.12548339959392 17.874516600406096 A 6.4 6.4 0 1 0 190.12548339959392 26.9254833995939 A 3.2 3.2 0 0 1 195.2 28.799999999999997 C 195.2 32.0, 188.8 32.0, 188.8 35.2 A 3.2 3.2 0 0 0 193.87451660040608 37.0745166004061 A 6.4 6.4 0 1 1 193.87451660040608 46.125483399593904 A 3.2 3.2 0 0 0 188.8 48.0 C 188.8 56.0, 192.0 56.0, 192.0 64.0 C 192.0 76.8, 195.2 76.8, 195.2 89.6 A 3.2 3.2 0 0 1 190.12548339959392 91.4745166004061 A 6.4 6.4 0 1 0 190.12548339959392 100.5254833995939 A 3.2 3.2 0 0 1 195.2 102.4 C 195.2 115.2, 192.0 115.2, 192.0 128.0 C 192.0 139.52, 187.52 139.52, 187.52 151.04 A 4.4799999999999995 4.4799999999999995 0 0 0 194.62432324056854 153.66432324056854 A 8.959999999999999 8.959999999999999 0 1 1 194.62432324056854 166.33567675943146 A 4.4799999999999995 4.4799999999999995 0 0 0 187.52 168.96 C 187.52 180.48, 192.0 180.48, 192.0 192.0 C 192.0 200.0, 195.2 200.0, 195.2 208.0 A 3.2 3.2 0 0 1 190.12548339959392 209.87451660040608 A 6.4 6.4 0 1 0 190.12548339959392 218.9254833995939 A 3.2 3.2 0 0 1 195.2 220.8 C 195.2 238.4, 192.0 238.4, 192.0 256.0 L 192.0 258.56 M 256.0 -2.56 L 256.0 0.0 L 256.0 64.0 L 256.0 128.0 L 256.0 192.0 L 256.0 256.0 L 256.0 258.56 M -2.56 0.0 L 0.0 0.0 L 64.0 0.0 L 128.0 0.0 L 192.0 0.0 L 256.0 0.0 L 258.56 0.0 M -2.56 64.0 L 0.0 64.0 C 7.999999999999999 64.0, 7.999999999999999 60.8, 15.999999999999998 60.8 A 3.2 3.2 0 0 1 17.874516600406096 65.8745166004061 A 6.4 6.4 0 1 0 26.9254833995939 65.8745166004061 A 3.2 3.2 0 0 1 28.799999999999997 60.8 C 46.400000000000006 60.8, 46.400000000000006 64.0, 64.0 64.0 C 72.0 64.0, 72.0 67.2, 80.0 67.2 A 3.2 3.2 0 0 0 81.8745166004061 62.125483399593904 A 6.4 6.4 0 1 1 90.9254833995939 62.125483399593904 A 3.2 3.2 0 0 0 92.8 67.2 C 96.0 67.2, 96.0 60.8, 99.2 60.8 A 3.2 3.2 0 0 1 101.0745166004061 65.8745166004061 A 6.4 6.4 0 1 0 110.1254833995939 65.8745166004061 A 3.2 3.2 0 0 1 112.0 60.8 C 120.0 60.8, 120.0 64.0, 128.0 64.0 C 139.52 64.0, 139.52 68.48, 151.04 68.48 A 4.4799999999999995 4.4799999999999995 0 0 0 153.66432324056854 61.375676759431464 A 8.959999999999999 8.959999999999999 0 1 1 166.33567675943146 61.375676759431464 A 4.4799999999999995 4.4799999999999995 0 0 0 168.96 68.48 C 180.48 68.48, 180.48 64.0, 192.0 64.0 C 204.8 64.0, 204.8 67.2, 217.6 67.2 A 3.2 3.2 0 0 0 219.4745166004061 62.125483399593904 A 6.4 6.4 0 1 1 228.5254833995939 62.125483399593904 A 3.2 3.2 0 0 0 230.4 67.2 C 243.2 67.2, 243.2 64.0, 256.0 64.0 L 258.56 64.0 M -2.56 128.0 L 0.0 128.0 L 64.0 128.0 L 128.0 128.0 L 192.0 128.0 L 256.0 128.0 L 258.56 128.0 M -2.56 192.0 L 0.0 192.0 C 7.999999999999999 192.0, 7.999999999999999 188.8, 15.999999999999998 188.8 A 3.2 3.2 0 0 1 17.874516600406096 193.87451660040608 A 6.4 6.4 0 1 0 26.9254833995939 193.87451660040608 A 3.2 3.2 0 0 1 28.799999999999997 188.8 C 46.400000000000006 188.8, 46.400000000000006 192.0, 64.0 192.0 C 72.0 192.0, 72.0 188.8, 80.0 188.8 A 3.2 3.2 0 0 1 81.8745166004061 193.87451660040608 A 6.4 6.4 0 1 0 90.9254833995939 193.87451660040608 A 3.2 3.2 0 0 1 92.8 188.8 C 110.4 188.8, 110.4 192.0, 128.0 192.0 C 139.52 192.0, 139.52 196.48, 151.04 196.48 A 4.4799999999999995 4.4799999999999995 0 0 0 153.66432324056854 189.37567675943146 A 8.959999999999999 8.959999999999999 0 1 1 166.33567675943146 189.37567675943146 A 4.4799999999999995 4.4799999999999995 0 0 0 168.96 196.48 C 180.48 196.48, 180.48 192.0, 192.0 192.0 C 200.0 192.0, 200.0 195.2, 208.0 195.2 A 3.2 3.2 0 0 0 209.87451660040608 190.12548339959392 A 6.4 6.4 0 1 1 218.9254833995939 190.12548339959392 A 3.2 3.2 0 0 0 220.8 195.2 C 238.4 195.2, 238.4 192.0, 256.0 192.0 L 258.56 192.0 M -2.56 256.0 L 0.0 256.0 L 64.0 256.0 L 128.0 256.0 L 192.0 256.0 L 256.0 256.0 L 258.56 256.0"/></g></svg>