<svg width="320" height="320" xmlns="http://www.w3.org/2000/svg"><g transform="translate(32.0 32.0)"><path fill="none" stroke="black" d="M 0.0 -2.56 L 0.0 0.0 L 0.0 64.0 L 0.0 128.0 L 0.0 192.0 L 0.0 256.0 L 0.0 258.56 M 64.0 -2.56 L 64.0 0.0 C 64.0 17.6, 67.2 17.6, 67.2 35.2 A 3.2 3.2 0 0 1 62.125483399593904 37.0745166004061 A 6.4 6.4 0 1 0 62.125483399593904 46.125483399593904 A 3.2 3.2 0 0 1 67.2 48.0 C 67.2 56.0, 64.0 56.0, 64.0 64.0 C 64.0 76.8, 60.8 76.8, 60.8 89.6 A 3.2 3.2 0 0 0 65.8745166004061 91.4745166004061 A 6.4 6.4 0 1 1 65.8745166004061 100.5254833995939 A 3.2 3.2 0 0 0 60.8 102.4 C 60.8 115.2, 64.0 115.2, 64.0 128.0 C 64.0 145.6, 60.8 145.6, 60.8 163.2 A 3.2 3.2 0 0 0 65.8745166004061 165.0745166004061 A 6.4 6.4 0 1 1 65.8745166004061 174.12548339959392 A 3.2 3.2 0 0 0 60.8 176.0 C 60.8 184.0, 64.0 184.0, 64.0 192.0 C 64.0 200.0, 67.2 200.0, 67.2 208.0 A 3.2 3.2 0 0 1 62.125483399593904 209.87451660040608 A 6.4 6.4 0 1 0 62.125483399593904 218.9254833995939 A 3.2 3.2 0 0 1 67.2 220.8 L 67.2 227.2 A 3.2 3.2 0 0 1 62.125483399593904 229.0745166004061 A 6.4 6.4 0 1 0 62.125483399593904 238.12548339959392 A 3.2 3.2 0 0 1 67.2 240.0 C 67.2 248.0, 64.0 248.0, 64.0 256.0 L 64.0 258.56 M 128.0 -2.56 L 128.0 0.0 L 128.0 64.0 C 128.0 76.8, 131.2 76.8, 131.2 89.6 A 3.2 3.2 0 0 1 126.1254833995939 91.4745166004061 A 6.4 6.4 0 1 0 126.1254833995939 100.5254833995939 A 3.2 3.2 0 0 1 131.2 102.4 C 131.2 115.2, 128.0 115.2, 128.0 128.0 C 128.0 136.0, 131.2 136.0, 131.2 144.0 A 3.2 3.2 0 0 1 126.1254833995939 145.87451660040608 A 6.4 6.4 0 1 0 126.1254833995939 154.9254833995939 A 3.2 3.2 0 0 1 131.2 156.8 C 131.2 174.4, 128.0 174.4, 128.0 192.0 C 128.0 204.8, 131.2 204.8, 131.2 217.6 A 3.2 3.2 0 0 1 126.1254833995939 219.4745166004061 A 6.4 6.4 0 1 0 126.1254833995939 228.5254833995939 A 3.2 3.2 0 0 1 131.2 230.4 C 131.2 243.2, 128.0 243.2, 128.0 256.0 L 128.0 258.56 M 192.0 -2.56 L 192.0 0.0 C 192.0 7.999999999999999, 195.2 7.999999999999999, 195.2 15.999999999999998 A 3.2 3.2 0 0 1 190.12548339959392 17.874516600406096 A 6.4 6.4 0 1 0 190.12548339959392 26.9254833995939 A 3.2 3.2 0 0 1 195.2 28.799999999999997 C 195.2 46.400000000000006, 192.0 46.400000000000006, 192.0 64.0 C 192.0 76.8, 195.2 76.8, 195.2 89.6 A 3.2 3.2 0 0 1 190.12548339959392 91.4745166004061 A 6.4 6.4 0 1 0 190.12548339959392 100.5254833995939 A 3.2 3.2 0 0 1 195.2 102.4 C 195.2 115.2, 192.0 115.2, 192.0 128.0 C 192.0 145.6, 188.8 145.6, 188.8 163.2 A 3.2 3.2 0 0 0 193.87451660040608 165.0745166004061 A 6.4 6.4 0 1 1 193.87451660040608 174.12548339959392 A 3.2 3.2 0 0 0 188.8 176.0 C 188.8 184.0, 192.0 184.0, 192.0 192.0 C 192.0 200.0, 188.8 200.0, 188.8 208.0 A 3.2 3.2 0 0 0 193.87451660040608 209.87451660040608 A 6.4 6.4 0 1 1 193.87451660040608 218.9254833995939 A 3.2 3.2 0 0 0 188.8 220.8 C 188.8 238.4, 192.0 238.4, 192.0 256.0 L 192.0 258.56 M 256.0 -2.56 L 256.0 0.0 L 256.0 64.0 L 256.0 128.0 L 256.0 192.0 L 256.0 256.0 L 256.0 258.56 M -2.56 0.0 L 0.0 0.0 L 64.0 0.0 L 128.0 0.0 L 192.0 0.0 L 256.0 0.0 L 258.56 0.0 M -2.56 64.0 L 0.0 64.0 C 7.999999999999999 64.0, 7.999999999999999 67.2, 15.999999999999998 67.2 A 3.2 3.2 0 0 0 17.874516600406096 62.125483399593904 A 6.4 6.4 0 1 1 26.9254833995939 62.125483399593904 A 3.2 3.2 0 0 0 28.799999999999997 67.2 C 46.400000000000006 67.2, 46.400000000000006 64.0, 64.0 64.0 C 72.0 64.0, 72.0 60.8, 80.0 60.8 A 3.2 3.2 0 0 1 81.8745166004061 65.8745166004061 A 6.4 6.4 0 1 0 90.9254833995939 65.8745166004061 A 3.2 3.2 0 0 1 92.8 60.8 L 99.2 60.8 A 3.2 3.2 0 0 1 101.0745166004061 65.8745166004061 A 6.4 6.4 0 1 0 110.1254833995939 65.8745166004061 A 3.2 3.2 0 0 1 112.0 60.8 C 120.0 60.8, 120.0 64.0, 128.0 64.0 C 140.8 64.0, 140.8 60.8, 153.6 60.8 A 3.2 3.2 0 0 1 155.4745166004061 65.8745166004061 A 6.4 6.4 0 1 0 164.5254833995939 65.8745166004061 A 3.2 3.2 0 0 1 166.4 60.8 C 179.2 60.8, 179.2 64.0, 192.0 64.0 C 200.0 64.0, 200.0 60.8, 208.0 60.8 A 3.2 3.2 0 0 1 209.87451660040608 65.8745166004061 A 6.4 6.4 0 1 0 218.9254833995939 65.8745166004061 A 3.2 3.2 0 0 1 220.8 60.8 C 238.4 60.8, 238.4 64.0, 256.0 64.0 L 258.56 64.0 M -2.56 128.0 L 0.0 128.0 C 17.6 128.0, 17.6 131.2, 35.2 131.2 A 3.2 3.2 0 0 0 37.0745166004061 126.1254833995939 A 6.4 6.4 0 1 1 46.125483399593904 126.1254833995939 A 3.2 3.2 0 0 0 48.0 131.2 C 56.0 131.2, 56.0 128.0, 64.0 128.0 C 72.0 128.0, 72.0 124.8, 80.0 124.8 A 3.2 3.2 0 0 1 81.8745166004061 129.87451660040608 A 6.4 6.4 0 1 0 90.9254833995939 129.87451660040608 A 3.2 3.2 0 0 1 92.8 124.8 C 110.4 124.8, 110.4 128.0, 128.0 128.0 C 145.6 128.0, 145.6 124.8, 163.2 124.8 A 3.2 3.2 0 0 1 165.0745166004061 129.87451660040608 A 6.4 6.4 0 1 0 174.12548339959392 129.87451660040608 A 3.2 3.2 0 0 1 176.0 124.8 C 184.0 124.8, 184.0 128.0, 192.0 128.0 C 204.8 128.0, 204.8 124.8, 217.6 124.8 A 3.2 3.2 0 0 1 219.4745166004061 129.87451660040608 A 6.4 6.4 0 1 0 228.5254833995939 129.87451660040608 A 3.2 3.2 0 0 1 230.4 124.8 C 243.2 124.8, 243.2 128.0, 256.0 128.0 L 258.56 128.0 M -2.56 192.0 L 0.0 192.0 C 12.8 192.0, 12.8 195.2, 25.6 195.2 A 3.2 3.2 0 0 0 27.474516600406098 190.12548339959392 A 6.4 6.4 0 1 1 36.5254833995939 190.12548339959392 A 3.2 3.2 0 0 0 38.4 195.2 C 51.2 195.2, 51.2 192.0, 64.0 192.0 C 72.0 192.0, 72.0 195.2, 80.0 195.2 A 3.2 3.2 0 0 0 81.8745166004061 190.12548339959392 A 6.4 6.4 0 1 1 90.9254833995939 190.12548339959392 A 3.2 3.2 0 0 0 92.8 195.2 C 110.4 195.2, 110.4 192.0, 128.0 192.0 C 136.0 192.0, 136.0 188.8, 144.0 188.8 A 3.2 3.2 0 0 1 145.87451660040608 193.87451660040608 A 6.4 6.4 0 1 0 154.9254833995939 193.87451660040608 A 3.2 3.2 0 0 1 156.8 188.8 L 163.2 188.8 A 3.2 3.2 0 0 1 165.0745166004061 193.87451660040608 A 6.4 6.4 0 1 0 174.12548339959392 193.87451660040608 A 3.2 3.2 0 0 1 176.0 188.8 C 184.0 188.8, 184.0 192.0, 192.0 192.0 C 204.8 192.0, 204.8 188.8, 217.6 188.8 A 3.2 3.2 0 0 1 219.4745166004061 193.87451660040608 A 6.4 6.4 0 1 0 228.5254833995939 193.87451660040608 A 3.2 3.2 0 0 1 230.4 188.8 C 243.2 188.8, 243.2 192.0, 256.0 192.0 L 258.56 192.0 M -2.56 256.0 L 0.0 256.0 L 64.0 256.0 L 128.0 256.0 L 192.0 256.0 L 256.0 256.0 L 258.56 256.0"/></g></svg>