<svg width="320" height="320" xmlns="http://www.w3.org/2000/svg"><g transform="translate(32.0 32.0)"><path fill="none" stroke="black" d="M 0.0 -2.56 L 0.0 0.0 L 0.0 64.0 L 0.0 128.0 L 0.0 192.0 L 0.0 256.0 L 0.0 258.56 M 64.0 -2.56 L 64.0 0.0 C 64.0 17.6, 67.2 17.6, 67.2 35.2 A 3.2 3.2 0 0 1 62.125483399593904 37.0745166004061 A 6.4 6.4 0 1 0 62.125483399593904 46.125483399593904 A 3.2 3.2 0 0 1 67.2 48.0 C 67.2 56.0, 64.0 56.0, 64.0 64.0 L 64.0 128.0 L 64.0 192.0 C 64.0 209.6, 60.8 209.6, 60.8 227.2 A 3.2 3.2 0 0 0 65.8745166004061 229.0745166004061 A 6.4 6.4 0 1 1 65.8745166004061 238.12548339959392 A 3.2 3.2 0 0 0 60.8 240.0 C 60.8 248.0, 64.0 248.0, 64.0 256.0 L 64.0 258.56 M 128.0 -2.56 L 128.0 0.0 C 128.0 12.8, 124.8 12.8, 124.8 25.6 A 3.2 3.2 0 0 0 129.87451660040608 27.474516600406098 A 6.4 6.4 0 1 1 129.87451660040608 36.5254833995939 A 3.2 3.2 0 0 0 124.8 38.4 C 124.8 51.2, 128.0 51.2, 128.0 64.0 C 128.0 81.6, 124.8 81.6, 124.8 99.2 A 3.2 3.2 0 0 0 129.87451660040608 101.0745166004061 A 6.4 6.4 0 1 1 129.87451660040608 110.1254833995939 A 3.2 3.2 0 0 0 124.8 112.0 C 124.8 120.0, 128.0 120.0, 128.0 128.0 C 128.0 136.0, 124.8 136.0, 124.8 144.0 A 3.2 3.2 0 0 0 129.87451660040608 145.87451660040608 A 6.4 6.4 0 1 1 129.87451660040608 154.9254833995939 A 3.2 3.2 0 0 0 124.8 156.8 C 124.8 160.0, 131.2 160.0, 131.2 163.2 A 3.2 3.2 0 0 1 126.1254833995939 165.0745166004061 A 6.4 6.4 0 1 0 126.1254833995939 174.12548339959392 A 3.2 3.2 0 0 1 131.2 176.0 C 131.2 184.0, 128.0 184.0, 128.0 192.0 C 128.0 204.8, 131.2 204.8, 131.2 217.6 A 3.2 3.2 0 0 1 126.1254833995939 219.4745166004061 A 6.4 6.4 0 1 0 126.1254833995939 228.5254833995939 A 3.2 3.2 0 0 1 131.2 230.4 C 131.2 243.2, 128.0 243.2, 128.0 256.0 L 128.0 258.56 M 192.0 -2.56 L 192.0 0.0 C 192.0 12.8, 195.2 12.8, 195.2 25.6 A 3.2 3.2 0 0 1 190.12548339959392 27.474516600406098 A 6.4 6.4 0 1 0 190.12548339959392 36.5254833995939 A 3.2 3.2 0 0 1 195.2 38.4 C 195.2 51.2, 192.0 51.2, 192.0 64.0 C 192.0 81.6, 195.2 81.6, 195.2 99.2 A 3.2 3.2 0 0 1 190.12548339959392 101.0745166004061 A 6.4 6.4 0 1 0 190.12548339959392 110.1254833995939 A 3.2 3.2 0 0 1 195.2 112.0 C 195.2 120.0, 192.0 120.0, 192.0 128.0 C 192.0 136.0, 188.8 136.0, 188.8 144.0 A 3.2 3.2 0 0 0 193.87451660040608 145.87451660040608 A 6.4 6.4 0 1 1 193.87451660040608 154.9254833995939 A 3.2 3.2 0 0 0 188.8 156.8 L 188.8 163.2 A 3.2 3.2 0 0 0 193.87451660040608 165.0745166004061 A 6.4 6.4 0 1 1 193.87451660040608 174.12548339959392 A 3.2 3.2 0 0 0 188.8 176.0 C 188.8 184.0, 192.0 184.0, 192.0 192.0 C 192.0 200.0, 195.2 200.0, 195.2 208.0 A 3.2 3.2 0 0 1 190.12548339959392 209.87451660040608 A 6.4 6.4 0 1 0 190.12548339959392 218.9254833995939 A 3.2 3.2 0 0 1 195.2 220.8 L 195.2 227.2 A 3.2 3.2 0 0 1 190.12548339959392 229.0745166004061 A 6.4 6.4 0 1 0 190.12548339959392 238.12548339959392 A 3.2 3.2 0 0 1 195.2 240.0 C 195.2 248.0, 192.0 248.0, 192.0 256.0 L 192.0 258.56 M 256.0 -2.56 L 256.0 0.0 L 256.0 64.0 L 256.0 128.0 L 256.0 192.0 L 256.0 256.0 L 256.0 258.56 M -2.56 0.0 L 0.0 0.0 L 64.0 0.0 L 128.0 0.0 L 192.0 0.0 L 256.0 0.0 L 258.56 0.0 M -2.56 64.0 L 0.0 64.0 C 17.6 64.0, 17.6 67.2, 35.2 67.2 A 3.2 3.2 0 0 0 37.0745166004061 62.125483399593904 A 6.4 6.4 0 1 1 46.125483399593904 62.125483399593904 A 3.2 3.2 0 0 0 48.0 67.2 C 56.0 67.2, 56.0 64.0, 64.0 64.0 L 128.0 64.0 L 192.0 64.0 C 204.8 64.0, 204.8 67.2, 217.6 67.2 A 3.2 3.2 0 0 0 219.4745166004061 62.125483399593904 A 6.4 6.4 0 1 1 228.5254833995939 62.125483399593904 A 3.2 3.2 0 0 0 230.4 67.2 C 243.2 67.2, 243.2 64.0, 256.0 64.0 L 258.56 64.0 M -2.56 128.0 L 0.0 128.0 C 17.6 128.0, 17.6 124.8, 35.2 124.8 A 3.2 3.2 0 0 1 37.0745166004061 129.87451660040608 A 6.4 6.4 0 1 0 46.125483399593904 129.87451660040608 A 3.2 3.2 0 0 1 48.0 124.8 C 56.0 124.8, 56.0 128.0, 64.0 128.0 C 72.0 128.0, 72.0 124.8, 80.0 124.8 A 3.2 3.2 0 0 1 81.8745166004061 129.87451660040608 A 6.4 6.4 0 1 0 90.9254833995939 129.87451660040608 A 3.2 3.2 0 0 1 92.8 124.8 C 96.0 124.8, 96.0 131.2, 99.2 131.2 A 3.2 3.2 0 0 0 101.0745166004061 126.1254833995939 A 6.4 6.4 0 1 1 110.1254833995939 126.1254833995939 A 3.2 3.2 0 0 0 112.0 131.2 C 120.0 131.2, 120.0 128.0, 128.0 128.0 L 192.0 128.0 L 256.0 128.0 L 258.56 128.0 M -2.56 192.0 L 0.0 192.0 C 7.999999999999999 192.0, 7.999999999999999 195.2, 15.999999999999998 195.2 A 3.2 3.2 0 0 0 17.874516600406096 190.12548339959392 A 6.4 6.4 0 1 1 26.9254833995939 190.12548339959392 A 3.2 3.2 0 0 0 28.799999999999997 195.2 C 46.400000000000006 195.2, 46.400000000000006 192.0, 64.0 192.0 L 128.0 192.0 L 192.0 192.0 C 200.0 192.0, 200.0 195.2, 208.0 195.2 A 3.2 3.2 0 0 0 209.87451660040608 190.12548339959392 A 6.4 6.4 0 1 1 218.9254833995939 190.12548339959392 A 3.2 3.2 0 0 0 220.8 195.2 C 224.0 195.2, 224.0 188.8, 227.2 188.8 A 3.2 3.2 0 0 1 229.0745166004061 193.87451660040608 A 6.4 6.4 0 1 0 238.12548339959392 193.87451660040608 A 3.2 3.2 0 0 1 240.0 188.8 C 248.0 188.8, 248.0 192.0, 256.0 192.0 L 258.56 192.0 M -2.56 256.0 L 0.0 256.0 L 64.0 256.0 L 128.0 256.0 L 192.0 256.0 L 256.0 256.0 L 258.56 256.0"/></g></svg>